SplineFontDB: 2.0
FontName: ArundinaSans-BoldOblique
FullName: Arundina Sans Bold Oblique
FamilyName: Arundina Sans
Weight: Bold
Copyright: Copyright (c) 2003 by Bitstream, Inc. All Rights Reserved.\nCopyright (c) 2007 by Software Industry Promotion Agency (Public Organization). All Rights Reserved.
Version: 1.20
ItalicAngle: -11
UnderlinePosition: -153
UnderlineWidth: 102
Ascent: 1638
Descent: 410
Order2: 1
NeedsXUIDChange: 1
XUID: [1021 375 425136265 525174]
FSType: 0
OS2Version: 2
OS2_WeightWidthSlopeOnly: 0
OS2_UseTypoMetrics: 1
CreationTime: 1125072480
ModificationTime: 1195227273
PfmFamily: 33
TTFWeight: 700
TTFWidth: 5
LineGap: 78
VLineGap: 0
Panose: 2 11 3 0 2 2 2 2 2 4
OS2TypoAscent: 0
OS2TypoAOffset: 1
OS2TypoDescent: -410
OS2TypoDOffset: 1
OS2TypoLinegap: 0
OS2WinAscent: 57
OS2WinAOffset: 1
OS2WinDescent: 104
OS2WinDOffset: 1
HheadAscent: 57
HheadAOffset: 1
HheadDescent: -104
HheadDOffset: 1
OS2SubXSize: 1434
OS2SubYSize: 1331
OS2SubXOff: 0
OS2SubYOff: 287
OS2SupXSize: 1434
OS2SupYSize: 1331
OS2SupXOff: 0
OS2SupYOff: 977
OS2StrikeYSize: 102
OS2StrikeYPos: 512
OS2FamilyClass: 2063
OS2Vendor: 'BLWK'
Lookup: 4 0 0 "'frac' Diagonal Fractions in Latin lookup 0"  {"'frac' Diagonal Fractions in Latin lookup 0 subtable"  } ['frac' ('latn' <'dflt' > ) ]
Lookup: 6 0 0 "'liga' Standard Ligatures in Latin lookup 1"  {"'liga' Standard Ligatures in Latin lookup 1 subtable"  } ['liga' ('latn' <'dflt' > ) ]
Lookup: 6 0 0 "'liga' Standard Ligatures in Latin lookup 2"  {"'liga' Standard Ligatures in Latin lookup 2 subtable"  } ['liga' ('latn' <'dflt' > ) ]
Lookup: 6 0 0 "'liga' Standard Ligatures in Latin lookup 3"  {"'liga' Standard Ligatures in Latin lookup 3 subtable"  } ['liga' ('latn' <'dflt' > ) ]
Lookup: 6 0 0 "'liga' Standard Ligatures in Latin lookup 4"  {"'liga' Standard Ligatures in Latin lookup 4 subtable"  } ['liga' ('latn' <'dflt' > ) ]

StartChar: .notdef
Encoding: 65536 -1 0
Width: 1222
VWidth: 3555
Flags: W
HStem: -359 118<-14 779> 1319 113<292 1085>
Fore
200 1432 m 1,0,-1
 1215 1432 l 1,1,-1
 868 -359 l 1,2,-1
 -149 -359 l 1,3,-1
 200 1432 l 1,0,-1
779 -241 m 1,4,-1
 1085 1319 l 1,5,-1
 292 1319 l 1,6,-1
 -14 -241 l 1,7,-1
 779 -241 l 1,4,-1
EndSplineSet
EndChar
StartChar: exclam
Encoding: 33 33 4
Width: 927
VWidth: 3555
Flags: W
HStem: 0 356<174 465> 1463 20G<390.056 753>
VStem: 106 647<0 1483>
Fore
753 1483 m 1,0,-1
 641 910 l 1,1,-1
 509 502 l 1,2,-1
 255 502 l 1,3,-1
 281 910 l 1,4,-1
 394 1483 l 1,5,-1
 753 1483 l 1,0,-1
533 356 m 1,6,-1
 465 0 l 1,7,-1
 106 0 l 1,8,-1
 174 356 l 1,9,-1
 533 356 l 1,6,-1
EndSplineSet
EndChar
StartChar: quotedbl
Encoding: 34 34 5
Width: 1058
VWidth: 3555
Flags: W
HStem: 1463 20G<298.044 540 735.935 977>
VStem: 193 784<932 1483>
Fore
868 932 m 1,0,-1
 628 932 l 1,1,-1
 740 1483 l 1,2,-1
 977 1483 l 1,3,-1
 868 932 l 1,0,-1
431 932 m 1,4,-1
 193 932 l 1,5,-1
 302 1483 l 1,6,-1
 540 1483 l 1,7,-1
 431 932 l 1,4,-1
EndSplineSet
EndChar
StartChar: numbersign
Encoding: 35 35 6
Width: 1701
VWidth: 3555
Flags: W
HStem: 0 21G<139 367.947 625 853.684> 380 214<75 309 621 790 1106 1347> 868 214<281 519 842 1007 1319 1554>
Fore
842 1082 m 1,0,-1
 1106 1082 l 1,1,-1
 1272 1462 l 1,2,-1
 1489 1462 l 1,3,-1
 1319 1082 l 1,4,-1
 1597 1082 l 1,5,-1
 1554 868 l 1,6,-1
 1227 868 l 1,7,-1
 1106 594 l 1,8,-1
 1391 594 l 1,9,-1
 1347 380 l 1,10,-1
 1010 380 l 1,11,-1
 845 0 l 1,12,-1
 625 0 l 1,13,-1
 790 380 l 1,14,-1
 529 380 l 1,15,-1
 359 0 l 1,16,-1
 139 0 l 1,17,-1
 309 380 l 1,18,-1
 31 380 l 1,19,-1
 75 594 l 1,20,-1
 398 594 l 1,21,-1
 519 868 l 1,22,-1
 238 868 l 1,23,-1
 281 1082 l 1,24,-1
 618 1082 l 1,25,-1
 786 1462 l 1,26,-1
 1007 1462 l 1,27,-1
 842 1082 l 1,0,-1
743 868 m 1,28,-1
 621 594 l 1,29,-1
 882 594 l 1,30,-1
 1007 868 l 1,31,-1
 743 868 l 1,28,-1
EndSplineSet
EndChar
StartChar: dollar
Encoding: 36 36 7
Width: 1414
VWidth: 3555
Flags: W
HStem: 0 231<654 792.045> 1088 228<542.052 661>
Fore
391 -299 m 1,0,-1
 451 0 l 1,1,2
 326 3 326 3 214 28.5 c 128,-1,3
 102 54 102 54 0 92 c 1,4,-1
 50 352 l 1,5,6
 153 292 153 292 265 261.5 c 128,-1,7
 377 231 377 231 495 224 c 1,8,-1
 554 533 l 1,9,-1
 519 536 l 2,10,11
 292 583 292 583 210 670 c 128,-1,12
 128 757 128 757 160 929 c 0,13,14
 196 1109 196 1109 336 1209 c 128,-1,15
 476 1309 476 1309 705 1316 c 1,16,-1
 750 1547 l 1,17,-1
 910 1547 l 1,18,-1
 868 1319 l 1,19,20
 960 1312 960 1312 1060 1294 c 128,-1,21
 1160 1276 1160 1276 1252 1248 c 1,22,-1
 1201 998 l 1,23,24
 1109 1038 1109 1038 1014.5 1063 c 128,-1,25
 920 1088 920 1088 821 1092 c 1,26,-1
 767 807 l 1,27,-1
 797 804 l 2,28,29
 1045 760 1045 760 1125 668 c 128,-1,30
 1205 576 1205 576 1170 391 c 0,31,32
 1099 24 1099 24 611 0 c 1,33,-1
 550 -299 l 1,34,-1
 391 -299 l 1,0,-1
661 1088 m 1,35,36
 590 1085 590 1085 540.5 1051 c 128,-1,37
 491 1017 491 1017 479 963 c 0,38,39
 458 845 458 845 611 832 c 1,40,-1
 661 1088 l 1,35,36
654 231 m 1,41,42
 825 231 825 231 849 363 c 0,43,44
 865 431 865 431 832.5 464.5 c 128,-1,45
 800 498 800 498 708 509 c 1,46,-1
 654 231 l 1,41,42
EndSplineSet
EndChar
StartChar: percent
Encoding: 37 37 8
Width: 2036
VWidth: 3555
Flags: W
HStem: -28 170<1332.86 1526.21> 611 168<1403.57 1602.59> 705 166<357.472 555.444> 1340 167<433.719 631.457>
Fore
1514 611 m 0,0,1
 1361 611 1361 611 1319 377 c 256,2,3
 1276 142 1276 142 1422 142 c 0,4,5
 1489 142 1489 142 1541.5 203 c 128,-1,6
 1594 264 1594 264 1614 377 c 0,7,8
 1656 611 1656 611 1514 611 c 0,0,1
1547 779 m 256,9,10
 1731 779 1731 779 1818.5 670.5 c 128,-1,11
 1906 562 1906 562 1866 377 c 0,12,13
 1828 184 1828 184 1701.5 78 c 128,-1,14
 1575 -28 1575 -28 1391 -28 c 256,15,16
 1205 -28 1205 -28 1118 78 c 128,-1,17
 1031 184 1031 184 1069 377 c 0,18,19
 1109 562 1109 562 1235 670.5 c 128,-1,20
 1361 779 1361 779 1547 779 c 256,9,10
264 -28 m 1,21,-1
 1486 1507 l 1,22,-1
 1706 1507 l 1,23,-1
 479 -28 l 1,24,-1
 264 -28 l 1,21,-1
576 1507 m 256,25,26
 760 1507 760 1507 848 1403 c 128,-1,27
 936 1299 936 1299 896 1106 c 256,28,29
 858 913 858 913 731 809 c 128,-1,30
 604 705 604 705 420 705 c 256,31,32
 234 705 234 705 149 809 c 128,-1,33
 64 913 64 913 102 1106 c 256,34,35
 142 1299 142 1299 266.5 1403 c 128,-1,36
 391 1507 391 1507 576 1507 c 256,25,26
543 1340 m 0,37,38
 394 1340 394 1340 345 1106 c 0,39,40
 299 871 299 871 451 871 c 0,41,42
 519 871 519 871 568.5 929.5 c 128,-1,43
 618 988 618 988 644 1106 c 256,44,45
 668 1224 668 1224 639.5 1282 c 128,-1,46
 611 1340 611 1340 543 1340 c 0,37,38
EndSplineSet
EndChar
StartChar: ampersand
Encoding: 38 38 9
Width: 1768
VWidth: 3555
Flags: W
HStem: -28 255<470.743 726.471> 1266 241<791.67 1025.09>
Fore
1123 536 m 1,0,1
 1255 668 1255 668 1305 885 c 1,2,-1
 1611 885 l 1,3,4
 1517 536 1517 536 1279 316 c 1,5,-1
 1510 0 l 1,6,-1
 1088 0 l 1,7,-1
 1010 106 l 1,8,9
 889 40 889 40 770 6 c 128,-1,10
 651 -28 651 -28 523 -28 c 0,11,12
 255 -28 255 -28 124 105 c 128,-1,13
 -7 238 -7 238 35 462 c 0,14,15
 64 611 64 611 154.5 721.5 c 128,-1,16
 245 832 245 832 431 936 c 1,17,18
 366 1042 366 1042 391 1156 c 0,19,20
 420 1316 420 1316 564 1411.5 c 128,-1,21
 708 1507 708 1507 920 1507 c 0,22,23
 1007 1507 1007 1507 1102.5 1493 c 128,-1,24
 1198 1479 1198 1479 1302 1455 c 1,25,-1
 1248 1177 l 1,26,27
 1167 1227 1167 1227 1085 1246.5 c 128,-1,28
 1003 1266 1003 1266 929 1266 c 0,29,30
 849 1266 849 1266 799.5 1237 c 128,-1,31
 750 1208 750 1208 740 1160 c 0,32,33
 733 1123 733 1123 750 1079 c 128,-1,34
 767 1035 767 1035 804 981 c 2,35,-1
 1123 536 l 1,0,1
559 740 m 1,36,37
 413 641 413 641 384 505 c 0,38,39
 363 387 363 387 430.5 307 c 128,-1,40
 498 227 498 227 618 227 c 0,41,42
 686 227 686 227 748.5 249 c 128,-1,43
 811 271 811 271 861 306 c 1,44,-1
 559 740 l 1,36,37
EndSplineSet
EndChar
StartChar: quotesingle
Encoding: 39 39 10
Width: 618
VWidth: 3555
Flags: W
HStem: 1463 20G<298.044 540>
VStem: 193 347<932 1483>
Fore
431 932 m 1,0,-1
 193 932 l 1,1,-1
 302 1483 l 1,2,-1
 540 1483 l 1,3,-1
 431 932 l 1,0,-1
EndSplineSet
EndChar
StartChar: parenleft
Encoding: 40 40 11
Width: 927
VWidth: 3555
Flags: W
VStem: 106.5 782.5<199.5 1543>
Fore
238 -271 m 1,0,1
 135 -21 135 -21 106.5 199.5 c 128,-1,2
 78 420 78 420 118 637 c 0,3,4
 160 861 160 861 275.5 1080 c 128,-1,5
 391 1299 391 1299 590 1543 c 1,6,-1
 889 1543 l 1,7,8
 715 1309 715 1309 610 1087 c 128,-1,9
 505 865 505 865 458 641 c 0,10,11
 373 200 373 200 536 -271 c 1,12,-1
 238 -271 l 1,0,1
EndSplineSet
EndChar
StartChar: parenright
Encoding: 41 41 12
Width: 927
VWidth: 3555
Flags: W
VStem: -68 779<-271 1080>
Fore
-68 -271 m 1,0,1
 278 203 278 203 363 641 c 0,2,3
 410 865 410 865 388 1087 c 128,-1,4
 366 1309 366 1309 285 1543 c 1,5,-1
 580 1543 l 1,6,7
 682 1299 682 1299 711 1080 c 128,-1,8
 740 861 740 861 696 637 c 0,9,10
 658 420 658 420 542.5 199.5 c 128,-1,11
 427 -21 427 -21 227 -271 c 1,12,-1
 -68 -271 l 1,0,1
EndSplineSet
EndChar
StartChar: asterisk
Encoding: 42 42 13
Width: 1062
VWidth: 3555
Flags: W
HStem: 566 941<543 562>
Fore
715 1035 m 1,0,-1
 1014 868 l 1,1,-1
 906 726 l 1,2,-1
 611 903 l 1,3,-1
 543 566 l 1,4,-1
 377 566 l 1,5,-1
 444 903 l 1,6,-1
 78 726 l 1,7,-1
 31 868 l 1,8,-1
 394 1035 l 1,9,-1
 99 1208 l 1,10,-1
 200 1347 l 1,11,-1
 495 1170 l 1,12,-1
 562 1507 l 1,13,-1
 729 1507 l 1,14,-1
 661 1170 l 1,15,-1
 1028 1347 l 1,16,-1
 1082 1208 l 1,17,-1
 715 1035 l 1,0,-1
EndSplineSet
EndChar
StartChar: plus
Encoding: 43 43 14
Width: 1701
VWidth: 3555
Flags: W
HStem: 0 21G<554 793.786> 523 230<181 654 936 1408>
Fore
936 753 m 1,0,-1
 1455 753 l 1,1,-1
 1408 523 l 1,2,-1
 889 523 l 1,3,-1
 790 0 l 1,4,-1
 554 0 l 1,5,-1
 654 523 l 1,6,-1
 135 523 l 1,7,-1
 181 753 l 1,8,-1
 700 753 l 1,9,-1
 800 1272 l 1,10,-1
 1035 1272 l 1,11,-1
 936 753 l 1,0,-1
EndSplineSet
EndChar
StartChar: comma
Encoding: 44 44 15
Width: 770
VWidth: 3555
Flags: W
HStem: -288 672<82 458>
VStem: -128 586<-288 384>
Fore
458 384 m 1,0,-1
 401 82 l 1,1,-1
 82 -288 l 1,2,-1
 -128 -288 l 1,3,-1
 43 82 l 1,4,-1
 99 384 l 1,5,-1
 458 384 l 1,0,-1
EndSplineSet
EndChar
StartChar: hyphen
Encoding: 45 45 16
Width: 845
VWidth: 3555
Flags: W
HStem: 441 288<75 641>
VStem: 21 672<441 729>
Fore
693 729 m 1,0,-1
 641 441 l 1,1,-1
 21 441 l 1,2,-1
 75 729 l 1,3,-1
 693 729 l 1,0,-1
EndSplineSet
EndChar
StartChar: period
Encoding: 46 46 17
Width: 770
VWidth: 3555
Flags: W
HStem: 0 384<99 387>
VStem: 28 430<0 384>
Fore
458 384 m 1,0,-1
 387 0 l 1,1,-1
 28 0 l 1,2,-1
 99 384 l 1,3,-1
 458 384 l 1,0,-1
EndSplineSet
EndChar
StartChar: slash
Encoding: 47 47 18
Width: 743
VWidth: 3555
Flags: W
HStem: 1463 20G<623.856 854>
Fore
854 1483 m 1,0,-1
 3 -189 l 1,1,-1
 -214 -189 l 1,2,-1
 634 1483 l 1,3,-1
 854 1483 l 1,0,-1
EndSplineSet
EndChar
StartChar: zero
Encoding: 48 48 19
Width: 1414
VWidth: 3555
Flags: W
HStem: -28 259<459.112 706.104> 1245 262<638.112 886.883>
Fore
899 743 m 0,0,1
 953 1021 953 1021 924.5 1133 c 128,-1,2
 896 1245 896 1245 771 1245 c 256,3,4
 648 1245 648 1245 575 1133 c 128,-1,5
 502 1021 502 1021 448 743 c 0,6,7
 394 462 394 462 421 346.5 c 128,-1,8
 448 231 448 231 573 231 c 256,9,10
 696 231 696 231 770.5 346.5 c 128,-1,11
 845 462 845 462 899 743 c 0,0,1
1279 740 m 0,12,13
 1208 373 1208 373 1014.5 172.5 c 128,-1,14
 821 -28 821 -28 523 -28 c 0,15,16
 231 -28 231 -28 110.5 172.5 c 128,-1,17
 -10 373 -10 373 61 740 c 0,18,19
 132 1113 132 1113 330.5 1310 c 128,-1,20
 529 1507 529 1507 821 1507 c 0,21,22
 1120 1507 1120 1507 1235.5 1310 c 128,-1,23
 1351 1113 1351 1113 1279 740 c 0,12,13
EndSplineSet
EndChar
StartChar: one
Encoding: 49 49 20
Width: 1414
VWidth: 3555
Flags: W
HStem: 0 264<106 448 807 1095> 1463 20G<582.278 1045>
Fore
448 264 m 1,0,-1
 637 1227 l 1,1,-1
 271 1153 l 1,2,-1
 323 1411 l 1,3,-1
 682 1483 l 1,4,-1
 1045 1483 l 1,5,-1
 807 264 l 1,6,-1
 1144 264 l 1,7,-1
 1095 0 l 1,8,-1
 57 0 l 1,9,-1
 106 264 l 1,10,-1
 448 264 l 1,0,-1
EndSplineSet
EndChar
StartChar: two
Encoding: 50 50 21
Width: 1414
VWidth: 3555
Flags: W
HStem: 0 281<462 1059> 1245 262<436.499 802.829>
Fore
1113 281 m 1,0,-1
 1059 0 l 1,1,-1
 -17 0 l 1,2,-1
 35 281 l 1,3,-1
 672 757 l 2,4,5
 753 825 753 825 801 887.5 c 128,-1,6
 849 950 849 950 865 1017 c 0,7,8
 885 1120 885 1120 826 1182.5 c 128,-1,9
 767 1245 767 1245 651 1245 c 0,10,11
 566 1245 566 1245 448 1209.5 c 128,-1,12
 330 1174 330 1174 196 1095 c 1,13,-1
 260 1422 l 1,14,15
 536 1507 536 1507 783 1507 c 0,16,17
 1049 1507 1049 1507 1174 1391.5 c 128,-1,18
 1299 1276 1299 1276 1259 1062 c 0,19,20
 1231 939 1231 939 1149 838 c 0,21,22
 1069 740 1069 740 828 559 c 2,23,-1
 462 281 l 1,24,-1
 1113 281 l 1,0,-1
EndSplineSet
EndChar
StartChar: three
Encoding: 51 51 22
Width: 1414
VWidth: 3555
Flags: W
HStem: -28 259<220.969 652.342> 641 244<380 708.341> 1245 262<451.713 814.507>
Fore
920 800 m 1,0,1
 1208 719 1208 719 1156 424 c 0,2,3
 1109 200 1109 200 919 86 c 128,-1,4
 729 -28 729 -28 404 -28 c 0,5,6
 292 -28 292 -28 180 -10.5 c 128,-1,7
 68 7 68 7 -31 47 c 1,8,-1
 24 342 l 1,9,10
 210 231 210 231 424 231 c 0,11,12
 736 231 736 231 774 437 c 0,13,14
 793 533 793 533 723.5 587 c 128,-1,15
 654 641 654 641 484 641 c 2,16,-1
 330 641 l 1,17,-1
 380 885 l 1,18,-1
 540 885 l 2,19,20
 828 885 828 885 865 1066 c 0,21,22
 882 1160 882 1160 821 1202.5 c 128,-1,23
 760 1245 760 1245 637 1245 c 0,24,25
 547 1245 547 1245 448 1225 c 128,-1,26
 349 1205 349 1205 245 1167 c 1,27,-1
 302 1448 l 1,28,29
 536 1507 536 1507 757 1507 c 0,30,31
 1337 1507 1337 1507 1262 1127 c 0,32,33
 1212 865 1212 865 920 800 c 1,0,1
EndSplineSet
EndChar
StartChar: four
Encoding: 52 52 23
Width: 1414
VWidth: 3555
Flags: W
HStem: 0 21G<573 935.616> 271 272<252 621 1035 1191> 1463 20G<779.641 1219>
Fore
252 543 m 1,0,-1
 675 543 l 1,1,-1
 797 1170 l 1,2,-1
 252 543 l 1,0,-1
1219 1483 m 1,3,-1
 1035 543 l 1,4,-1
 1245 543 l 1,5,-1
 1191 271 l 1,6,-1
 981 271 l 1,7,-1
 932 0 l 1,8,-1
 573 0 l 1,9,-1
 621 271 l 1,10,-1
 -35 271 l 1,11,-1
 28 597 l 1,12,-1
 797 1483 l 1,13,-1
 1219 1483 l 1,3,-1
EndSplineSet
EndChar
StartChar: five
Encoding: 53 53 24
Width: 1414
VWidth: 3555
Flags: W
HStem: -28 259<288.838 647.839> 736 262<544.07 731.344> 1201 282<576 1219>
Fore
1276 1483 m 1,0,-1
 1219 1201 l 1,1,-1
 576 1201 l 1,2,-1
 533 970 l 1,3,4
 573 981 573 981 619 989.5 c 128,-1,5
 665 998 665 998 712 998 c 0,6,7
 988 998 988 998 1109.5 862 c 128,-1,8
 1231 726 1231 726 1184 488 c 0,9,10
 1134 241 1134 241 945.5 106.5 c 128,-1,11
 757 -28 757 -28 465 -28 c 0,12,13
 345 -28 345 -28 225.5 -5.5 c 128,-1,14
 106 17 106 17 -10 71 c 1,15,-1
 50 370 l 1,16,17
 271 231 271 231 455 231 c 0,18,19
 597 231 597 231 690 300.5 c 128,-1,20
 783 370 783 370 804 488 c 0,21,22
 825 601 825 601 760.5 668.5 c 128,-1,23
 696 736 696 736 554 736 c 0,24,25
 476 736 476 736 375 714.5 c 128,-1,26
 274 693 274 693 160 648 c 1,27,-1
 323 1483 l 1,28,-1
 1276 1483 l 1,0,-1
EndSplineSet
EndChar
StartChar: six
Encoding: 54 54 25
Width: 1414
VWidth: 3555
Flags: W
HStem: -28 238<475.827 734.604> 733 244<582.825 818.999> 1255 252<724.196 1091.69>
Fore
700 733 m 0,0,1
 498 733 498 733 444 469 c 0,2,3
 394 210 394 210 597 210 c 0,4,5
 797 210 797 210 845 469 c 0,6,7
 899 733 899 733 700 733 c 0,0,1
1255 1170 m 1,8,9
 1170 1215 1170 1215 1090 1235 c 128,-1,10
 1010 1255 1010 1255 936 1255 c 0,11,12
 583 1255 583 1255 488 882 c 1,13,14
 634 977 634 977 811 977 c 0,15,16
 1038 977 1038 977 1150 844.5 c 128,-1,17
 1262 712 1262 712 1224 498 c 0,18,19
 1198 380 1198 380 1138 282 c 128,-1,20
 1078 184 1078 184 990.5 115.5 c 128,-1,21
 903 47 903 47 789 9.5 c 128,-1,22
 675 -28 675 -28 547 -28 c 0,23,24
 260 -28 260 -28 138.5 165.5 c 128,-1,25
 17 359 17 359 89 722 c 0,26,27
 125 903 125 903 201.5 1048.5 c 128,-1,28
 278 1194 278 1194 388 1295.5 c 128,-1,29
 498 1397 498 1397 636 1452 c 128,-1,30
 774 1507 774 1507 936 1507 c 0,31,32
 1123 1507 1123 1507 1312 1448 c 1,33,-1
 1255 1170 l 1,8,9
EndSplineSet
EndChar
StartChar: seven
Encoding: 55 55 26
Width: 1414
VWidth: 3555
Flags: W
HStem: 0 21G<125 510.97> 1201 282<248 906>
Fore
1361 1483 m 1,0,-1
 1319 1266 l 1,1,-1
 498 0 l 1,2,-1
 125 0 l 1,3,-1
 906 1201 l 1,4,-1
 193 1201 l 1,5,-1
 248 1483 l 1,6,-1
 1361 1483 l 1,0,-1
EndSplineSet
EndChar
StartChar: eight
Encoding: 56 56 27
Width: 1414
VWidth: 3555
Flags: W
HStem: -28 238<431.541 725.436> 661 238<576.769 795.137> 1266 241<624.512 901.955>
Fore
658 661 m 256,0,1
 550 661 550 661 481.5 602 c 128,-1,2
 413 543 413 543 391 437 c 0,3,4
 349 210 349 210 569 210 c 256,5,6
 790 210 790 210 832 437 c 0,7,8
 854 543 854 543 809 602 c 128,-1,9
 764 661 764 661 658 661 c 256,0,1
404 790 m 1,10,11
 149 875 149 875 196 1123 c 0,12,13
 234 1316 234 1316 392 1411.5 c 128,-1,14
 550 1507 550 1507 821 1507 c 0,15,16
 1088 1507 1088 1507 1210.5 1411.5 c 128,-1,17
 1333 1316 1333 1316 1293 1123 c 0,18,19
 1248 875 1248 875 957 790 c 1,20,21
 1248 705 1248 705 1187 420 c 0,22,23
 1102 -28 1102 -28 523 -28 c 256,24,25
 -57 -28 -57 -28 28 420 c 0,26,27
 89 705 89 705 404 790 c 1,10,11
550 1088 m 0,28,29
 533 998 533 998 572 948.5 c 128,-1,30
 611 899 611 899 705 899 c 256,31,32
 797 899 797 899 851.5 948.5 c 128,-1,33
 906 998 906 998 924 1088 c 0,34,35
 957 1266 957 1266 774 1266 c 0,36,37
 583 1266 583 1266 550 1088 c 0,28,29
EndSplineSet
EndChar
StartChar: nine
Encoding: 57 57 28
Width: 1414
VWidth: 3555
Flags: W
HStem: -28 248<176.535 615.02> 502 244<519.882 703.742> 1266 241<604.349 863.251>
Fore
82 306 m 1,0,1
 252 220 252 220 404 220 c 0,2,3
 753 220 753 220 854 597 c 1,4,5
 783 543 783 543 699 522.5 c 128,-1,6
 615 502 615 502 529 502 c 0,7,8
 302 502 302 502 186.5 633 c 128,-1,9
 71 764 71 764 115 977 c 0,10,11
 163 1224 163 1224 346 1365.5 c 128,-1,12
 529 1507 529 1507 790 1507 c 0,13,14
 1082 1507 1082 1507 1202.5 1313.5 c 128,-1,15
 1323 1120 1323 1120 1252 757 c 0,16,17
 1215 576 1215 576 1138.5 430.5 c 128,-1,18
 1062 285 1062 285 952 183.5 c 128,-1,19
 842 82 842 82 704 27 c 128,-1,20
 566 -28 566 -28 404 -28 c 0,21,22
 196 -28 196 -28 28 31 c 1,23,-1
 82 306 l 1,0,1
641 746 m 256,24,25
 842 746 842 746 896 1007 c 0,26,27
 946 1266 946 1266 743 1266 c 256,28,29
 540 1266 540 1266 491 1007 c 0,30,31
 437 746 437 746 641 746 c 256,24,25
EndSplineSet
EndChar
StartChar: colon
Encoding: 58 58 29
Width: 812
VWidth: 3555
Flags: W
HStem: 0 384<122 410> 729 384<264 547>
VStem: 50 571<0 1113>
Fore
621 1113 m 1,0,-1
 547 729 l 1,1,-1
 189 729 l 1,2,-1
 264 1113 l 1,3,-1
 621 1113 l 1,0,-1
479 384 m 1,4,-1
 410 0 l 1,5,-1
 50 0 l 1,6,-1
 122 384 l 1,7,-1
 479 384 l 1,4,-1
EndSplineSet
EndChar
StartChar: semicolon
Encoding: 59 59 30
Width: 812
VWidth: 3555
Flags: W
HStem: 729 384<264 547>
VStem: -102 723<-288 1113>
Fore
479 384 m 1,0,-1
 424 82 l 1,1,-1
 106 -288 l 1,2,-1
 -102 -288 l 1,3,-1
 64 82 l 1,4,-1
 122 384 l 1,5,-1
 479 384 l 1,0,-1
621 1113 m 1,6,-1
 547 729 l 1,7,-1
 189 729 l 1,8,-1
 264 1113 l 1,9,-1
 621 1113 l 1,6,-1
EndSplineSet
EndChar
StartChar: less
Encoding: 60 60 31
Width: 1701
VWidth: 3555
Flags: W
Fore
472 637 m 1,0,-1
 1364 306 l 1,1,-1
 1319 64 l 1,2,-1
 135 523 l 1,3,-1
 181 753 l 1,4,-1
 1543 1215 l 1,5,-1
 1493 963 l 1,6,-1
 472 637 l 1,0,-1
EndSplineSet
EndChar
StartChar: equal
Encoding: 61 61 32
Width: 1701
VWidth: 3555
Flags: W
HStem: 292 237<135 1361> 746 231<224 1451>
Fore
1496 977 m 1,0,-1
 1451 746 l 1,1,-1
 177 746 l 1,2,-1
 224 977 l 1,3,-1
 1496 977 l 1,0,-1
1408 529 m 1,4,-1
 1361 292 l 1,5,-1
 89 292 l 1,6,-1
 135 529 l 1,7,-1
 1408 529 l 1,4,-1
EndSplineSet
EndChar
StartChar: greater
Encoding: 62 62 33
Width: 1701
VWidth: 3555
Flags: W
Fore
271 1215 m 1,0,-1
 1455 753 l 1,1,-1
 1408 523 l 1,2,-1
 47 64 l 1,3,-1
 92 306 l 1,4,-1
 1116 637 l 1,5,-1
 220 963 l 1,6,-1
 271 1215 l 1,0,-1
EndSplineSet
EndChar
StartChar: question
Encoding: 63 63 34
Width: 1178
VWidth: 3555
Flags: W
HStem: 0 356<234 526> 1116 21G<184.689 234.5> 1245 262<475.912 694.668>
VStem: 167 918<0 1123>
Fore
264 502 m 1,0,-1
 271 543 l 2,1,2
 278 587 278 587 292 622.5 c 128,-1,3
 306 658 306 658 332.5 693.5 c 128,-1,4
 359 729 359 729 400 768 c 128,-1,5
 441 807 441 807 505 858 c 2,6,-1
 576 910 l 2,7,8
 705 1014 705 1014 726 1099 c 0,9,10
 740 1170 740 1170 699 1207.5 c 128,-1,11
 658 1245 658 1245 576 1245 c 256,12,13
 495 1245 495 1245 391.5 1214.5 c 128,-1,14
 288 1184 288 1184 181 1116 c 1,15,-1
 238 1425 l 1,16,17
 366 1469 366 1469 469.5 1488 c 128,-1,18
 573 1507 573 1507 661 1507 c 0,19,20
 1160 1507 1160 1507 1085 1123 c 0,21,22
 1066 1024 1066 1024 1011.5 947.5 c 128,-1,23
 957 871 957 871 849 783 c 2,24,-1
 774 726 l 2,25,26
 696 665 696 665 668.5 627.5 c 128,-1,27
 641 590 641 590 628 540 c 2,28,-1
 621 502 l 1,29,-1
 264 502 l 1,0,-1
594 356 m 1,30,-1
 526 0 l 1,31,-1
 167 0 l 1,32,-1
 234 356 l 1,33,-1
 594 356 l 1,30,-1
EndSplineSet
EndChar
StartChar: at
Encoding: 64 64 35
Width: 2032
VWidth: 3555
Flags: W
HStem: -356 189<562.074 1061.13> 85 189<781.756 982.613> 797 180<866.928 1101.45> 1241 188<860.857 1351.99>
Fore
750 533 m 0,0,1
 726 417 726 417 763 345.5 c 128,-1,2
 800 274 800 274 889 274 c 256,3,4
 977 274 977 274 1045 345.5 c 128,-1,5
 1113 417 1113 417 1137 533 c 0,6,7
 1160 654 1160 654 1121 725.5 c 128,-1,8
 1082 797 1082 797 991 797 c 256,9,10
 903 797 903 797 837 725.5 c 128,-1,11
 771 654 771 654 750 533 c 0,0,1
1099 234 m 1,12,13
 1052 167 1052 167 981 126 c 128,-1,14
 910 85 910 85 818 85 c 0,15,16
 648 85 648 85 563.5 210 c 128,-1,17
 479 335 479 335 519 529 c 0,18,19
 559 733 559 733 692 855 c 128,-1,20
 825 977 825 977 991 977 c 0,21,22
 1085 977 1085 977 1141.5 938 c 128,-1,23
 1198 899 1198 899 1215 832 c 1,24,-1
 1241 960 l 1,25,-1
 1451 960 l 1,26,-1
 1316 274 l 1,27,28
 1439 292 1439 292 1530 393.5 c 128,-1,29
 1621 495 1621 495 1649 648 c 0,30,31
 1668 746 1668 746 1653.5 831.5 c 128,-1,32
 1639 917 1639 917 1601 988 c 0,33,34
 1529 1113 1529 1113 1399 1177 c 128,-1,35
 1269 1241 1269 1241 1106 1241 c 0,36,37
 988 1241 988 1241 879.5 1212.5 c 128,-1,38
 771 1184 771 1184 668 1123 c 0,39,40
 509 1028 509 1028 393.5 873.5 c 128,-1,41
 278 719 278 719 241 536 c 0,42,43
 214 387 214 387 244 261 c 128,-1,44
 274 135 274 135 356 31 c 0,45,46
 431 -68 431 -68 548 -117.5 c 128,-1,47
 665 -167 665 -167 814 -167 c 0,48,49
 943 -167 943 -167 1077.5 -121 c 128,-1,50
 1212 -75 1212 -75 1316 3 c 1,51,-1
 1391 -156 l 1,52,53
 1245 -248 1245 -248 1090.5 -302 c 128,-1,54
 936 -356 936 -356 783 -356 c 0,55,56
 410 -356 410 -356 193 -99 c 0,57,58
 89 24 89 24 55 188 c 128,-1,59
 21 352 21 352 61 536 c 0,60,61
 95 722 95 722 193.5 883.5 c 128,-1,62
 292 1045 292 1045 441 1174 c 0,63,64
 594 1293 594 1293 772 1361 c 128,-1,65
 950 1429 950 1429 1130 1429 c 0,66,67
 1354 1429 1354 1429 1516.5 1344 c 128,-1,68
 1679 1259 1679 1259 1774 1099 c 0,69,70
 1887 906 1887 906 1838 651 c 0,71,72
 1785 380 1785 380 1594.5 231 c 128,-1,73
 1404 82 1404 82 1106 82 c 2,74,-1
 1069 82 l 1,75,-1
 1099 234 l 1,12,13
EndSplineSet
EndChar
StartChar: A
Encoding: 65 65 36
Width: 1574
VWidth: 3555
Flags: W
HStem: 0 21G<-167 224.996 999.827 1387> 271 269<509 913> 1463 20G<656.739 1126.56>
Fore
363 271 m 1,0,-1
 214 0 l 1,1,-1
 -167 0 l 1,2,-1
 668 1483 l 1,3,-1
 1123 1483 l 1,4,-1
 1387 0 l 1,5,-1
 1003 0 l 1,6,-1
 960 271 l 1,7,-1
 363 271 l 1,0,-1
913 540 m 1,8,-1
 832 1134 l 1,9,-1
 509 540 l 1,10,-1
 913 540 l 1,8,-1
EndSplineSet
EndChar
StartChar: B
Encoding: 66 66 37
Width: 1548
VWidth: 3555
Flags: W
HStem: 0 260<441 833.315> 648 258<566 896.738> 1227 256<628 971.027>
Fore
779 906 m 1,0,1
 960 906 960 906 991 1062 c 0,2,3
 1021 1227 1021 1227 842 1227 c 2,4,-1
 628 1227 l 1,5,-1
 566 906 l 1,6,-1
 779 906 l 1,0,1
665 260 m 1,7,8
 892 260 892 260 932 455 c 0,9,10
 970 648 970 648 740 648 c 2,11,-1
 516 648 l 1,12,-1
 441 260 l 1,13,-1
 665 260 l 1,7,8
1127 793 m 1,14,15
 1238 757 1238 757 1287.5 661.5 c 128,-1,16
 1337 566 1337 566 1309 427 c 0,17,18
 1266 210 1266 210 1104.5 105 c 128,-1,19
 943 0 943 0 644 0 c 2,20,-1
 7 0 l 1,21,-1
 295 1483 l 1,22,-1
 871 1483 l 2,23,24
 1180 1483 1180 1483 1297.5 1391 c 128,-1,25
 1415 1299 1415 1299 1377 1092 c 0,26,27
 1333 875 1333 875 1127 793 c 1,14,15
EndSplineSet
EndChar
StartChar: C
Encoding: 67 67 38
Width: 1492
VWidth: 3555
Flags: W
HStem: -28 273<606.86 1022.23> 1234 273<782.9 1216.41>
Fore
1198 82 m 1,0,1
 967 -28 967 -28 719 -28 c 0,2,3
 533 -28 533 -28 394 25 c 128,-1,4
 255 78 255 78 170 178 c 128,-1,5
 85 278 85 278 56.5 420 c 128,-1,6
 28 562 28 562 64 740 c 0,7,8
 135 1095 135 1095 389.5 1301 c 128,-1,9
 644 1507 644 1507 1017 1507 c 0,10,11
 1266 1507 1266 1507 1455 1397 c 1,12,-1
 1394 1092 l 1,13,14
 1302 1167 1302 1167 1205.5 1200.5 c 128,-1,15
 1109 1234 1109 1234 995 1234 c 0,16,17
 793 1234 793 1234 649 1100.5 c 128,-1,18
 505 967 505 967 462 740 c 0,19,20
 417 512 417 512 509 378.5 c 128,-1,21
 601 245 601 245 804 245 c 0,22,23
 917 245 917 245 1025.5 278.5 c 128,-1,24
 1134 312 1134 312 1259 387 c 1,25,-1
 1198 82 l 1,0,1
EndSplineSet
EndChar
StartChar: D
Encoding: 68 68 39
Width: 1687
VWidth: 3555
Flags: W
HStem: 0 288<444 836.172> 1194 289<621 995.88>
Fore
444 288 m 1,0,-1
 583 288 l 2,1,2
 818 288 818 288 963.5 403.5 c 128,-1,3
 1109 519 1109 519 1153 743 c 256,4,5
 1194 967 1194 967 1094.5 1080.5 c 128,-1,6
 995 1194 995 1194 760 1194 c 2,7,-1
 621 1194 l 1,8,-1
 444 288 l 1,0,-1
700 1483 m 2,9,10
 1031 1483 1031 1483 1191 1432 c 0,11,12
 1344 1387 1344 1387 1443 1269 c 0,13,14
 1611 1073 1611 1073 1547 743 c 0,15,16
 1483 410 1483 410 1238 210 c 0,17,18
 1088 92 1088 92 917 47 c 256,19,20
 746 0 746 0 413 0 c 2,21,-1
 7 0 l 1,22,-1
 295 1483 l 1,23,-1
 700 1483 l 2,9,10
EndSplineSet
EndChar
StartChar: E
Encoding: 69 69 40
Width: 1385
VWidth: 3555
Flags: W
HStem: 0 288<444 1059> 628 285<566 1123> 1194 289<621 1276>
Fore
1333 1483 m 1,0,-1
 1276 1194 l 1,1,-1
 621 1194 l 1,2,-1
 566 913 l 1,3,-1
 1177 913 l 1,4,-1
 1123 628 l 1,5,-1
 512 628 l 1,6,-1
 444 288 l 1,7,-1
 1113 288 l 1,8,-1
 1059 0 l 1,9,-1
 7 0 l 1,10,-1
 295 1483 l 1,11,-1
 1333 1483 l 1,0,-1
EndSplineSet
EndChar
StartChar: F
Encoding: 70 70 41
Width: 1385
VWidth: 3555
Flags: W
HStem: 0 21G<7 394.854> 628 285<566 1123> 1194 289<621 1276>
Fore
1333 1483 m 1,0,-1
 1276 1194 l 1,1,-1
 621 1194 l 1,2,-1
 566 913 l 1,3,-1
 1177 913 l 1,4,-1
 1123 628 l 1,5,-1
 512 628 l 1,6,-1
 391 0 l 1,7,-1
 7 0 l 1,8,-1
 295 1483 l 1,9,-1
 1333 1483 l 1,0,-1
EndSplineSet
EndChar
StartChar: G
Encoding: 71 71 42
Width: 1670
VWidth: 3555
Flags: W
HStem: -28 273<612.038 1032.64> 566 259<906 1088> 1234 273<796.511 1296.47>
Fore
1364 115 m 1,0,1
 1045 -28 1045 -28 719 -28 c 0,2,3
 533 -28 533 -28 394 25 c 128,-1,4
 255 78 255 78 170 178 c 128,-1,5
 85 278 85 278 56.5 420 c 128,-1,6
 28 562 28 562 64 740 c 0,7,8
 135 1099 135 1099 393 1303 c 128,-1,9
 651 1507 651 1507 1038 1507 c 0,10,11
 1340 1507 1340 1507 1557 1397 c 1,12,-1
 1496 1092 l 1,13,14
 1276 1234 1276 1234 1031 1234 c 0,15,16
 804 1234 804 1234 656.5 1104 c 128,-1,17
 509 974 509 974 462 740 c 256,18,19
 417 505 417 505 510.5 375 c 128,-1,20
 604 245 604 245 821 245 c 0,21,22
 943 245 943 245 1035 281 c 1,23,-1
 1088 566 l 1,24,-1
 854 566 l 1,25,-1
 906 825 l 1,26,-1
 1503 825 l 1,27,-1
 1364 115 l 1,0,1
EndSplineSet
EndChar
StartChar: H
Encoding: 72 72 43
Width: 1697
VWidth: 3555
Flags: W
HStem: 0 21G<7 394.854 957 1343.88> 628 285<566 1078> 1463 20G<291.116 679 1240.96 1628>
Fore
679 1483 m 1,0,-1
 566 913 l 1,1,-1
 1130 913 l 1,2,-1
 1245 1483 l 1,3,-1
 1628 1483 l 1,4,-1
 1340 0 l 1,5,-1
 957 0 l 1,6,-1
 1078 628 l 1,7,-1
 512 628 l 1,8,-1
 391 0 l 1,9,-1
 7 0 l 1,10,-1
 295 1483 l 1,11,-1
 679 1483 l 1,0,-1
EndSplineSet
EndChar
StartChar: I
Encoding: 73 73 44
Width: 756
VWidth: 3555
Flags: W
HStem: 0 21G<7 394.884> 1463 20G<291.116 679>
VStem: 7 672<0 1483>
Fore
679 1483 m 1,0,-1
 391 0 l 1,1,-1
 7 0 l 1,2,-1
 295 1483 l 1,3,-1
 679 1483 l 1,0,-1
EndSplineSet
EndChar
StartChar: J
Encoding: 74 74 45
Width: 756
VWidth: 3555
Flags: W
HStem: -410 288<-316 -102.027> 1463 20G<291.051 679>
Fore
679 1483 m 1,0,-1
 417 146 l 2,1,2
 309 -410 309 -410 -295 -410 c 2,3,-1
 -373 -410 l 1,4,-1
 -316 -122 l 1,5,-1
 -255 -122 l 2,6,7
 -17 -122 -17 -122 31 146 c 2,8,-1
 295 1483 l 1,9,-1
 679 1483 l 1,0,-1
EndSplineSet
EndChar
StartChar: K
Encoding: 75 75 46
Width: 1574
VWidth: 3555
Flags: W
HStem: 0 21G<7 394.808 964.568 1458> 1463 20G<291.116 679 1206.81 1675>
Fore
679 1483 m 1,0,-1
 573 939 l 1,1,-1
 1231 1483 l 1,2,-1
 1675 1483 l 1,3,-1
 825 783 l 1,4,-1
 1458 0 l 1,5,-1
 981 0 l 1,6,-1
 502 583 l 1,7,-1
 391 0 l 1,8,-1
 7 0 l 1,9,-1
 295 1483 l 1,10,-1
 679 1483 l 1,0,-1
EndSplineSet
EndChar
StartChar: L
Encoding: 76 76 47
Width: 1296
VWidth: 3555
Flags: W
HStem: 0 288<444 1059> 1463 20G<291.116 679>
Fore
679 1483 m 1,0,-1
 444 288 l 1,1,-1
 1113 288 l 1,2,-1
 1059 0 l 1,3,-1
 7 0 l 1,4,-1
 295 1483 l 1,5,-1
 679 1483 l 1,0,-1
EndSplineSet
EndChar
StartChar: M
Encoding: 77 77 48
Width: 2018
VWidth: 3555
Flags: W
HStem: 0 21G<7 369.871 1299 1663.88> 1463 20G<291.116 787.534 1445.53 1948>
Fore
783 1483 m 1,0,-1
 963 689 l 1,1,-1
 1458 1483 l 1,2,-1
 1948 1483 l 1,3,-1
 1660 0 l 1,4,-1
 1299 0 l 1,5,-1
 1507 1085 l 1,6,-1
 1010 285 l 1,7,-1
 764 285 l 1,8,-1
 576 1085 l 1,9,-1
 366 0 l 1,10,-1
 7 0 l 1,11,-1
 295 1483 l 1,12,-1
 783 1483 l 1,0,-1
EndSplineSet
EndChar
StartChar: N
Encoding: 78 78 49
Width: 1697
VWidth: 3555
Flags: W
HStem: 0 21G<7 369.854 903.156 1343.88> 1463 20G<291.116 728.758 1262.07 1628>
Fore
722 1483 m 1,0,-1
 1066 465 l 1,1,-1
 1266 1483 l 1,2,-1
 1628 1483 l 1,3,-1
 1340 0 l 1,4,-1
 910 0 l 1,5,-1
 562 1017 l 1,6,-1
 366 0 l 1,7,-1
 7 0 l 1,8,-1
 295 1483 l 1,9,-1
 722 1483 l 1,0,-1
EndSplineSet
EndChar
StartChar: O
Encoding: 79 79 50
Width: 1727
VWidth: 3555
Flags: W
HStem: -28 273<563.312 916.788> 1234 273<742.379 1091.29>
Fore
929 1234 m 0,0,1
 746 1234 746 1234 627.5 1104 c 128,-1,2
 509 974 509 974 462 740 c 256,3,4
 417 505 417 505 485.5 375 c 128,-1,5
 554 245 554 245 736 245 c 0,6,7
 906 245 906 245 1029.5 375 c 128,-1,8
 1153 505 1153 505 1198 740 c 256,9,10
 1245 974 1245 974 1172 1104 c 128,-1,11
 1099 1234 1099 1234 929 1234 c 0,0,1
981 1507 m 256,12,13
 1344 1507 1344 1507 1502 1304.5 c 128,-1,14
 1660 1102 1660 1102 1588 740 c 256,15,16
 1517 377 1517 377 1281 174.5 c 128,-1,17
 1045 -28 1045 -28 682 -28 c 256,18,19
 319 -28 319 -28 156 174.5 c 128,-1,20
 -7 377 -7 377 64 740 c 256,21,22
 135 1102 135 1102 376.5 1304.5 c 128,-1,23
 618 1507 618 1507 981 1507 c 256,12,13
EndSplineSet
EndChar
StartChar: P
Encoding: 80 80 51
Width: 1489
VWidth: 3555
Flags: W
HStem: 0 21G<7 394.876> 516 277<543 925.955> 1205 278<621 984.371>
Fore
932 1483 m 2,0,1
 1219 1483 1219 1483 1342 1358.5 c 128,-1,2
 1465 1234 1465 1234 1418 998 c 256,3,4
 1373 764 1373 764 1202 640 c 128,-1,5
 1031 516 1031 516 743 516 c 2,6,-1
 491 516 l 1,7,-1
 391 0 l 1,8,-1
 7 0 l 1,9,-1
 295 1483 l 1,10,-1
 932 1483 l 2,0,1
543 793 m 1,11,-1
 757 793 l 2,12,13
 865 793 865 793 937.5 844.5 c 128,-1,14
 1010 896 1010 896 1028 998 c 0,15,16
 1045 1099 1045 1099 994 1152 c 128,-1,17
 943 1205 943 1205 835 1205 c 2,18,-1
 621 1205 l 1,19,-1
 543 793 l 1,11,-1
EndSplineSet
EndChar
StartChar: Q
Encoding: 81 81 52
Width: 1727
VWidth: 3555
Flags: W
HStem: 1234 273<742.379 1091.29>
Fore
693 -24 m 2,0,1
 326 -24 326 -24 159.5 176.5 c 128,-1,2
 -7 377 -7 377 64 740 c 256,3,4
 135 1102 135 1102 376.5 1304.5 c 128,-1,5
 618 1507 618 1507 981 1507 c 256,6,7
 1344 1507 1344 1507 1502 1306.5 c 128,-1,8
 1660 1106 1660 1106 1588 740 c 0,9,10
 1540 491 1540 491 1399.5 311.5 c 128,-1,11
 1259 132 1259 132 1042 40 c 1,12,-1
 1272 -295 l 1,13,-1
 910 -295 l 1,14,-1
 719 -24 l 1,15,-1
 693 -24 l 2,0,1
929 1234 m 0,16,17
 746 1234 746 1234 627.5 1104 c 128,-1,18
 509 974 509 974 462 740 c 256,19,20
 417 505 417 505 485.5 375 c 128,-1,21
 554 245 554 245 736 245 c 0,22,23
 906 245 906 245 1029.5 375 c 128,-1,24
 1153 505 1153 505 1198 740 c 256,25,26
 1245 974 1245 974 1172 1104 c 128,-1,27
 1099 1234 1099 1234 929 1234 c 0,16,17
EndSplineSet
EndChar
StartChar: R
Encoding: 82 82 53
Width: 1564
VWidth: 3555
Flags: W
HStem: 0 21G<7 394.808 933 1351> 562 263<550 744.912> 1205 278<621 941.169>
Fore
712 825 m 1,0,1
 835 825 835 825 894 869 c 128,-1,2
 953 913 953 913 970 1017 c 0,3,4
 988 1116 988 1116 947 1160.5 c 128,-1,5
 906 1205 906 1205 783 1205 c 2,6,-1
 621 1205 l 1,7,-1
 550 825 l 1,8,-1
 712 825 l 1,0,1
391 0 m 1,9,-1
 7 0 l 1,10,-1
 295 1483 l 1,11,-1
 878 1483 l 2,12,13
 1177 1483 1177 1483 1289 1383 c 128,-1,14
 1401 1283 1401 1283 1361 1078 c 0,15,16
 1333 924 1333 924 1248 832 c 128,-1,17
 1163 740 1163 740 1003 693 c 1,18,19
 1085 675 1085 675 1131 609 c 128,-1,20
 1177 543 1177 543 1219 424 c 2,21,-1
 1351 0 l 1,22,-1
 939 0 l 1,23,-1
 828 370 l 2,24,25
 797 484 797 484 746.5 523 c 128,-1,26
 696 562 696 562 604 562 c 2,27,-1
 498 562 l 1,28,-1
 391 0 l 1,9,-1
EndSplineSet
EndChar
StartChar: S
Encoding: 83 83 54
Width: 1463
VWidth: 3555
Flags: W
HStem: -28 273<305.58 750.041> 1123 21G<1203 1265.95> 1234 273<604.144 994.419>
Fore
1262 1123 m 1,0,1
 1144 1177 1144 1177 1036.5 1205.5 c 128,-1,2
 929 1234 929 1234 821 1234 c 0,3,4
 679 1234 679 1234 609.5 1197 c 128,-1,5
 540 1160 540 1160 526 1082 c 0,6,7
 512 1017 512 1017 547.5 983.5 c 128,-1,8
 583 950 583 950 693 929 c 2,9,-1
 854 892 l 2,10,11
 1092 845 1092 845 1177 746.5 c 128,-1,12
 1262 648 1262 648 1224 455 c 0,13,14
 1174 210 1174 210 1008 91 c 128,-1,15
 842 -28 842 -28 540 -28 c 0,16,17
 260 -28 260 -28 -3 78 c 1,18,-1
 57 398 l 1,19,20
 184 323 184 323 309 284 c 128,-1,21
 434 245 434 245 559 245 c 256,22,23
 682 245 682 245 755 290 c 128,-1,24
 828 335 828 335 845 413 c 0,25,26
 861 476 861 476 825.5 515 c 128,-1,27
 790 554 790 554 654 583 c 2,28,-1
 512 615 l 2,29,30
 299 665 299 665 219 770 c 128,-1,31
 139 875 139 875 174 1049 c 0,32,33
 217 1272 217 1272 380 1389.5 c 128,-1,34
 543 1507 543 1507 811 1507 c 0,35,36
 936 1507 936 1507 1061.5 1489.5 c 128,-1,37
 1187 1472 1187 1472 1323 1432 c 1,38,-1
 1262 1123 l 1,0,1
EndSplineSet
EndChar
StartChar: T
Encoding: 84 84 55
Width: 1385
VWidth: 3555
Flags: W
HStem: 0 21G<326 708.869> 1194 289<122 559 936 1429>
Fore
1486 1483 m 1,0,-1
 1429 1194 l 1,1,-1
 936 1194 l 1,2,-1
 705 0 l 1,3,-1
 326 0 l 1,4,-1
 559 1194 l 1,5,-1
 64 1194 l 1,6,-1
 122 1483 l 1,7,-1
 1486 1483 l 1,0,-1
EndSplineSet
EndChar
StartChar: U
Encoding: 85 85 56
Width: 1649
VWidth: 3555
Flags: W
HStem: -28 276<544.843 859.706> 1463 20G<291.108 679 1190.11 1575>
Fore
679 1483 m 1,0,-1
 505 594 l 2,1,2
 469 413 469 413 514 330.5 c 128,-1,3
 559 248 559 248 693 248 c 256,4,5
 828 248 828 248 906 330.5 c 128,-1,6
 984 413 984 413 1021 594 c 2,7,-1
 1194 1483 l 1,8,-1
 1575 1483 l 1,9,-1
 1401 594 l 2,10,11
 1340 281 1340 281 1155 126.5 c 128,-1,12
 970 -28 970 -28 641 -28 c 0,13,14
 0 -28 0 -28 122 594 c 2,15,-1
 295 1483 l 1,16,-1
 679 1483 l 1,0,-1
EndSplineSet
EndChar
StartChar: V
Encoding: 86 86 57
Width: 1574
VWidth: 3555
Flags: W
HStem: 0 21G<376.521 846.328> 1463 20G<122 505.358 1278.98 1675>
Fore
502 1483 m 1,0,-1
 686 387 l 1,1,-1
 1290 1483 l 1,2,-1
 1675 1483 l 1,3,-1
 835 0 l 1,4,-1
 380 0 l 1,5,-1
 122 1483 l 1,6,-1
 502 1483 l 1,0,-1
EndSplineSet
EndChar
StartChar: W
Encoding: 87 87 58
Width: 2239
VWidth: 3555
Flags: W
HStem: 0 21G<237.137 687.536 1207.15 1661.54> 1463 20G<174 540.739 1036.4 1415.79 1918.33 2286>
Fore
540 1483 m 1,0,-1
 580 401 l 1,1,-1
 1045 1483 l 1,2,-1
 1415 1483 l 1,3,-1
 1458 401 l 1,4,-1
 1927 1483 l 1,5,-1
 2286 1483 l 1,6,-1
 1653 0 l 1,7,-1
 1208 0 l 1,8,-1
 1160 1127 l 1,9,-1
 679 0 l 1,10,-1
 238 0 l 1,11,-1
 174 1483 l 1,12,-1
 540 1483 l 1,0,-1
EndSplineSet
EndChar
StartChar: X
Encoding: 88 88 59
Width: 1567
VWidth: 3555
Flags: W
HStem: 0 21G<-139 281.132 940.177 1351> 1463 20G<170 578.706 1197.56 1618>
Fore
1351 0 m 1,0,-1
 950 0 l 1,1,-1
 700 509 l 1,2,-1
 264 0 l 1,3,-1
 -139 0 l 1,4,-1
 516 757 l 1,5,-1
 170 1483 l 1,6,-1
 569 1483 l 1,7,-1
 800 1007 l 1,8,-1
 1215 1483 l 1,9,-1
 1618 1483 l 1,10,-1
 981 757 l 1,11,-1
 1351 0 l 1,0,-1
EndSplineSet
EndChar
StartChar: Y
Encoding: 89 89 60
Width: 1470
VWidth: 3555
Flags: W
HStem: 0 21G<363 753.897> 1463 20G<92 517.83 1170.25 1604>
Fore
509 1483 m 1,0,-1
 743 953 l 1,1,-1
 1187 1483 l 1,2,-1
 1604 1483 l 1,3,-1
 871 621 l 1,4,-1
 750 0 l 1,5,-1
 363 0 l 1,6,-1
 484 621 l 1,7,-1
 92 1483 l 1,8,-1
 509 1483 l 1,0,-1
EndSplineSet
EndChar
StartChar: Z
Encoding: 90 90 61
Width: 1473
VWidth: 3555
Flags: W
HStem: 0 288<441 1205> 1194 289<227 939>
Fore
1469 1483 m 1,0,-1
 1422 1248 l 1,1,-1
 441 288 l 1,2,-1
 1259 288 l 1,3,-1
 1205 0 l 1,4,-1
 -85 0 l 1,5,-1
 -43 231 l 1,6,-1
 939 1194 l 1,7,-1
 170 1194 l 1,8,-1
 227 1483 l 1,9,-1
 1469 1483 l 1,0,-1
EndSplineSet
EndChar
StartChar: bracketleft
Encoding: 91 91 62
Width: 927
VWidth: 3555
Flags: W
HStem: -271 224<326 562> 1319 228<594 871>
VStem: -57 970<-271 1547>
Fore
913 1547 m 1,0,-1
 871 1319 l 1,1,-1
 594 1319 l 1,2,-1
 326 -47 l 1,3,-1
 604 -47 l 1,4,-1
 562 -271 l 1,5,-1
 -57 -271 l 1,6,-1
 295 1547 l 1,7,-1
 913 1547 l 1,0,-1
EndSplineSet
EndChar
StartChar: backslash
Encoding: 92 92 63
Width: 743
VWidth: 3555
Flags: W
HStem: 1463 20G<109 332.344>
VStem: 109 417<-189 1483> 109 221<-200.565 1457.27>
Fore
109 1483 m 1,0,-1
 330 1483 l 1,1,-1
 526 -189 l 1,2,-1
 306 -189 l 1,3,-1
 109 1483 l 1,0,-1
EndSplineSet
EndChar
StartChar: bracketright
Encoding: 93 93 64
Width: 927
VWidth: 3555
Flags: W
HStem: -271 224<-50 231> 1319 228<260 498>
VStem: -92 967<-271 1547>
Fore
-92 -271 m 1,0,-1
 -50 -47 l 1,1,-1
 231 -47 l 1,2,-1
 498 1319 l 1,3,-1
 217 1319 l 1,4,-1
 260 1547 l 1,5,-1
 875 1547 l 1,6,-1
 523 -271 l 1,7,-1
 -92 -271 l 1,0,-1
EndSplineSet
EndChar
StartChar: asciicircum
Encoding: 94 94 65
Width: 1701
VWidth: 3555
Flags: W
HStem: 929 554<838 1496>
Fore
1496 929 m 1,0,-1
 1255 929 l 1,1,-1
 913 1231 l 1,2,-1
 448 929 l 1,3,-1
 207 929 l 1,4,-1
 838 1483 l 1,5,-1
 1085 1483 l 1,6,-1
 1496 929 l 1,0,-1
EndSplineSet
EndChar
StartChar: underscore
Encoding: 95 95 66
Width: 1015
VWidth: 3555
Flags: W
HStem: -484 192<-231 743>
Fore
743 -484 m 1,0,-1
 -271 -484 l 1,1,-1
 -231 -292 l 1,2,-1
 783 -292 l 1,3,-1
 743 -484 l 1,0,-1
EndSplineSet
EndChar
StartChar: grave
Encoding: 96 96 67
Width: 1015
VWidth: 3555
Flags: W
HStem: 1252 373<227 719>
VStem: 227 492<1252 1625>
Fore
719 1252 m 1,0,-1
 526 1252 l 1,1,-1
 227 1625 l 1,2,-1
 509 1625 l 1,3,-1
 719 1252 l 1,0,-1
EndSplineSet
EndChar
StartChar: a
Encoding: 97 97 68
Width: 1371
VWidth: 3555
Flags: W
HStem: 0 21<203 352.5 679 1038.82> 502 210<403.656 774> 899 238<493.914 780.38>
Fore
587 502 m 1,0,1
 366 502 366 502 339 352 c 0,2,3
 323 285 323 285 358.5 246 c 128,-1,4
 394 207 394 207 476 207 c 0,5,6
 580 207 580 207 663 279.5 c 128,-1,7
 746 352 746 352 767 462 c 2,8,-1
 774 502 l 1,9,-1
 587 502 l 1,0,1
1035 0 m 1,10,-1
 679 0 l 1,11,-1
 708 163 l 1,12,13
 615 64 615 64 516 18 c 128,-1,14
 417 -28 417 -28 288 -28 c 0,15,16
 118 -28 118 -28 28.5 73 c 128,-1,17
 -61 174 -61 174 -28 335 c 0,18,19
 10 529 10 529 161 620.5 c 128,-1,20
 312 712 312 712 601 712 c 2,21,-1
 814 712 l 1,22,-1
 821 740 l 2,23,24
 838 825 838 825 778.5 862 c 128,-1,25
 719 899 719 899 576 899 c 0,26,27
 462 899 462 899 361 880 c 128,-1,28
 260 861 260 861 163 811 c 1,29,-1
 217 1085 l 1,30,31
 339 1109 339 1109 456 1123 c 128,-1,32
 573 1137 573 1137 686 1137 c 0,33,34
 988 1137 988 1137 1098 1018 c 128,-1,35
 1208 899 1208 899 1156 634 c 2,36,-1
 1035 0 l 1,10,-1
EndSplineSet
Substitution2: "Single Substitution lookup 22 subtable" uni0E38
Substitution2: "Single Substitution lookup 22 subtable" uni0E38
EndChar
StartChar: b
Encoding: 98 98 69
Width: 1456
VWidth: 3555
Flags: W
HStem: -28 255<514.501 776.23> 882 255<723.995 1038.5>
Fore
625 227 m 0,0,1
 865 227 865 227 929 554 c 0,2,3
 988 882 988 882 753 882 c 256,4,5
 519 882 519 882 458 554 c 0,6,7
 394 227 394 227 625 227 c 0,0,1
533 950 m 1,8,9
 700 1137 700 1137 936 1137 c 0,10,11
 1141 1137 1141 1137 1240.5 975.5 c 128,-1,12
 1340 814 1340 814 1290 554 c 0,13,14
 1266 427 1266 427 1211 320.5 c 128,-1,15
 1156 214 1156 214 1077 135.5 c 128,-1,16
 998 57 998 57 904.5 14.5 c 128,-1,17
 811 -28 811 -28 708 -28 c 0,18,19
 476 -28 476 -28 380 160 c 1,20,-1
 352 0 l 1,21,-1
 -7 0 l 1,22,-1
 292 1547 l 1,23,-1
 651 1547 l 1,24,-1
 533 950 l 1,8,9
EndSplineSet
Substitution2: "Single Substitution lookup 22 subtable" uni0E39
Substitution2: "Single Substitution lookup 22 subtable" uni0E39
EndChar
StartChar: c
Encoding: 99 99 70
Width: 1204
VWidth: 3555
Flags: W
HStem: -28 252<466.532 751.499> 882 255<572.426 939.407>
Fore
1042 790 m 1,0,1
 981 838 981 838 913 860 c 128,-1,2
 845 882 845 882 764 882 c 0,3,4
 611 882 611 882 514 798.5 c 128,-1,5
 417 715 417 715 387 554 c 0,6,7
 356 394 356 394 420 309 c 128,-1,8
 484 224 484 224 637 224 c 0,9,10
 804 224 804 224 950 319 c 1,11,-1
 892 31 l 1,12,13
 804 0 804 0 716 -14 c 128,-1,14
 628 -28 628 -28 543 -28 c 0,15,16
 241 -28 241 -28 100.5 125 c 128,-1,17
 -40 278 -40 278 14 554 c 256,18,19
 68 832 68 832 268.5 984.5 c 128,-1,20
 469 1137 469 1137 771 1137 c 0,21,22
 950 1137 950 1137 1099 1082 c 1,23,-1
 1042 790 l 1,0,1
EndSplineSet
Substitution2: "Single Substitution lookup 22 subtable" uni0E3A
Substitution2: "Single Substitution lookup 22 subtable" uni0E3A
EndChar
StartChar: d
Encoding: 100 100 71
Width: 1456
VWidth: 3555
Flags: W
HStem: -28 255<325.5 581.887> 882 255<538.756 792.922>
Fore
1049 1547 m 1,0,-1
 1404 1547 l 1,1,-1
 1106 0 l 1,2,-1
 750 0 l 1,3,-1
 779 160 l 1,4,5
 601 -28 601 -28 377 -28 c 0,6,7
 274 -28 274 -28 196 14.5 c 128,-1,8
 118 57 118 57 71 135.5 c 128,-1,9
 24 214 24 214 10.5 320.5 c 128,-1,10
 -3 427 -3 427 21 554 c 256,11,12
 47 682 47 682 103.5 790.5 c 128,-1,13
 160 899 160 899 236 975.5 c 128,-1,14
 312 1052 312 1052 407 1094.5 c 128,-1,15
 502 1137 502 1137 604 1137 c 0,16,17
 828 1137 828 1137 932 950 c 1,18,-1
 1049 1547 l 1,0,-1
559 227 m 0,19,20
 793 227 793 227 858 554 c 0,21,22
 917 882 917 882 686 882 c 0,23,24
 451 882 451 882 391 554 c 0,25,26
 326 227 326 227 559 227 c 0,19,20
EndSplineSet
EndChar
StartChar: e
Encoding: 101 101 72
Width: 1378
VWidth: 3555
Flags: W
HStem: -28 235<432.306 761.927> 458 217<404 865> 899 238<534.88 825.922>
Fore
1191 458 m 1,0,-1
 363 458 l 1,1,2
 330 207 330 207 618 207 c 0,3,4
 733 207 733 207 855 240.5 c 128,-1,5
 977 274 977 274 1116 342 c 1,6,-1
 1062 68 l 1,7,8
 929 17 929 17 798.5 -5.5 c 128,-1,9
 668 -28 668 -28 540 -28 c 0,10,11
 238 -28 238 -28 99 125 c 128,-1,12
 -40 278 -40 278 14 554 c 256,13,14
 68 832 68 832 263 984.5 c 128,-1,15
 458 1137 458 1137 746 1137 c 0,16,17
 1007 1137 1007 1137 1133 981 c 128,-1,18
 1259 825 1259 825 1208 559 c 2,19,-1
 1191 458 l 1,0,-1
865 675 m 1,20,21
 885 779 885 779 841 839 c 128,-1,22
 797 899 797 899 700 899 c 0,23,24
 479 899 479 899 404 675 c 1,25,-1
 865 675 l 1,20,21
EndSplineSet
EndChar
StartChar: f
Encoding: 102 102 73
Width: 880
VWidth: 3555
Flags: W
HStem: 0 21G<35 394.902> 861 252<75 203 604 868> 1312 235<670.62 974>
VStem: 28 993<861 1547>
Fore
974 1312 m 1,0,-1
 783 1312 l 2,1,2
 705 1312 705 1312 669.5 1283.5 c 128,-1,3
 634 1255 634 1255 621 1191 c 2,4,-1
 604 1113 l 1,5,-1
 913 1113 l 1,6,-1
 868 861 l 1,7,-1
 559 861 l 1,8,-1
 391 0 l 1,9,-1
 35 0 l 1,10,-1
 203 861 l 1,11,-1
 28 861 l 1,12,-1
 75 1113 l 1,13,-1
 248 1113 l 1,14,-1
 267 1191 l 2,15,16
 335 1547 335 1547 750 1547 c 2,17,-1
 1021 1547 l 1,18,-1
 974 1312 l 1,0,-1
EndSplineSet
EndChar
StartChar: g
Encoding: 103 103 74
Width: 1456
VWidth: 3555
Flags: W
HStem: -441 238<169.716 591.369> 0 260<280.5 590.245> 882 255<542.108 792.553>
Fore
786 189 m 1,0,1
 608 0 608 0 384 0 c 0,2,3
 177 0 177 0 75 160 c 256,4,5
 -28 319 -28 319 24 569 c 0,6,7
 75 821 75 821 234 977 c 0,8,9
 401 1137 401 1137 604 1137 c 0,10,11
 828 1137 828 1137 932 946 c 1,12,-1
 963 1113 l 1,13,-1
 1319 1113 l 1,14,-1
 1127 115 l 2,15,16
 1073 -156 1073 -156 876 -298.5 c 128,-1,17
 679 -441 679 -441 356 -441 c 0,18,19
 153 -441 153 -441 -24 -373 c 1,20,-1
 28 -95 l 1,21,22
 109 -153 109 -153 195 -178 c 128,-1,23
 281 -203 281 -203 370 -203 c 0,24,25
 543 -203 543 -203 639.5 -130 c 128,-1,26
 736 -57 736 -57 771 115 c 2,27,-1
 786 189 l 1,0,1
686 882 m 0,28,29
 576 882 576 882 500 800.5 c 128,-1,30
 424 719 424 719 394 569 c 0,31,32
 335 260 335 260 566 260 c 0,33,34
 679 260 679 260 755.5 340 c 128,-1,35
 832 420 832 420 861 569 c 256,36,37
 889 719 889 719 844.5 800.5 c 128,-1,38
 800 882 800 882 686 882 c 0,28,29
EndSplineSet
EndChar
StartChar: h
Encoding: 104 104 75
Width: 1449
VWidth: 3555
Flags: W
HStem: 0 21G<-7 355.794 753 1112.82> 871 266<733.335 1034.5>
Fore
1109 0 m 1,0,-1
 753 0 l 1,1,-1
 774 115 l 1,2,-1
 854 519 l 2,3,4
 868 590 868 590 875 636 c 128,-1,5
 882 682 882 682 883.5 714 c 128,-1,6
 885 746 885 746 883.5 766 c 128,-1,7
 882 786 882 786 875 800 c 0,8,9
 849 871 849 871 753 871 c 0,10,11
 644 871 644 871 564 783.5 c 128,-1,12
 484 696 484 696 455 543 c 2,13,-1
 352 0 l 1,14,-1
 -7 0 l 1,15,-1
 292 1547 l 1,16,-1
 651 1547 l 1,17,-1
 533 950 l 1,18,19
 719 1137 719 1137 939 1137 c 0,20,21
 1130 1137 1130 1137 1206.5 1018 c 128,-1,22
 1283 899 1283 899 1238 675 c 2,23,-1
 1109 0 l 1,0,-1
EndSplineSet
EndChar
StartChar: i
Encoding: 105 105 76
Width: 692
VWidth: 3555
Flags: W
HStem: 0 21G<-7 355.845> 1093 20G<203.155 566> 1252 295<292 594>
VStem: -7 658<0 1547>
Fore
566 1113 m 1,0,-1
 352 0 l 1,1,-1
 -7 0 l 1,2,-1
 207 1113 l 1,3,-1
 566 1113 l 1,0,-1
651 1547 m 1,4,-1
 594 1252 l 1,5,-1
 234 1252 l 1,6,-1
 292 1547 l 1,7,-1
 651 1547 l 1,4,-1
EndSplineSet
EndChar
StartChar: j
Encoding: 106 106 77
Width: 692
VWidth: 3555
Flags: W
HStem: -441 234<-285 -80.4194> 1093 20G<203.095 566> 1252 295<292 594>
VStem: -330 981<-441 1547>
Fore
566 1113 m 1,0,-1
 352 17 l 2,1,2
 309 -207 309 -207 176 -324 c 128,-1,3
 43 -441 43 -441 -160 -441 c 2,4,-1
 -330 -441 l 1,5,-1
 -285 -207 l 1,6,-1
 -220 -207 l 2,7,8
 -125 -207 -125 -207 -78 -162.5 c 128,-1,9
 -31 -118 -31 -118 -7 17 c 2,10,-1
 207 1113 l 1,11,-1
 566 1113 l 1,0,-1
651 1547 m 1,12,-1
 594 1252 l 1,13,-1
 234 1252 l 1,14,-1
 292 1547 l 1,15,-1
 651 1547 l 1,12,-1
EndSplineSet
EndChar
StartChar: k
Encoding: 107 107 78
Width: 1350
VWidth: 3555
Flags: W
HStem: 0 21G<-7 355.853 768.195 1212> 1093 20G<946.373 1384>
Fore
651 1547 m 1,0,-1
 488 705 l 1,1,-1
 970 1113 l 1,2,-1
 1384 1113 l 1,3,-1
 743 601 l 1,4,-1
 1212 0 l 1,5,-1
 783 0 l 1,6,-1
 441 462 l 1,7,-1
 352 0 l 1,8,-1
 -7 0 l 1,9,-1
 292 1547 l 1,10,-1
 651 1547 l 1,0,-1
EndSplineSet
EndChar
StartChar: l
Encoding: 108 108 79
Width: 692
VWidth: 3555
Flags: W
HStem: 0 21G<-7 355.866>
VStem: -7 658<0 1547>
Fore
651 1547 m 1,0,-1
 352 0 l 1,1,-1
 -7 0 l 1,2,-1
 292 1547 l 1,3,-1
 651 1547 l 1,0,-1
EndSplineSet
EndChar
StartChar: m
Encoding: 109 109 80
Width: 2117
VWidth: 3555
Flags: W
HStem: 0 21G<-7 355.794 705 1065.87 1422 1784.82> 871 266<714.586 908.107 1412.38 1672.9>
Fore
1201 929 m 1,0,1
 1286 1031 1286 1031 1393 1084 c 128,-1,2
 1500 1137 1500 1137 1608 1137 c 0,3,4
 1802 1137 1802 1137 1878.5 1018 c 128,-1,5
 1955 899 1955 899 1910 675 c 2,6,-1
 1781 0 l 1,7,-1
 1422 0 l 1,8,-1
 1533 580 l 2,9,10
 1536 590 1536 590 1539.5 604 c 128,-1,11
 1543 618 1543 618 1550 648 c 0,12,13
 1571 764 1571 764 1548.5 817.5 c 128,-1,14
 1526 871 1526 871 1448 871 c 0,15,16
 1231 871 1231 871 1167 543 c 2,17,-1
 1062 0 l 1,18,-1
 705 0 l 1,19,-1
 814 580 l 2,20,21
 832 672 832 672 837 729 c 128,-1,22
 842 786 842 786 831.5 817.5 c 128,-1,23
 821 849 821 849 796 860 c 128,-1,24
 771 871 771 871 729 871 c 0,25,26
 519 871 519 871 455 543 c 2,27,-1
 352 0 l 1,28,-1
 -7 0 l 1,29,-1
 207 1113 l 1,30,-1
 566 1113 l 1,31,-1
 533 950 l 1,32,33
 693 1137 693 1137 910 1137 c 0,34,35
 1021 1137 1021 1137 1099 1082.5 c 128,-1,36
 1177 1028 1177 1028 1201 929 c 1,0,1
EndSplineSet
EndChar
StartChar: n
Encoding: 110 110 81
Width: 1449
VWidth: 3555
Flags: W
HStem: 0 21G<-7 355.794 753 1112.82> 871 266<733.335 1034.5>
Fore
1109 0 m 1,0,-1
 753 0 l 1,1,-1
 774 115 l 1,2,-1
 854 519 l 2,3,4
 868 590 868 590 875 636 c 128,-1,5
 882 682 882 682 883.5 714 c 128,-1,6
 885 746 885 746 883.5 766 c 128,-1,7
 882 786 882 786 875 800 c 0,8,9
 849 871 849 871 753 871 c 0,10,11
 644 871 644 871 564 783.5 c 128,-1,12
 484 696 484 696 455 543 c 2,13,-1
 352 0 l 1,14,-1
 -7 0 l 1,15,-1
 207 1113 l 1,16,-1
 566 1113 l 1,17,-1
 533 950 l 1,18,19
 719 1137 719 1137 939 1137 c 0,20,21
 1130 1137 1130 1137 1206.5 1018 c 128,-1,22
 1283 899 1283 899 1238 675 c 2,23,-1
 1109 0 l 1,0,-1
EndSplineSet
EndChar
StartChar: o
Encoding: 111 111 82
Width: 1395
VWidth: 3555
Flags: W
HStem: -28 252<432.344 709.315> 882 255<537.995 820.26>
Fore
689 882 m 0,0,1
 448 882 448 882 387 554 c 0,2,3
 356 394 356 394 400 309 c 128,-1,4
 444 224 444 224 562 224 c 0,5,6
 682 224 682 224 758.5 309 c 128,-1,7
 835 394 835 394 868 554 c 0,8,9
 929 882 929 882 689 882 c 0,0,1
740 1137 m 256,10,11
 1028 1137 1028 1137 1159 984.5 c 128,-1,12
 1290 832 1290 832 1238 554 c 256,13,14
 1184 278 1184 278 992 125 c 128,-1,15
 800 -28 800 -28 512 -28 c 256,16,17
 224 -28 224 -28 92 125 c 128,-1,18
 -40 278 -40 278 14 554 c 256,19,20
 68 832 68 832 259.5 984.5 c 128,-1,21
 451 1137 451 1137 740 1137 c 256,10,11
EndSplineSet
EndChar
StartChar: p
Encoding: 112 112 83
Width: 1456
VWidth: 3555
Flags: W
HStem: -424 21G<-92 270.87> -28 255<514.501 776.23> 882 255<723.995 1038.5>
Fore
267 -424 m 1,0,-1
 -92 -424 l 1,1,-1
 207 1113 l 1,2,-1
 566 1113 l 1,3,-1
 533 950 l 1,4,5
 700 1137 700 1137 936 1137 c 0,6,7
 1141 1137 1141 1137 1240.5 975.5 c 128,-1,8
 1340 814 1340 814 1290 554 c 0,9,10
 1266 427 1266 427 1211 320.5 c 128,-1,11
 1156 214 1156 214 1077 135.5 c 128,-1,12
 998 57 998 57 904.5 14.5 c 128,-1,13
 811 -28 811 -28 708 -28 c 0,14,15
 476 -28 476 -28 380 160 c 1,16,-1
 267 -424 l 1,0,-1
753 882 m 256,17,18
 519 882 519 882 458 554 c 0,19,20
 394 227 394 227 625 227 c 0,21,22
 865 227 865 227 929 554 c 0,23,24
 988 882 988 882 753 882 c 256,17,18
EndSplineSet
EndChar
StartChar: q
Encoding: 113 113 84
Width: 1456
VWidth: 3555
Flags: W
HStem: -424 21G<665 1024.88> -28 255<325.5 581.887> 882 255<538.756 792.922>
Fore
686 882 m 0,0,1
 451 882 451 882 391 554 c 0,2,3
 326 227 326 227 559 227 c 0,4,5
 793 227 793 227 858 554 c 0,6,7
 917 882 917 882 686 882 c 0,0,1
779 160 m 1,8,9
 601 -28 601 -28 377 -28 c 0,10,11
 274 -28 274 -28 196 14.5 c 128,-1,12
 118 57 118 57 71 135.5 c 128,-1,13
 24 214 24 214 10.5 320.5 c 128,-1,14
 -3 427 -3 427 21 554 c 256,15,16
 47 682 47 682 103.5 790.5 c 128,-1,17
 160 899 160 899 236 975.5 c 128,-1,18
 312 1052 312 1052 407 1094.5 c 128,-1,19
 502 1137 502 1137 604 1137 c 0,20,21
 828 1137 828 1137 932 946 c 1,22,-1
 963 1113 l 1,23,-1
 1319 1113 l 1,24,-1
 1021 -424 l 1,25,-1
 665 -424 l 1,26,-1
 779 160 l 1,8,9
EndSplineSet
EndChar
StartChar: r
Encoding: 114 114 85
Width: 1001
VWidth: 3555
Flags: W
HStem: 0 21G<-7 355.837> 854 283<725.266 957.93>
Fore
977 811 m 1,0,1
 929 832 929 832 887 843 c 128,-1,2
 845 854 845 854 797 854 c 0,3,4
 658 854 658 854 568.5 764.5 c 128,-1,5
 479 675 479 675 451 516 c 2,6,-1
 352 0 l 1,7,-1
 -7 0 l 1,8,-1
 207 1113 l 1,9,-1
 566 1113 l 1,10,-1
 529 929 l 1,11,12
 615 1038 615 1038 714.5 1087.5 c 128,-1,13
 814 1137 814 1137 939 1137 c 0,14,15
 957 1137 957 1137 977.5 1135.5 c 128,-1,16
 998 1134 998 1134 1038 1130 c 1,17,-1
 977 811 l 1,0,1
EndSplineSet
EndChar
StartChar: s
Encoding: 115 115 86
Width: 1208
VWidth: 3555
Flags: W
HStem: -28 235<204.925 615.734> 899 238<429.247 809.295>
Fore
1017 807 m 1,0,1
 910 858 910 858 811 878.5 c 128,-1,2
 712 899 712 899 611 899 c 0,3,4
 417 899 417 899 394 800 c 0,5,6
 387 757 387 757 421 734.5 c 128,-1,7
 455 712 455 712 547 696 c 2,8,-1
 604 689 l 2,9,10
 878 658 878 658 950 580 c 0,11,12
 1031 498 1031 498 995 326 c 0,13,14
 932 -28 932 -28 404 -28 c 0,15,16
 299 -28 299 -28 181.5 -12.5 c 128,-1,17
 64 3 64 3 -47 43 c 1,18,-1
 3 309 l 1,19,20
 200 207 200 207 427 207 c 0,21,22
 641 207 641 207 661 319 c 0,23,24
 672 370 672 370 638 393.5 c 128,-1,25
 604 417 604 417 498 431 c 2,26,-1
 434 437 l 2,27,28
 207 465 207 465 127 546.5 c 128,-1,29
 47 628 47 628 78 793 c 0,30,31
 142 1137 142 1137 641 1137 c 0,32,33
 832 1137 832 1137 1069 1082 c 1,34,-1
 1017 807 l 1,0,1
EndSplineSet
EndChar
StartChar: t
Encoding: 116 116 87
Width: 970
VWidth: 3555
Flags: W
HStem: 0 252<463.313 715> 861 252<61 193 594 913>
VStem: 14 946<861 1113>
Fore
594 1113 m 1,0,-1
 960 1113 l 1,1,-1
 913 861 l 1,2,-1
 547 861 l 1,3,-1
 451 384 l 2,4,5
 437 306 437 306 462.5 279 c 128,-1,6
 488 252 488 252 580 252 c 2,7,-1
 760 252 l 1,8,-1
 715 0 l 1,9,-1
 413 0 l 2,10,11
 200 0 200 0 128.5 85 c 128,-1,12
 57 170 57 170 95 384 c 2,13,-1
 193 861 l 1,14,-1
 14 861 l 1,15,-1
 61 1113 l 1,16,-1
 238 1113 l 1,17,-1
 299 1425 l 1,18,-1
 654 1425 l 1,19,-1
 594 1113 l 1,0,-1
EndSplineSet
EndChar
StartChar: u
Encoding: 117 117 88
Width: 1449
VWidth: 3555
Flags: W
HStem: -28 266<270 567.706> 1093 20G<192.112 554 949.08 1309>
Fore
196 1113 m 1,0,-1
 554 1113 l 1,1,-1
 533 1003 l 2,2,3
 526 953 526 953 515.5 895.5 c 128,-1,4
 505 838 505 838 488 771 c 2,5,-1
 451 590 l 2,6,7
 424 458 424 458 420.5 400 c 128,-1,8
 417 342 417 342 420 309 c 1,9,10
 462 238 462 238 550 238 c 0,11,12
 665 238 665 238 741.5 325.5 c 128,-1,13
 818 413 818 413 845 562 c 2,14,-1
 953 1113 l 1,15,-1
 1309 1113 l 1,16,-1
 1095 0 l 1,17,-1
 740 0 l 1,18,-1
 767 160 l 1,19,20
 583 -28 583 -28 363 -28 c 0,21,22
 177 -28 177 -28 99 89.5 c 128,-1,23
 21 207 21 207 64 434 c 2,24,-1
 196 1113 l 1,0,-1
EndSplineSet
EndChar
StartChar: v
Encoding: 118 118 89
Width: 1321
VWidth: 3555
Flags: W
HStem: 0 21G<283.975 693.698> 1093 20G<64 423.307 962.88 1333>
Fore
420 1113 m 1,0,-1
 547 345 l 1,1,-1
 974 1113 l 1,2,-1
 1333 1113 l 1,3,-1
 682 0 l 1,4,-1
 288 0 l 1,5,-1
 64 1113 l 1,6,-1
 420 1113 l 1,0,-1
EndSplineSet
EndChar
StartChar: w
Encoding: 119 119 90
Width: 1876
VWidth: 3555
Flags: W
HStem: 0 21G<187.562 584.639 948.848 1349.02> 1093 20G<109 455.859 819.146 1124.06 1491.1 1842>
Fore
455 1113 m 1,0,-1
 488 345 l 1,1,-1
 828 1113 l 1,2,-1
 1123 1113 l 1,3,-1
 1163 356 l 1,4,-1
 1500 1113 l 1,5,-1
 1842 1113 l 1,6,-1
 1340 0 l 1,7,-1
 950 0 l 1,8,-1
 906 764 l 1,9,-1
 576 0 l 1,10,-1
 189 0 l 1,11,-1
 109 1113 l 1,12,-1
 455 1113 l 1,0,-1
EndSplineSet
EndChar
StartChar: x
Encoding: 120 120 91
Width: 1310
VWidth: 3555
Flags: W
HStem: 0 21G<-149 248.727 715.602 1102> 1093 20G<89 474.697 899.303 1293>
Fore
89 1113 m 1,0,-1
 465 1113 l 1,1,-1
 625 783 l 1,2,-1
 917 1113 l 1,3,-1
 1293 1113 l 1,4,-1
 793 569 l 1,5,-1
 1102 0 l 1,6,-1
 726 0 l 1,7,-1
 543 352 l 1,8,-1
 231 0 l 1,9,-1
 -149 0 l 1,10,-1
 384 569 l 1,11,-1
 89 1113 l 1,0,-1
EndSplineSet
EndChar
StartChar: y
Encoding: 121 121 92
Width: 1321
VWidth: 3555
Flags: W
HStem: -441 234<-17 229.428> 1093 20G<61 421.032 956.443 1323>
Fore
417 1113 m 1,0,-1
 569 359 l 1,1,-1
 967 1113 l 1,2,-1
 1323 1113 l 1,3,-1
 621 -102 l 2,4,5
 512 -292 512 -292 403.5 -366.5 c 128,-1,6
 295 -441 295 -441 146 -441 c 2,7,-1
 -64 -441 l 1,8,-1
 -17 -207 l 1,9,-1
 92 -207 l 2,10,11
 181 -207 181 -207 231 -178 c 128,-1,12
 281 -149 281 -149 316 -75 c 2,13,-1
 335 -47 l 1,14,-1
 61 1113 l 1,15,-1
 417 1113 l 1,0,-1
EndSplineSet
EndChar
StartChar: z
Encoding: 122 122 93
Width: 1182
VWidth: 3555
Flags: W
HStem: 0 252<370 910> 861 252<153 665>
Fore
1123 1113 m 1,0,-1
 1078 868 l 1,1,-1
 370 252 l 1,2,-1
 957 252 l 1,3,-1
 910 0 l 1,4,-1
 -85 0 l 1,5,-1
 -40 245 l 1,6,-1
 665 861 l 1,7,-1
 106 861 l 1,8,-1
 153 1113 l 1,9,-1
 1123 1113 l 1,0,-1
EndSplineSet
EndChar
StartChar: braceleft
Encoding: 123 123 94
Width: 1449
VWidth: 3555
Flags: W
HStem: -335 229<828.643 950> 495 217<210 400.144> 1319 228<1102.89 1272>
Fore
950 -335 m 1,0,-1
 733 -335 l 2,1,2
 516 -335 516 -335 432.5 -247.5 c 128,-1,3
 349 -160 349 -160 387 31 c 2,4,-1
 427 224 l 2,5,6
 455 373 455 373 414 434 c 128,-1,7
 373 495 373 495 231 495 c 2,8,-1
 170 495 l 1,9,-1
 210 712 l 1,10,-1
 271 712 l 2,11,12
 413 712 413 712 478 768.5 c 128,-1,13
 543 825 543 825 573 974 c 2,14,-1
 611 1180 l 2,15,16
 651 1373 651 1373 766.5 1460 c 128,-1,17
 882 1547 882 1547 1099 1547 c 2,18,-1
 1316 1547 l 1,19,-1
 1272 1319 l 1,20,-1
 1201 1319 l 2,21,22
 1134 1319 1134 1319 1088 1310.5 c 128,-1,23
 1042 1302 1042 1302 1011.5 1277 c 128,-1,24
 981 1252 981 1252 963.5 1209.5 c 128,-1,25
 946 1167 946 1167 932 1095 c 2,26,-1
 899 929 l 2,27,28
 871 767 871 767 812 700.5 c 128,-1,29
 753 634 753 634 644 608 c 1,30,31
 746 580 746 580 776.5 510.5 c 128,-1,32
 807 441 807 441 774 285 c 2,33,-1
 743 125 l 2,34,35
 729 50 729 50 731 5 c 128,-1,36
 733 -40 733 -40 752 -64.5 c 128,-1,37
 771 -89 771 -89 814.5 -97.5 c 128,-1,38
 858 -106 858 -106 924 -106 c 2,39,-1
 995 -106 l 1,40,-1
 950 -335 l 1,0,-1
EndSplineSet
EndChar
StartChar: bar
Encoding: 124 124 95
Width: 743
VWidth: 3555
Flags: W
VStem: -14 622<-484 1554>
Fore
214 -484 m 1,0,-1
 -14 -484 l 1,1,-1
 380 1554 l 1,2,-1
 608 1554 l 1,3,-1
 214 -484 l 1,0,-1
EndSplineSet
EndChar
StartChar: braceright
Encoding: 125 125 96
Width: 1449
VWidth: 3555
Flags: W
HStem: -335 229<54 222.591> 495 217<916.238 1113> 1319 228<373 496.099>
Fore
122 -106 m 2,0,1
 193 -106 193 -106 237 -97.5 c 128,-1,2
 281 -89 281 -89 311.5 -64.5 c 128,-1,3
 342 -40 342 -40 357.5 5 c 128,-1,4
 373 50 373 50 387 125 c 2,5,-1
 420 285 l 2,6,7
 451 441 451 441 512 510.5 c 128,-1,8
 573 580 573 580 686 608 c 1,9,10
 580 634 580 634 548 700.5 c 128,-1,11
 516 767 516 767 543 929 c 2,12,-1
 576 1095 l 2,13,14
 590 1167 590 1167 590 1209.5 c 128,-1,15
 590 1252 590 1252 570 1277 c 128,-1,16
 550 1302 550 1302 509.5 1310.5 c 128,-1,17
 469 1319 469 1319 398 1319 c 2,18,-1
 330 1319 l 1,19,-1
 373 1547 l 1,20,-1
 590 1547 l 2,21,22
 807 1547 807 1547 888.5 1460 c 128,-1,23
 970 1373 970 1373 932 1180 c 2,24,-1
 892 974 l 2,25,26
 865 825 865 825 904 768.5 c 128,-1,27
 943 712 943 712 1092 712 c 2,28,-1
 1153 712 l 1,29,-1
 1113 495 l 1,30,-1
 1052 495 l 2,31,32
 906 495 906 495 840 434 c 128,-1,33
 774 373 774 373 746 224 c 2,34,-1
 708 31 l 2,35,36
 668 -160 668 -160 554.5 -247.5 c 128,-1,37
 441 -335 441 -335 224 -335 c 2,38,-1
 7 -335 l 1,39,-1
 54 -106 l 1,40,-1
 122 -106 l 2,0,1
EndSplineSet
EndChar
StartChar: asciitilde
Encoding: 126 126 97
Width: 1701
VWidth: 3555
Flags: W
HStem: 455 231<889.034 1221.22> 590 231<371.881 699.495>
Fore
1422 601 m 1,0,1
 1305 523 1305 523 1209 489 c 128,-1,2
 1113 455 1113 455 1017 455 c 0,3,4
 906 455 906 455 783 512 c 0,5,6
 774 516 774 516 769 517.5 c 128,-1,7
 764 519 764 519 760 523 c 1,8,9
 740 529 l 2,10,11
 597 590 597 590 505 590 c 0,12,13
 424 590 424 590 327.5 553 c 128,-1,14
 231 516 231 516 118 434 c 1,15,-1
 163 672 l 1,16,17
 288 753 288 753 383.5 787 c 128,-1,18
 479 821 479 821 573 821 c 0,19,20
 682 821 682 821 811 764 c 0,21,22
 832 757 832 757 835 753 c 1,23,24
 849 746 l 2,25,26
 998 686 998 686 1088 686 c 256,27,28
 1177 686 1177 686 1267.5 723 c 128,-1,29
 1358 760 1358 760 1472 845 c 1,30,-1
 1422 601 l 1,0,1
EndSplineSet
EndChar
StartChar: Adieresis
Encoding: 196 196 98
Width: 1574
VWidth: 3555
Flags: W
HStem: 0 21G<-167 224.996 999.827 1387> 271 269<509 913> 1463 20G<656.739 1126.56> 1639 248<637 821 1028 1212>
Fore
363 271 m 1,0,-1
 214 0 l 1,1,-1
 -167 0 l 1,2,-1
 668 1483 l 1,3,-1
 1123 1483 l 1,4,-1
 1387 0 l 1,5,-1
 1003 0 l 1,6,-1
 960 271 l 1,7,-1
 363 271 l 1,0,-1
913 540 m 1,8,-1
 832 1134 l 1,9,-1
 509 540 l 1,10,-1
 913 540 l 1,8,-1
871 1887 m 1,11,-1
 821 1639 l 1,12,-1
 587 1639 l 1,13,-1
 637 1887 l 1,14,-1
 871 1887 l 1,11,-1
1262 1887 m 1,15,-1
 1212 1639 l 1,16,-1
 977 1639 l 1,17,-1
 1028 1887 l 1,18,-1
 1262 1887 l 1,15,-1
EndSplineSet
EndChar
StartChar: Aring
Encoding: 197 197 99
Width: 1574
VWidth: 3555
Flags: W
HStem: 0 21G<-167 224.996 999.827 1387> 271 269<509 913> 1731 161<854.08 1026.53>
Fore
1387 0 m 1,0,-1
 1003 0 l 1,1,-1
 960 271 l 1,2,-1
 363 271 l 1,3,-1
 214 0 l 1,4,-1
 -167 0 l 1,5,-1
 648 1455 l 1,6,7
 641 1486 641 1486 634.5 1523.5 c 128,-1,8
 628 1561 628 1561 637 1604 c 0,9,10
 648 1660 648 1660 681.5 1712 c 128,-1,11
 715 1764 715 1764 759.5 1804.5 c 128,-1,12
 804 1845 804 1845 860.5 1868.5 c 128,-1,13
 917 1892 917 1892 977 1892 c 0,14,15
 1031 1892 1031 1892 1077 1868.5 c 128,-1,16
 1123 1845 1123 1845 1153.5 1804.5 c 128,-1,17
 1184 1764 1184 1764 1196 1712 c 128,-1,18
 1208 1660 1208 1660 1198 1604 c 0,19,20
 1184 1514 1184 1514 1127 1455 c 1,21,-1
 1387 0 l 1,0,-1
790 1604 m 256,22,23
 779 1550 779 1550 808.5 1513 c 128,-1,24
 838 1476 838 1476 896 1476 c 0,25,26
 950 1476 950 1476 992.5 1513 c 128,-1,27
 1035 1550 1035 1550 1045 1604 c 256,28,29
 1055 1656 1055 1656 1025 1693.5 c 128,-1,30
 995 1731 995 1731 946 1731 c 0,31,32
 889 1731 889 1731 844.5 1693.5 c 128,-1,33
 800 1656 800 1656 790 1604 c 256,22,23
913 540 m 1,34,-1
 832 1134 l 1,35,-1
 509 540 l 1,36,-1
 913 540 l 1,34,-1
EndSplineSet
EndChar
StartChar: Ccedilla
Encoding: 199 199 100
Width: 1492
VWidth: 3555
Flags: W
HStem: -398 150<495.028 682.376> -28 28<656.451 790> 1234 273<782.9 1216.41>
Fore
1198 82 m 1,0,1
 967 -28 967 -28 719 -28 c 0,2,3
 533 -28 533 -28 394 25 c 128,-1,4
 255 78 255 78 170 178 c 128,-1,5
 85 278 85 278 56.5 420 c 128,-1,6
 28 562 28 562 64 740 c 0,7,8
 135 1095 135 1095 389.5 1301 c 128,-1,9
 644 1507 644 1507 1017 1507 c 0,10,11
 1266 1507 1266 1507 1455 1397 c 1,12,-1
 1394 1092 l 1,13,14
 1302 1167 1302 1167 1205.5 1200.5 c 128,-1,15
 1109 1234 1109 1234 995 1234 c 0,16,17
 793 1234 793 1234 649 1100.5 c 128,-1,18
 505 967 505 967 462 740 c 0,19,20
 417 512 417 512 509 378.5 c 128,-1,21
 601 245 601 245 804 245 c 0,22,23
 917 245 917 245 1025.5 278.5 c 128,-1,24
 1134 312 1134 312 1259 387 c 1,25,-1
 1198 82 l 1,0,1
790 0 m 1,26,27
 875 -128 875 -128 861 -214 c 0,28,29
 825 -398 825 -398 576 -398 c 0,30,31
 529 -398 529 -398 476.5 -391 c 128,-1,32
 424 -384 424 -384 380 -373 c 1,33,-1
 404 -220 l 1,34,35
 509 -248 509 -248 569 -248 c 0,36,37
 682 -248 682 -248 700 -167 c 0,38,39
 712 -118 712 -118 654 0 c 1,40,-1
 790 0 l 1,26,27
EndSplineSet
EndChar
StartChar: Eacute
Encoding: 201 201 101
Width: 1385
VWidth: 3555
Flags: W
HStem: 0 288<444 1059> 628 285<566 1123> 1194 289<621 1276>
Fore
1333 1483 m 1,0,-1
 1276 1194 l 1,1,-1
 621 1194 l 1,2,-1
 566 913 l 1,3,-1
 1177 913 l 1,4,-1
 1123 628 l 1,5,-1
 512 628 l 1,6,-1
 444 288 l 1,7,-1
 1113 288 l 1,8,-1
 1059 0 l 1,9,-1
 7 0 l 1,10,-1
 295 1483 l 1,11,-1
 1333 1483 l 1,0,-1
1205 1887 m 1,12,-1
 871 1621 l 1,13,-1
 675 1621 l 1,14,-1
 924 1887 l 1,15,-1
 1205 1887 l 1,12,-1
EndSplineSet
EndChar
StartChar: Ntilde
Encoding: 209 209 102
Width: 1697
VWidth: 3555
Flags: W
HStem: 0 21G<7 369.854 903.156 1343.88> 1463 20G<291.116 728.758 1262.07 1628> 1621 150<1053.45 1177.75> 1738 149<775.172 894.914>
Fore
722 1483 m 1,0,-1
 1066 465 l 1,1,-1
 1266 1483 l 1,2,-1
 1628 1483 l 1,3,-1
 1340 0 l 1,4,-1
 910 0 l 1,5,-1
 562 1017 l 1,6,-1
 366 0 l 1,7,-1
 7 0 l 1,8,-1
 295 1483 l 1,9,-1
 722 1483 l 1,0,-1
913 1703 m 2,10,11
 910 1706 910 1706 908 1706 c 128,-1,12
 906 1706 906 1706 903 1710 c 0,13,14
 858 1738 858 1738 838 1738 c 0,15,16
 807 1738 807 1738 780 1708.5 c 128,-1,17
 753 1679 753 1679 743 1625 c 1,18,-1
 743 1621 l 1,19,-1
 604 1621 l 1,20,-1
 611 1649 l 2,21,22
 628 1757 628 1757 696 1822 c 128,-1,23
 764 1887 764 1887 854 1887 c 0,24,25
 913 1887 913 1887 991 1838 c 2,26,-1
 1042 1798 l 2,27,28
 1082 1771 1082 1771 1109 1771 c 0,29,30
 1144 1771 1144 1771 1172.5 1801 c 128,-1,31
 1201 1831 1201 1831 1212 1887 c 1,32,-1
 1351 1887 l 1,33,34
 1347 1880 1347 1880 1343.5 1869.5 c 128,-1,35
 1340 1859 1340 1859 1340 1856 c 0,36,37
 1319 1753 1319 1753 1253 1687 c 128,-1,38
 1187 1621 1187 1621 1099 1621 c 0,39,40
 1059 1621 1059 1621 1025 1631.5 c 128,-1,41
 991 1642 991 1642 963 1672 c 1,42,-1
 913 1703 l 2,10,11
EndSplineSet
EndChar
StartChar: Odieresis
Encoding: 214 214 103
Width: 1727
VWidth: 3555
Flags: W
HStem: -28 273<563.312 916.788> 1234 273<742.379 1091.29> 1639 248<719 903 1109 1293>
Fore
929 1234 m 0,0,1
 746 1234 746 1234 627.5 1104 c 128,-1,2
 509 974 509 974 462 740 c 256,3,4
 417 505 417 505 485.5 375 c 128,-1,5
 554 245 554 245 736 245 c 0,6,7
 906 245 906 245 1029.5 375 c 128,-1,8
 1153 505 1153 505 1198 740 c 256,9,10
 1245 974 1245 974 1172 1104 c 128,-1,11
 1099 1234 1099 1234 929 1234 c 0,0,1
981 1507 m 256,12,13
 1344 1507 1344 1507 1502 1304.5 c 128,-1,14
 1660 1102 1660 1102 1588 740 c 256,15,16
 1517 377 1517 377 1281 174.5 c 128,-1,17
 1045 -28 1045 -28 682 -28 c 256,18,19
 319 -28 319 -28 156 174.5 c 128,-1,20
 -7 377 -7 377 64 740 c 256,21,22
 135 1102 135 1102 376.5 1304.5 c 128,-1,23
 618 1507 618 1507 981 1507 c 256,12,13
953 1887 m 1,24,-1
 903 1639 l 1,25,-1
 668 1639 l 1,26,-1
 719 1887 l 1,27,-1
 953 1887 l 1,24,-1
1344 1887 m 1,28,-1
 1293 1639 l 1,29,-1
 1059 1639 l 1,30,-1
 1109 1887 l 1,31,-1
 1344 1887 l 1,28,-1
EndSplineSet
EndChar
StartChar: Udieresis
Encoding: 220 220 104
Width: 1649
VWidth: 3555
Flags: W
HStem: -28 276<544.843 859.706> 1463 20G<291.108 679 1190.11 1575> 1639 248<675 861 1066 1252>
Fore
679 1483 m 1,0,-1
 505 594 l 2,1,2
 469 413 469 413 514 330.5 c 128,-1,3
 559 248 559 248 693 248 c 256,4,5
 828 248 828 248 906 330.5 c 128,-1,6
 984 413 984 413 1021 594 c 2,7,-1
 1194 1483 l 1,8,-1
 1575 1483 l 1,9,-1
 1401 594 l 2,10,11
 1340 281 1340 281 1155 126.5 c 128,-1,12
 970 -28 970 -28 641 -28 c 0,13,14
 0 -28 0 -28 122 594 c 2,15,-1
 295 1483 l 1,16,-1
 679 1483 l 1,0,-1
910 1887 m 1,17,-1
 861 1639 l 1,18,-1
 625 1639 l 1,19,-1
 675 1887 l 1,20,-1
 910 1887 l 1,17,-1
1302 1887 m 1,21,-1
 1252 1639 l 1,22,-1
 1017 1639 l 1,23,-1
 1066 1887 l 1,24,-1
 1302 1887 l 1,21,-1
EndSplineSet
EndChar
StartChar: aacute
Encoding: 225 225 105
Width: 1371
VWidth: 3555
Flags: W
HStem: 0 21<203 352.5 679 1038.82> 502 210<403.656 774> 899 238<493.914 780.38>
Fore
587 502 m 1,0,1
 366 502 366 502 339 352 c 0,2,3
 323 285 323 285 358.5 246 c 128,-1,4
 394 207 394 207 476 207 c 0,5,6
 580 207 580 207 663 279.5 c 128,-1,7
 746 352 746 352 767 462 c 2,8,-1
 774 502 l 1,9,-1
 587 502 l 1,0,1
1035 0 m 1,10,-1
 679 0 l 1,11,-1
 708 163 l 1,12,13
 615 64 615 64 516 18 c 128,-1,14
 417 -28 417 -28 288 -28 c 0,15,16
 118 -28 118 -28 28.5 73 c 128,-1,17
 -61 174 -61 174 -28 335 c 0,18,19
 10 529 10 529 161 620.5 c 128,-1,20
 312 712 312 712 601 712 c 2,21,-1
 814 712 l 1,22,-1
 821 740 l 2,23,24
 838 825 838 825 778.5 862 c 128,-1,25
 719 899 719 899 576 899 c 0,26,27
 462 899 462 899 361 880 c 128,-1,28
 260 861 260 861 163 811 c 1,29,-1
 217 1085 l 1,30,31
 339 1109 339 1109 456 1123 c 128,-1,32
 573 1137 573 1137 686 1137 c 0,33,34
 988 1137 988 1137 1098 1018 c 128,-1,35
 1208 899 1208 899 1156 634 c 2,36,-1
 1035 0 l 1,10,-1
1245 1625 m 1,37,-1
 807 1252 l 1,38,-1
 611 1252 l 1,39,-1
 963 1625 l 1,40,-1
 1245 1625 l 1,37,-1
EndSplineSet
EndChar
StartChar: agrave
Encoding: 224 224 106
Width: 1371
VWidth: 3555
Flags: W
HStem: 0 21<203 352.5 679 1038.82> 502 210<403.656 774> 899 238<493.914 780.38>
Fore
587 502 m 1,0,1
 366 502 366 502 339 352 c 0,2,3
 323 285 323 285 358.5 246 c 128,-1,4
 394 207 394 207 476 207 c 0,5,6
 580 207 580 207 663 279.5 c 128,-1,7
 746 352 746 352 767 462 c 2,8,-1
 774 502 l 1,9,-1
 587 502 l 1,0,1
1035 0 m 1,10,-1
 679 0 l 1,11,-1
 708 163 l 1,12,13
 615 64 615 64 516 18 c 128,-1,14
 417 -28 417 -28 288 -28 c 0,15,16
 118 -28 118 -28 28.5 73 c 128,-1,17
 -61 174 -61 174 -28 335 c 0,18,19
 10 529 10 529 161 620.5 c 128,-1,20
 312 712 312 712 601 712 c 2,21,-1
 814 712 l 1,22,-1
 821 740 l 2,23,24
 838 825 838 825 778.5 862 c 128,-1,25
 719 899 719 899 576 899 c 0,26,27
 462 899 462 899 361 880 c 128,-1,28
 260 861 260 861 163 811 c 1,29,-1
 217 1085 l 1,30,31
 339 1109 339 1109 456 1123 c 128,-1,32
 573 1137 573 1137 686 1137 c 0,33,34
 988 1137 988 1137 1098 1018 c 128,-1,35
 1208 899 1208 899 1156 634 c 2,36,-1
 1035 0 l 1,10,-1
903 1252 m 1,37,-1
 712 1252 l 1,38,-1
 413 1625 l 1,39,-1
 693 1625 l 1,40,-1
 903 1252 l 1,37,-1
EndSplineSet
EndChar
StartChar: acircumflex
Encoding: 226 226 107
Width: 1371
VWidth: 3555
Flags: W
HStem: 0 21<203 352.5 679 1038.82> 502 210<403.656 774> 899 238<493.914 780.38>
Fore
587 502 m 1,0,1
 366 502 366 502 339 352 c 0,2,3
 323 285 323 285 358.5 246 c 128,-1,4
 394 207 394 207 476 207 c 0,5,6
 580 207 580 207 663 279.5 c 128,-1,7
 746 352 746 352 767 462 c 2,8,-1
 774 502 l 1,9,-1
 587 502 l 1,0,1
1035 0 m 1,10,-1
 679 0 l 1,11,-1
 708 163 l 1,12,13
 615 64 615 64 516 18 c 128,-1,14
 417 -28 417 -28 288 -28 c 0,15,16
 118 -28 118 -28 28.5 73 c 128,-1,17
 -61 174 -61 174 -28 335 c 0,18,19
 10 529 10 529 161 620.5 c 128,-1,20
 312 712 312 712 601 712 c 2,21,-1
 814 712 l 1,22,-1
 821 740 l 2,23,24
 838 825 838 825 778.5 862 c 128,-1,25
 719 899 719 899 576 899 c 0,26,27
 462 899 462 899 361 880 c 128,-1,28
 260 861 260 861 163 811 c 1,29,-1
 217 1085 l 1,30,31
 339 1109 339 1109 456 1123 c 128,-1,32
 573 1137 573 1137 686 1137 c 0,33,34
 988 1137 988 1137 1098 1018 c 128,-1,35
 1208 899 1208 899 1156 634 c 2,36,-1
 1035 0 l 1,10,-1
950 1625 m 1,37,-1
 1130 1252 l 1,38,-1
 957 1252 l 1,39,-1
 804 1476 l 1,40,-1
 559 1252 l 1,41,-1
 384 1252 l 1,42,-1
 708 1625 l 1,43,-1
 950 1625 l 1,37,-1
EndSplineSet
EndChar
StartChar: adieresis
Encoding: 228 228 108
Width: 1371
VWidth: 3555
Flags: W
HStem: 0 21<203 352.5 679 1038.82> 502 210<403.656 774> 899 238<493.914 780.38> 1326 249<509 693 899 1085>
Fore
587 502 m 1,0,1
 366 502 366 502 339 352 c 0,2,3
 323 285 323 285 358.5 246 c 128,-1,4
 394 207 394 207 476 207 c 0,5,6
 580 207 580 207 663 279.5 c 128,-1,7
 746 352 746 352 767 462 c 2,8,-1
 774 502 l 1,9,-1
 587 502 l 1,0,1
1035 0 m 1,10,-1
 679 0 l 1,11,-1
 708 163 l 1,12,13
 615 64 615 64 516 18 c 128,-1,14
 417 -28 417 -28 288 -28 c 0,15,16
 118 -28 118 -28 28.5 73 c 128,-1,17
 -61 174 -61 174 -28 335 c 0,18,19
 10 529 10 529 161 620.5 c 128,-1,20
 312 712 312 712 601 712 c 2,21,-1
 814 712 l 1,22,-1
 821 740 l 2,23,24
 838 825 838 825 778.5 862 c 128,-1,25
 719 899 719 899 576 899 c 0,26,27
 462 899 462 899 361 880 c 128,-1,28
 260 861 260 861 163 811 c 1,29,-1
 217 1085 l 1,30,31
 339 1109 339 1109 456 1123 c 128,-1,32
 573 1137 573 1137 686 1137 c 0,33,34
 988 1137 988 1137 1098 1018 c 128,-1,35
 1208 899 1208 899 1156 634 c 2,36,-1
 1035 0 l 1,10,-1
743 1575 m 1,37,-1
 693 1326 l 1,38,-1
 458 1326 l 1,39,-1
 509 1575 l 1,40,-1
 743 1575 l 1,37,-1
1134 1575 m 1,41,-1
 1085 1326 l 1,42,-1
 849 1326 l 1,43,-1
 899 1575 l 1,44,-1
 1134 1575 l 1,41,-1
EndSplineSet
EndChar
StartChar: atilde
Encoding: 227 227 109
Width: 1371
VWidth: 3555
Flags: W
HStem: 0 21<203 352.5 679 1038.82> 502 210<403.656 774> 899 238<493.914 780.38> 1299 156<854.789 996.926> 1425 156<588.458 712.604>
Fore
587 502 m 1,0,1
 366 502 366 502 339 352 c 0,2,3
 323 285 323 285 358.5 246 c 128,-1,4
 394 207 394 207 476 207 c 0,5,6
 580 207 580 207 663 279.5 c 128,-1,7
 746 352 746 352 767 462 c 2,8,-1
 774 502 l 1,9,-1
 587 502 l 1,0,1
1035 0 m 1,10,-1
 679 0 l 1,11,-1
 708 163 l 1,12,13
 615 64 615 64 516 18 c 128,-1,14
 417 -28 417 -28 288 -28 c 0,15,16
 118 -28 118 -28 28.5 73 c 128,-1,17
 -61 174 -61 174 -28 335 c 0,18,19
 10 529 10 529 161 620.5 c 128,-1,20
 312 712 312 712 601 712 c 2,21,-1
 814 712 l 1,22,-1
 821 740 l 2,23,24
 838 825 838 825 778.5 862 c 128,-1,25
 719 899 719 899 576 899 c 0,26,27
 462 899 462 899 361 880 c 128,-1,28
 260 861 260 861 163 811 c 1,29,-1
 217 1085 l 1,30,31
 339 1109 339 1109 456 1123 c 128,-1,32
 573 1137 573 1137 686 1137 c 0,33,34
 988 1137 988 1137 1098 1018 c 128,-1,35
 1208 899 1208 899 1156 634 c 2,36,-1
 1035 0 l 1,10,-1
733 1391 m 1,37,-1
 726 1397 l 1,38,39
 679 1425 679 1425 654 1425 c 0,40,41
 587 1425 587 1425 562 1309 c 1,42,-1
 562 1302 l 1,43,-1
 424 1302 l 1,44,45
 448 1432 448 1432 514 1506.5 c 128,-1,46
 580 1581 580 1581 672 1581 c 0,47,48
 729 1581 729 1581 811 1529 c 1,49,-1
 861 1483 l 2,50,51
 899 1455 899 1455 929 1455 c 0,52,53
 963 1455 963 1455 992 1486 c 128,-1,54
 1021 1517 1021 1517 1028 1571 c 1,55,-1
 1031 1578 l 1,56,-1
 1170 1578 l 1,57,58
 1141 1448 1141 1448 1074 1373.5 c 128,-1,59
 1007 1299 1007 1299 913 1299 c 0,60,61
 875 1299 875 1299 846.5 1309 c 128,-1,62
 818 1319 818 1319 779 1351 c 2,63,-1
 733 1391 l 1,37,-1
EndSplineSet
EndChar
StartChar: aring
Encoding: 229 229 110
Width: 1371
VWidth: 3555
Flags: W
HStem: 0 21<203 352.5 679 1038.82> 502 210<403.656 774> 899 238<493.914 780.38> 1238 156<700.207 848.176> 1649 153<771.863 923.225>
Fore
587 502 m 1,0,1
 366 502 366 502 339 352 c 0,2,3
 323 285 323 285 358.5 246 c 128,-1,4
 394 207 394 207 476 207 c 0,5,6
 580 207 580 207 663 279.5 c 128,-1,7
 746 352 746 352 767 462 c 2,8,-1
 774 502 l 1,9,-1
 587 502 l 1,0,1
1035 0 m 1,10,-1
 679 0 l 1,11,-1
 708 163 l 1,12,13
 615 64 615 64 516 18 c 128,-1,14
 417 -28 417 -28 288 -28 c 0,15,16
 118 -28 118 -28 28.5 73 c 128,-1,17
 -61 174 -61 174 -28 335 c 0,18,19
 10 529 10 529 161 620.5 c 128,-1,20
 312 712 312 712 601 712 c 2,21,-1
 814 712 l 1,22,-1
 821 740 l 2,23,24
 838 825 838 825 778.5 862 c 128,-1,25
 719 899 719 899 576 899 c 0,26,27
 462 899 462 899 361 880 c 128,-1,28
 260 861 260 861 163 811 c 1,29,-1
 217 1085 l 1,30,31
 339 1109 339 1109 456 1123 c 128,-1,32
 573 1137 573 1137 686 1137 c 0,33,34
 988 1137 988 1137 1098 1018 c 128,-1,35
 1208 899 1208 899 1156 634 c 2,36,-1
 1035 0 l 1,10,-1
682 1526 m 0,37,38
 672 1469 672 1469 702.5 1431.5 c 128,-1,39
 733 1394 733 1394 790 1394 c 0,40,41
 838 1394 838 1394 885 1431.5 c 128,-1,42
 932 1469 932 1469 943 1526 c 0,43,44
 953 1575 953 1575 921 1612 c 128,-1,45
 889 1649 889 1649 838 1649 c 0,46,47
 783 1649 783 1649 738 1612 c 128,-1,48
 693 1575 693 1575 682 1526 c 0,37,38
526 1526 m 0,49,50
 536 1581 536 1581 568.5 1633.5 c 128,-1,51
 601 1686 601 1686 647 1723 c 128,-1,52
 693 1760 693 1760 750 1781 c 128,-1,53
 807 1802 807 1802 868 1802 c 0,54,55
 920 1802 920 1802 967 1781 c 128,-1,56
 1014 1760 1014 1760 1046 1723 c 128,-1,57
 1078 1686 1078 1686 1092 1633.5 c 128,-1,58
 1106 1581 1106 1581 1095 1526 c 0,59,60
 1085 1465 1085 1465 1051 1413 c 128,-1,61
 1017 1361 1017 1361 968.5 1322 c 128,-1,62
 920 1283 920 1283 865.5 1260.5 c 128,-1,63
 811 1238 811 1238 757 1238 c 0,64,65
 637 1238 637 1238 569.5 1321 c 128,-1,66
 502 1404 502 1404 526 1526 c 0,49,50
EndSplineSet
EndChar
StartChar: ccedilla
Encoding: 231 231 111
Width: 1204
VWidth: 3555
Flags: W
HStem: -398 150<303.342 490.993> -28 28<470.023 597> 882 255<572.426 939.407>
Fore
1042 790 m 1,0,1
 981 838 981 838 913 860 c 128,-1,2
 845 882 845 882 764 882 c 0,3,4
 611 882 611 882 514 798.5 c 128,-1,5
 417 715 417 715 387 554 c 0,6,7
 356 394 356 394 420 309 c 128,-1,8
 484 224 484 224 637 224 c 0,9,10
 804 224 804 224 950 319 c 1,11,-1
 892 31 l 1,12,13
 804 0 804 0 716 -14 c 128,-1,14
 628 -28 628 -28 543 -28 c 0,15,16
 241 -28 241 -28 100.5 125 c 128,-1,17
 -40 278 -40 278 14 554 c 256,18,19
 68 832 68 832 268.5 984.5 c 128,-1,20
 469 1137 469 1137 771 1137 c 0,21,22
 950 1137 950 1137 1099 1082 c 1,23,-1
 1042 790 l 1,0,1
597 0 m 1,24,25
 682 -128 682 -128 668 -214 c 0,26,27
 634 -398 634 -398 384 -398 c 0,28,29
 339 -398 339 -398 285 -391 c 128,-1,30
 231 -384 231 -384 189 -373 c 1,31,-1
 214 -220 l 1,32,33
 316 -248 316 -248 377 -248 c 0,34,35
 491 -248 491 -248 509 -167 c 0,36,37
 519 -118 519 -118 462 0 c 1,38,-1
 597 0 l 1,24,25
EndSplineSet
EndChar
StartChar: eacute
Encoding: 233 233 112
Width: 1378
VWidth: 3555
Flags: W
HStem: -28 235<432.306 761.927> 458 217<404 865> 899 238<534.88 825.922>
Fore
1191 458 m 1,0,-1
 363 458 l 1,1,2
 330 207 330 207 618 207 c 0,3,4
 733 207 733 207 855 240.5 c 128,-1,5
 977 274 977 274 1116 342 c 1,6,-1
 1062 68 l 1,7,8
 929 17 929 17 798.5 -5.5 c 128,-1,9
 668 -28 668 -28 540 -28 c 0,10,11
 238 -28 238 -28 99 125 c 128,-1,12
 -40 278 -40 278 14 554 c 256,13,14
 68 832 68 832 263 984.5 c 128,-1,15
 458 1137 458 1137 746 1137 c 0,16,17
 1007 1137 1007 1137 1133 981 c 128,-1,18
 1259 825 1259 825 1208 559 c 2,19,-1
 1191 458 l 1,0,-1
865 675 m 1,20,21
 885 779 885 779 841 839 c 128,-1,22
 797 899 797 899 700 899 c 0,23,24
 479 899 479 899 404 675 c 1,25,-1
 865 675 l 1,20,21
1272 1625 m 1,26,-1
 835 1252 l 1,27,-1
 641 1252 l 1,28,-1
 991 1625 l 1,29,-1
 1272 1625 l 1,26,-1
EndSplineSet
EndChar
StartChar: egrave
Encoding: 232 232 113
Width: 1378
VWidth: 3555
Flags: W
HStem: -28 235<432.306 761.927> 458 217<404 865> 899 238<534.88 825.922>
Fore
1191 458 m 1,0,-1
 363 458 l 1,1,2
 330 207 330 207 618 207 c 0,3,4
 733 207 733 207 855 240.5 c 128,-1,5
 977 274 977 274 1116 342 c 1,6,-1
 1062 68 l 1,7,8
 929 17 929 17 798.5 -5.5 c 128,-1,9
 668 -28 668 -28 540 -28 c 0,10,11
 238 -28 238 -28 99 125 c 128,-1,12
 -40 278 -40 278 14 554 c 256,13,14
 68 832 68 832 263 984.5 c 128,-1,15
 458 1137 458 1137 746 1137 c 0,16,17
 1007 1137 1007 1137 1133 981 c 128,-1,18
 1259 825 1259 825 1208 559 c 2,19,-1
 1191 458 l 1,0,-1
865 675 m 1,20,21
 885 779 885 779 841 839 c 128,-1,22
 797 899 797 899 700 899 c 0,23,24
 479 899 479 899 404 675 c 1,25,-1
 865 675 l 1,20,21
932 1252 m 1,26,-1
 740 1252 l 1,27,-1
 441 1625 l 1,28,-1
 722 1625 l 1,29,-1
 932 1252 l 1,26,-1
EndSplineSet
EndChar
StartChar: ecircumflex
Encoding: 234 234 114
Width: 1378
VWidth: 3555
Flags: W
HStem: -28 235<432.306 761.927> 458 217<404 865> 899 238<534.88 825.922>
Fore
1191 458 m 1,0,-1
 363 458 l 1,1,2
 330 207 330 207 618 207 c 0,3,4
 733 207 733 207 855 240.5 c 128,-1,5
 977 274 977 274 1116 342 c 1,6,-1
 1062 68 l 1,7,8
 929 17 929 17 798.5 -5.5 c 128,-1,9
 668 -28 668 -28 540 -28 c 0,10,11
 238 -28 238 -28 99 125 c 128,-1,12
 -40 278 -40 278 14 554 c 256,13,14
 68 832 68 832 263 984.5 c 128,-1,15
 458 1137 458 1137 746 1137 c 0,16,17
 1007 1137 1007 1137 1133 981 c 128,-1,18
 1259 825 1259 825 1208 559 c 2,19,-1
 1191 458 l 1,0,-1
865 675 m 1,20,21
 885 779 885 779 841 839 c 128,-1,22
 797 899 797 899 700 899 c 0,23,24
 479 899 479 899 404 675 c 1,25,-1
 865 675 l 1,20,21
977 1625 m 1,26,-1
 1160 1252 l 1,27,-1
 984 1252 l 1,28,-1
 832 1476 l 1,29,-1
 587 1252 l 1,30,-1
 413 1252 l 1,31,-1
 736 1625 l 1,32,-1
 977 1625 l 1,26,-1
EndSplineSet
EndChar
StartChar: edieresis
Encoding: 235 235 115
Width: 1378
VWidth: 3555
Flags: W
HStem: -28 235<432.306 761.927> 458 217<404 865> 899 238<534.88 825.922> 1326 249<536 722 929 1113>
Fore
1191 458 m 1,0,-1
 363 458 l 1,1,2
 330 207 330 207 618 207 c 0,3,4
 733 207 733 207 855 240.5 c 128,-1,5
 977 274 977 274 1116 342 c 1,6,-1
 1062 68 l 1,7,8
 929 17 929 17 798.5 -5.5 c 128,-1,9
 668 -28 668 -28 540 -28 c 0,10,11
 238 -28 238 -28 99 125 c 128,-1,12
 -40 278 -40 278 14 554 c 256,13,14
 68 832 68 832 263 984.5 c 128,-1,15
 458 1137 458 1137 746 1137 c 0,16,17
 1007 1137 1007 1137 1133 981 c 128,-1,18
 1259 825 1259 825 1208 559 c 2,19,-1
 1191 458 l 1,0,-1
865 675 m 1,20,21
 885 779 885 779 841 839 c 128,-1,22
 797 899 797 899 700 899 c 0,23,24
 479 899 479 899 404 675 c 1,25,-1
 865 675 l 1,20,21
771 1575 m 1,26,-1
 722 1326 l 1,27,-1
 488 1326 l 1,28,-1
 536 1575 l 1,29,-1
 771 1575 l 1,26,-1
1163 1575 m 1,30,-1
 1113 1326 l 1,31,-1
 878 1326 l 1,32,-1
 929 1575 l 1,33,-1
 1163 1575 l 1,30,-1
EndSplineSet
EndChar
StartChar: iacute
Encoding: 237 237 116
Width: 692
VWidth: 3555
Flags: W
HStem: 0 21G<-7 355.845> 1093 20G<203.155 566>
VStem: -7 943<0 1625>
Fore
566 1113 m 1,0,-1
 352 0 l 1,1,-1
 -7 0 l 1,2,-1
 207 1113 l 1,3,-1
 566 1113 l 1,0,-1
936 1625 m 1,4,-1
 498 1252 l 1,5,-1
 302 1252 l 1,6,-1
 654 1625 l 1,7,-1
 936 1625 l 1,4,-1
EndSplineSet
EndChar
StartChar: igrave
Encoding: 236 236 117
Width: 692
VWidth: 3555
Flags: W
HStem: 0 21G<-7 355.845> 1093 20G<203.155 566>
VStem: -7 601<0 1252>
Fore
566 1113 m 1,0,-1
 352 0 l 1,1,-1
 -7 0 l 1,2,-1
 207 1113 l 1,3,-1
 566 1113 l 1,0,-1
594 1252 m 1,4,-1
 401 1252 l 1,5,-1
 102 1625 l 1,6,-1
 384 1625 l 1,7,-1
 594 1252 l 1,4,-1
EndSplineSet
EndChar
StartChar: icircumflex
Encoding: 238 238 118
Width: 692
VWidth: 3555
Flags: W
HStem: 0 21G<-7 355.845> 1093 20G<203.155 566>
VStem: -7 828<0 1252>
Fore
566 1113 m 1,0,-1
 352 0 l 1,1,-1
 -7 0 l 1,2,-1
 207 1113 l 1,3,-1
 566 1113 l 1,0,-1
641 1625 m 1,4,-1
 821 1252 l 1,5,-1
 648 1252 l 1,6,-1
 495 1476 l 1,7,-1
 248 1252 l 1,8,-1
 75 1252 l 1,9,-1
 398 1625 l 1,10,-1
 641 1625 l 1,4,-1
EndSplineSet
EndChar
StartChar: idieresis
Encoding: 239 239 119
Width: 692
VWidth: 3555
Flags: W
HStem: 0 21G<-7 355.845> 1093 20G<203.155 566> 1326 249<200 384 590 774>
VStem: -7 832<0 1575>
Fore
566 1113 m 1,0,-1
 352 0 l 1,1,-1
 -7 0 l 1,2,-1
 207 1113 l 1,3,-1
 566 1113 l 1,0,-1
434 1575 m 1,4,-1
 384 1326 l 1,5,-1
 149 1326 l 1,6,-1
 200 1575 l 1,7,-1
 434 1575 l 1,4,-1
825 1575 m 1,8,-1
 774 1326 l 1,9,-1
 540 1326 l 1,10,-1
 590 1575 l 1,11,-1
 825 1575 l 1,8,-1
EndSplineSet
EndChar
StartChar: ntilde
Encoding: 241 241 120
Width: 1449
VWidth: 3555
Flags: W
HStem: 0 21G<-7 355.794 753 1112.82> 871 266<733.335 1034.5> 1299 156<907.578 1049.74> 1425 156<641.034 766.502>
Fore
1109 0 m 1,0,-1
 753 0 l 1,1,-1
 774 115 l 1,2,-1
 854 519 l 2,3,4
 868 590 868 590 875 636 c 128,-1,5
 882 682 882 682 883.5 714 c 128,-1,6
 885 746 885 746 883.5 766 c 128,-1,7
 882 786 882 786 875 800 c 0,8,9
 849 871 849 871 753 871 c 0,10,11
 644 871 644 871 564 783.5 c 128,-1,12
 484 696 484 696 455 543 c 2,13,-1
 352 0 l 1,14,-1
 -7 0 l 1,15,-1
 207 1113 l 1,16,-1
 566 1113 l 1,17,-1
 533 950 l 1,18,19
 719 1137 719 1137 939 1137 c 0,20,21
 1130 1137 1130 1137 1206.5 1018 c 128,-1,22
 1283 899 1283 899 1238 675 c 2,23,-1
 1109 0 l 1,0,-1
786 1391 m 1,24,-1
 779 1397 l 1,25,26
 733 1425 733 1425 708 1425 c 0,27,28
 641 1425 641 1425 615 1309 c 1,29,-1
 615 1302 l 1,30,-1
 476 1302 l 1,31,32
 502 1432 502 1432 568 1506.5 c 128,-1,33
 634 1581 634 1581 726 1581 c 0,34,35
 783 1581 783 1581 865 1529 c 1,36,-1
 913 1483 l 2,37,38
 953 1455 953 1455 981 1455 c 0,39,40
 1017 1455 1017 1455 1045 1486 c 128,-1,41
 1073 1517 1073 1517 1082 1571 c 1,42,-1
 1085 1578 l 1,43,-1
 1224 1578 l 1,44,45
 1194 1448 1194 1448 1126.5 1373.5 c 128,-1,46
 1059 1299 1059 1299 967 1299 c 0,47,48
 929 1299 929 1299 900 1309 c 128,-1,49
 871 1319 871 1319 832 1351 c 2,50,-1
 786 1391 l 1,24,-1
EndSplineSet
EndChar
StartChar: oacute
Encoding: 243 243 121
Width: 1395
VWidth: 3555
Flags: W
HStem: -28 252<432.344 709.315> 882 255<537.995 820.26>
Fore
689 882 m 0,0,1
 448 882 448 882 387 554 c 0,2,3
 356 394 356 394 400 309 c 128,-1,4
 444 224 444 224 562 224 c 0,5,6
 682 224 682 224 758.5 309 c 128,-1,7
 835 394 835 394 868 554 c 0,8,9
 929 882 929 882 689 882 c 0,0,1
740 1137 m 256,10,11
 1028 1137 1028 1137 1159 984.5 c 128,-1,12
 1290 832 1290 832 1238 554 c 256,13,14
 1184 278 1184 278 992 125 c 128,-1,15
 800 -28 800 -28 512 -28 c 256,16,17
 224 -28 224 -28 92 125 c 128,-1,18
 -40 278 -40 278 14 554 c 256,19,20
 68 832 68 832 259.5 984.5 c 128,-1,21
 451 1137 451 1137 740 1137 c 256,10,11
1272 1625 m 1,22,-1
 835 1252 l 1,23,-1
 641 1252 l 1,24,-1
 991 1625 l 1,25,-1
 1272 1625 l 1,22,-1
EndSplineSet
EndChar
StartChar: ograve
Encoding: 242 242 122
Width: 1395
VWidth: 3555
Flags: W
HStem: -28 252<432.344 709.315> 882 255<537.995 820.26>
Fore
689 882 m 0,0,1
 448 882 448 882 387 554 c 0,2,3
 356 394 356 394 400 309 c 128,-1,4
 444 224 444 224 562 224 c 0,5,6
 682 224 682 224 758.5 309 c 128,-1,7
 835 394 835 394 868 554 c 0,8,9
 929 882 929 882 689 882 c 0,0,1
740 1137 m 256,10,11
 1028 1137 1028 1137 1159 984.5 c 128,-1,12
 1290 832 1290 832 1238 554 c 256,13,14
 1184 278 1184 278 992 125 c 128,-1,15
 800 -28 800 -28 512 -28 c 256,16,17
 224 -28 224 -28 92 125 c 128,-1,18
 -40 278 -40 278 14 554 c 256,19,20
 68 832 68 832 259.5 984.5 c 128,-1,21
 451 1137 451 1137 740 1137 c 256,10,11
932 1252 m 1,22,-1
 740 1252 l 1,23,-1
 441 1625 l 1,24,-1
 722 1625 l 1,25,-1
 932 1252 l 1,22,-1
EndSplineSet
EndChar
StartChar: ocircumflex
Encoding: 244 244 123
Width: 1395
VWidth: 3555
Flags: W
HStem: -28 252<432.344 709.315> 882 255<537.995 820.26>
Fore
689 882 m 0,0,1
 448 882 448 882 387 554 c 0,2,3
 356 394 356 394 400 309 c 128,-1,4
 444 224 444 224 562 224 c 0,5,6
 682 224 682 224 758.5 309 c 128,-1,7
 835 394 835 394 868 554 c 0,8,9
 929 882 929 882 689 882 c 0,0,1
740 1137 m 256,10,11
 1028 1137 1028 1137 1159 984.5 c 128,-1,12
 1290 832 1290 832 1238 554 c 256,13,14
 1184 278 1184 278 992 125 c 128,-1,15
 800 -28 800 -28 512 -28 c 256,16,17
 224 -28 224 -28 92 125 c 128,-1,18
 -40 278 -40 278 14 554 c 256,19,20
 68 832 68 832 259.5 984.5 c 128,-1,21
 451 1137 451 1137 740 1137 c 256,10,11
977 1625 m 1,22,-1
 1160 1252 l 1,23,-1
 984 1252 l 1,24,-1
 832 1476 l 1,25,-1
 587 1252 l 1,26,-1
 413 1252 l 1,27,-1
 736 1625 l 1,28,-1
 977 1625 l 1,22,-1
EndSplineSet
EndChar
StartChar: odieresis
Encoding: 246 246 124
Width: 1395
VWidth: 3555
Flags: W
HStem: -28 252<432.344 709.315> 882 255<537.995 820.26> 1326 249<536 722 929 1113>
Fore
689 882 m 0,0,1
 448 882 448 882 387 554 c 0,2,3
 356 394 356 394 400 309 c 128,-1,4
 444 224 444 224 562 224 c 0,5,6
 682 224 682 224 758.5 309 c 128,-1,7
 835 394 835 394 868 554 c 0,8,9
 929 882 929 882 689 882 c 0,0,1
740 1137 m 256,10,11
 1028 1137 1028 1137 1159 984.5 c 128,-1,12
 1290 832 1290 832 1238 554 c 256,13,14
 1184 278 1184 278 992 125 c 128,-1,15
 800 -28 800 -28 512 -28 c 256,16,17
 224 -28 224 -28 92 125 c 128,-1,18
 -40 278 -40 278 14 554 c 256,19,20
 68 832 68 832 259.5 984.5 c 128,-1,21
 451 1137 451 1137 740 1137 c 256,10,11
771 1575 m 1,22,-1
 722 1326 l 1,23,-1
 488 1326 l 1,24,-1
 536 1575 l 1,25,-1
 771 1575 l 1,22,-1
1163 1575 m 1,26,-1
 1113 1326 l 1,27,-1
 878 1326 l 1,28,-1
 929 1575 l 1,29,-1
 1163 1575 l 1,26,-1
EndSplineSet
EndChar
StartChar: otilde
Encoding: 245 245 125
Width: 1395
VWidth: 3555
Flags: W
HStem: -28 252<432.344 709.315> 882 255<537.995 820.26> 1299 156<882.578 1023.98> 1425 156<616.458 740.591>
Fore
689 882 m 0,0,1
 448 882 448 882 387 554 c 0,2,3
 356 394 356 394 400 309 c 128,-1,4
 444 224 444 224 562 224 c 0,5,6
 682 224 682 224 758.5 309 c 128,-1,7
 835 394 835 394 868 554 c 0,8,9
 929 882 929 882 689 882 c 0,0,1
740 1137 m 256,10,11
 1028 1137 1028 1137 1159 984.5 c 128,-1,12
 1290 832 1290 832 1238 554 c 256,13,14
 1184 278 1184 278 992 125 c 128,-1,15
 800 -28 800 -28 512 -28 c 256,16,17
 224 -28 224 -28 92 125 c 128,-1,18
 -40 278 -40 278 14 554 c 256,19,20
 68 832 68 832 259.5 984.5 c 128,-1,21
 451 1137 451 1137 740 1137 c 256,10,11
760 1391 m 1,22,-1
 753 1397 l 1,23,24
 708 1425 708 1425 682 1425 c 0,25,26
 615 1425 615 1425 590 1309 c 1,27,-1
 590 1302 l 1,28,-1
 451 1302 l 1,29,30
 476 1432 476 1432 542 1506.5 c 128,-1,31
 608 1581 608 1581 700 1581 c 0,32,33
 757 1581 757 1581 838 1529 c 1,34,-1
 889 1483 l 2,35,36
 929 1455 929 1455 957 1455 c 0,37,38
 991 1455 991 1455 1020 1486 c 128,-1,39
 1049 1517 1049 1517 1055 1571 c 1,40,-1
 1059 1578 l 1,41,-1
 1198 1578 l 1,42,43
 1170 1448 1170 1448 1102.5 1373.5 c 128,-1,44
 1035 1299 1035 1299 943 1299 c 0,45,46
 903 1299 903 1299 874 1309 c 128,-1,47
 845 1319 845 1319 807 1351 c 2,48,-1
 760 1391 l 1,22,-1
EndSplineSet
EndChar
StartChar: uacute
Encoding: 250 250 126
Width: 1449
VWidth: 3555
Flags: W
HStem: -28 266<270 567.706> 1093 20G<192.112 554 949.08 1309>
Fore
196 1113 m 1,0,-1
 554 1113 l 1,1,-1
 533 1003 l 2,2,3
 526 953 526 953 515.5 895.5 c 128,-1,4
 505 838 505 838 488 771 c 2,5,-1
 451 590 l 2,6,7
 424 458 424 458 420.5 400 c 128,-1,8
 417 342 417 342 420 309 c 1,9,10
 462 238 462 238 550 238 c 0,11,12
 665 238 665 238 741.5 325.5 c 128,-1,13
 818 413 818 413 845 562 c 2,14,-1
 953 1113 l 1,15,-1
 1309 1113 l 1,16,-1
 1095 0 l 1,17,-1
 740 0 l 1,18,-1
 767 160 l 1,19,20
 583 -28 583 -28 363 -28 c 0,21,22
 177 -28 177 -28 99 89.5 c 128,-1,23
 21 207 21 207 64 434 c 2,24,-1
 196 1113 l 1,0,-1
1299 1625 m 1,25,-1
 861 1252 l 1,26,-1
 665 1252 l 1,27,-1
 1017 1625 l 1,28,-1
 1299 1625 l 1,25,-1
EndSplineSet
EndChar
StartChar: ugrave
Encoding: 249 249 127
Width: 1449
VWidth: 3555
Flags: W
HStem: -28 266<270 567.706> 1093 20G<192.112 554 949.08 1309>
Fore
196 1113 m 1,0,-1
 554 1113 l 1,1,-1
 533 1003 l 2,2,3
 526 953 526 953 515.5 895.5 c 128,-1,4
 505 838 505 838 488 771 c 2,5,-1
 451 590 l 2,6,7
 424 458 424 458 420.5 400 c 128,-1,8
 417 342 417 342 420 309 c 1,9,10
 462 238 462 238 550 238 c 0,11,12
 665 238 665 238 741.5 325.5 c 128,-1,13
 818 413 818 413 845 562 c 2,14,-1
 953 1113 l 1,15,-1
 1309 1113 l 1,16,-1
 1095 0 l 1,17,-1
 740 0 l 1,18,-1
 767 160 l 1,19,20
 583 -28 583 -28 363 -28 c 0,21,22
 177 -28 177 -28 99 89.5 c 128,-1,23
 21 207 21 207 64 434 c 2,24,-1
 196 1113 l 1,0,-1
957 1252 m 1,25,-1
 764 1252 l 1,26,-1
 465 1625 l 1,27,-1
 746 1625 l 1,28,-1
 957 1252 l 1,25,-1
EndSplineSet
EndChar
StartChar: ucircumflex
Encoding: 251 251 128
Width: 1449
VWidth: 3555
Flags: W
HStem: -28 266<270 567.706> 1093 20G<192.112 554 949.08 1309>
Fore
196 1113 m 1,0,-1
 554 1113 l 1,1,-1
 533 1003 l 2,2,3
 526 953 526 953 515.5 895.5 c 128,-1,4
 505 838 505 838 488 771 c 2,5,-1
 451 590 l 2,6,7
 424 458 424 458 420.5 400 c 128,-1,8
 417 342 417 342 420 309 c 1,9,10
 462 238 462 238 550 238 c 0,11,12
 665 238 665 238 741.5 325.5 c 128,-1,13
 818 413 818 413 845 562 c 2,14,-1
 953 1113 l 1,15,-1
 1309 1113 l 1,16,-1
 1095 0 l 1,17,-1
 740 0 l 1,18,-1
 767 160 l 1,19,20
 583 -28 583 -28 363 -28 c 0,21,22
 177 -28 177 -28 99 89.5 c 128,-1,23
 21 207 21 207 64 434 c 2,24,-1
 196 1113 l 1,0,-1
1003 1625 m 1,25,-1
 1184 1252 l 1,26,-1
 1010 1252 l 1,27,-1
 858 1476 l 1,28,-1
 611 1252 l 1,29,-1
 437 1252 l 1,30,-1
 760 1625 l 1,31,-1
 1003 1625 l 1,25,-1
EndSplineSet
EndChar
StartChar: udieresis
Encoding: 252 252 129
Width: 1449
VWidth: 3555
Flags: W
HStem: -28 266<270 567.706> 1093 20G<192.112 554 949.08 1309> 1326 249<562 746 953 1137>
Fore
196 1113 m 1,0,-1
 554 1113 l 1,1,-1
 533 1003 l 2,2,3
 526 953 526 953 515.5 895.5 c 128,-1,4
 505 838 505 838 488 771 c 2,5,-1
 451 590 l 2,6,7
 424 458 424 458 420.5 400 c 128,-1,8
 417 342 417 342 420 309 c 1,9,10
 462 238 462 238 550 238 c 0,11,12
 665 238 665 238 741.5 325.5 c 128,-1,13
 818 413 818 413 845 562 c 2,14,-1
 953 1113 l 1,15,-1
 1309 1113 l 1,16,-1
 1095 0 l 1,17,-1
 740 0 l 1,18,-1
 767 160 l 1,19,20
 583 -28 583 -28 363 -28 c 0,21,22
 177 -28 177 -28 99 89.5 c 128,-1,23
 21 207 21 207 64 434 c 2,24,-1
 196 1113 l 1,0,-1
797 1575 m 1,25,-1
 746 1326 l 1,26,-1
 512 1326 l 1,27,-1
 562 1575 l 1,28,-1
 797 1575 l 1,25,-1
1187 1575 m 1,29,-1
 1137 1326 l 1,30,-1
 903 1326 l 1,31,-1
 953 1575 l 1,32,-1
 1187 1575 l 1,29,-1
EndSplineSet
EndChar
StartChar: dagger
Encoding: 8224 8224 130
Width: 1015
VWidth: 3555
Flags: W
HStem: 871 235<89 330 705 946> 1463 20G<447.074 779>
VStem: 43 948<871 1106>
Fore
779 1483 m 1,0,-1
 705 1106 l 1,1,-1
 991 1106 l 1,2,-1
 946 871 l 1,3,-1
 658 871 l 1,4,-1
 451 -196 l 1,5,-1
 125 -196 l 1,6,-1
 330 871 l 1,7,-1
 43 871 l 1,8,-1
 89 1106 l 1,9,-1
 377 1106 l 1,10,-1
 451 1483 l 1,11,-1
 779 1483 l 1,0,-1
EndSplineSet
EndChar
StartChar: degree
Encoding: 176 176 131
Width: 1015
VWidth: 3555
Flags: W
HStem: 865 159<418.028 650.936> 1361 165<482.087 700.972>
VStem: 231 661<1123 1191 1191 1255 1191 1191>
Fore
597 1361 m 0,0,1
 523 1361 523 1361 463.5 1311.5 c 128,-1,2
 404 1262 404 1262 391 1191 c 0,3,4
 373 1120 373 1120 414 1072 c 128,-1,5
 455 1024 455 1024 529 1024 c 0,6,7
 597 1024 597 1024 656 1072 c 128,-1,8
 715 1120 715 1120 733 1191 c 0,9,10
 746 1262 746 1262 705.5 1311.5 c 128,-1,11
 665 1361 665 1361 597 1361 c 0,0,1
628 1526 m 0,12,13
 689 1526 689 1526 744.5 1499 c 128,-1,14
 800 1472 800 1472 838 1425 c 256,15,16
 878 1380 878 1380 890.5 1317.5 c 128,-1,17
 903 1255 903 1255 892 1191 c 0,18,19
 878 1123 878 1123 841 1065 c 128,-1,20
 804 1007 804 1007 753 960 c 0,21,22
 634 865 634 865 498 865 c 0,23,24
 356 865 356 865 279.5 957 c 128,-1,25
 203 1049 203 1049 231 1191 c 0,26,27
 245 1262 245 1262 282 1323 c 128,-1,28
 319 1384 319 1384 373 1428 c 128,-1,29
 427 1472 427 1472 493 1499 c 128,-1,30
 559 1526 559 1526 628 1526 c 0,12,13
EndSplineSet
EndChar
StartChar: cent
Encoding: 162 162 132
Width: 1414
VWidth: 3555
Flags: W
HStem: -28 252<726 886.561>
Fore
679 854 m 1,0,1
 512 771 512 771 469 554 c 0,2,3
 427 342 427 342 566 260 c 1,4,-1
 679 854 l 1,0,1
1130 790 m 1,5,6
 995 882 995 882 868 882 c 2,7,-1
 854 882 l 1,8,-1
 726 224 l 1,9,10
 811 227 811 227 889 252.5 c 128,-1,11
 967 278 967 278 1038 319 c 1,12,-1
 981 31 l 1,13,14
 800 -28 800 -28 686 -28 c 2,15,-1
 675 -28 l 1,16,-1
 621 -309 l 1,17,-1
 455 -309 l 1,18,-1
 509 -24 l 1,19,20
 3 57 3 57 106 569 c 0,21,22
 153 814 153 814 312.5 958 c 128,-1,23
 472 1102 472 1102 736 1137 c 1,24,-1
 790 1422 l 1,25,-1
 957 1422 l 1,26,-1
 903 1137 l 1,27,28
 970 1134 970 1134 1041.5 1120 c 128,-1,29
 1113 1106 1113 1106 1187 1082 c 1,30,-1
 1130 790 l 1,5,6
EndSplineSet
EndChar
StartChar: sterling
Encoding: 163 163 133
Width: 1414
VWidth: 3555
Flags: W
HStem: 0 264<0 224 583 1066> 587 238<139 288 693 1021> 1245 262<845.579 1229.51>
Fore
1283 1174 m 1,0,1
 1160 1245 1160 1245 1003 1245 c 0,2,3
 771 1245 771 1245 726 991 c 2,4,-1
 693 825 l 1,5,-1
 1066 825 l 1,6,-1
 1021 587 l 1,7,-1
 648 587 l 1,8,-1
 583 264 l 1,9,-1
 1116 264 l 1,10,-1
 1066 0 l 1,11,-1
 -50 0 l 1,12,-1
 0 264 l 1,13,-1
 224 264 l 1,14,-1
 288 587 l 1,15,-1
 92 587 l 1,16,-1
 139 825 l 1,17,-1
 335 825 l 1,18,-1
 366 991 l 2,19,20
 417 1262 417 1262 566 1384.5 c 128,-1,21
 715 1507 715 1507 991 1507 c 0,22,23
 1170 1507 1170 1507 1337 1458 c 1,24,-1
 1283 1174 l 1,0,1
EndSplineSet
EndChar
StartChar: section
Encoding: 167 167 134
Width: 1015
VWidth: 3555
Flags: W
HStem: -193 207<159.297 405.942> 1305 202<515.884 726.742>
Fore
943 1231 m 1,0,1
 849 1262 849 1262 771 1283.5 c 128,-1,2
 693 1305 693 1305 641 1305 c 0,3,4
 569 1305 569 1305 526.5 1278.5 c 128,-1,5
 484 1252 484 1252 476 1208 c 0,6,7
 462 1144 462 1144 628 1062 c 0,8,9
 658 1049 658 1049 668 1045 c 0,10,11
 861 957 861 957 922.5 873.5 c 128,-1,12
 984 790 984 790 960 661 c 0,13,14
 913 431 913 431 668 342 c 1,15,16
 804 264 804 264 774 118 c 0,17,18
 746 -24 746 -24 609 -108.5 c 128,-1,19
 472 -193 472 -193 267 -193 c 0,20,21
 177 -193 177 -193 90 -178 c 128,-1,22
 3 -163 3 -163 -89 -139 c 1,23,-1
 -43 99 l 1,24,25
 61 61 61 61 147.5 37.5 c 128,-1,26
 234 14 234 14 288 14 c 0,27,28
 352 14 352 14 396.5 41 c 128,-1,29
 441 68 441 68 448 102 c 0,30,31
 465 174 465 174 299 245 c 0,32,33
 281 252 281 252 266.5 259.5 c 128,-1,34
 252 267 252 267 245 271 c 0,35,36
 61 356 61 356 -1.5 444.5 c 128,-1,37
 -64 533 -64 533 -35 661 c 0,38,39
 -17 767 -17 767 55.5 842 c 128,-1,40
 128 917 128 917 241 967 c 1,41,42
 181 1021 181 1021 158 1075.5 c 128,-1,43
 135 1130 135 1130 149 1205 c 0,44,45
 177 1347 177 1347 307 1427 c 128,-1,46
 437 1507 437 1507 641 1507 c 0,47,48
 722 1507 722 1507 809 1493 c 128,-1,49
 896 1479 896 1479 984 1455 c 1,50,-1
 943 1231 l 1,0,1
420 854 m 1,51,52
 342 821 342 821 301 783.5 c 128,-1,53
 260 746 260 746 248 693 c 0,54,55
 238 628 238 628 290 578.5 c 128,-1,56
 342 529 342 529 509 465 c 1,57,58
 658 526 658 526 672 618 c 0,59,60
 686 686 686 686 629.5 739.5 c 128,-1,61
 573 793 573 793 420 854 c 1,51,52
EndSplineSet
EndChar
StartChar: bullet
Encoding: 8226 8226 135
Width: 1300
VWidth: 3555
Flags: W
HStem: 1093 20G<614.5 721.5>
VStem: 257.5 716.5<614.5 757 614.5 757>
Fore
260 757 m 0,0,1
 285 899 285 899 413 1010 c 0,2,3
 543 1113 543 1113 686 1113 c 0,4,5
 757 1113 757 1113 817.5 1084 c 128,-1,6
 878 1055 878 1055 917 1010 c 0,7,8
 1003 903 1003 903 974 757 c 0,9,10
 957 682 957 682 917.5 614.5 c 128,-1,11
 878 547 878 547 818 505 c 0,12,13
 760 451 760 451 689 424.5 c 128,-1,14
 618 398 618 398 543 398 c 0,15,16
 398 398 398 398 312 505 c 0,17,18
 274 547 274 547 257.5 614.5 c 128,-1,19
 241 682 241 682 260 757 c 0,0,1
EndSplineSet
EndChar
StartChar: paragraph
Encoding: 182 182 136
Width: 1293
VWidth: 3555
Flags: W
HStem: 1333 150<818 1007>
Fore
1227 1483 m 1,0,-1
 899 -196 l 1,1,-1
 712 -196 l 1,2,-1
 1007 1333 l 1,3,-1
 818 1333 l 1,4,-1
 523 -196 l 1,5,-1
 330 -196 l 1,6,-1
 495 644 l 1,7,8
 295 668 295 668 210 775 c 128,-1,9
 125 882 125 882 160 1062 c 0,10,11
 196 1255 196 1255 345.5 1369 c 128,-1,12
 495 1483 495 1483 708 1483 c 2,13,-1
 1227 1483 l 1,0,-1
EndSplineSet
EndChar
StartChar: germandbls
Encoding: 223 223 137
Width: 1463
VWidth: 3555
Flags: W
HStem: -28 235<647.789 849.166> 1309 238<657.504 930.404>
Fore
207 1106 m 1,0,1
 292 1547 292 1547 832 1547 c 0,2,3
 1088 1547 1088 1547 1200 1435 c 128,-1,4
 1312 1323 1312 1323 1269 1106 c 2,5,-1
 1255 1035 l 1,6,7
 957 1014 957 1014 936 878 c 0,8,9
 929 838 929 838 944.5 810.5 c 128,-1,10
 960 783 960 783 1045 729 c 2,11,-1
 1109 693 l 2,12,13
 1208 628 1208 628 1247 545 c 128,-1,14
 1286 462 1286 462 1262 345 c 0,15,16
 1194 -28 1194 -28 729 -28 c 0,17,18
 668 -28 668 -28 602 -15.5 c 128,-1,19
 536 -3 536 -3 465 17 c 1,20,-1
 516 264 l 1,21,22
 566 231 566 231 620.5 219 c 128,-1,23
 675 207 675 207 729 207 c 0,24,25
 797 207 797 207 848 244 c 128,-1,26
 899 281 899 281 910 339 c 0,27,28
 917 384 917 384 896 417.5 c 128,-1,29
 875 451 875 451 793 505 c 2,30,-1
 729 540 l 2,31,32
 654 590 654 590 624 658 c 128,-1,33
 594 726 594 726 611 818 c 0,34,35
 634 929 634 929 715.5 1008.5 c 128,-1,36
 797 1088 797 1088 957 1137 c 1,37,38
 981 1309 981 1309 804 1309 c 0,39,40
 604 1309 604 1309 562 1092 c 2,41,-1
 352 0 l 1,42,-1
 -7 0 l 1,43,-1
 207 1106 l 1,0,1
EndSplineSet
EndChar
StartChar: registered
Encoding: 174 174 138
Width: 2032
VWidth: 3555
Flags: W
HStem: 0 156<642.543 1094.22> 1028 139<946 1106.93> 1319 157<867.1 1313.23>
Fore
1095 1319 m 0,0,1
 861 1319 861 1319 644 1153 c 0,2,3
 543 1062 543 1062 483.5 961.5 c 128,-1,4
 424 861 424 861 398 736 c 0,5,6
 373 615 373 615 396.5 514 c 128,-1,7
 420 413 420 413 484 319 c 0,8,9
 621 156 621 156 868 156 c 0,10,11
 988 156 988 156 1098 195 c 128,-1,12
 1208 234 1208 234 1312 319 c 0,13,14
 1522 505 1522 505 1568 736 c 0,15,16
 1614 977 1614 977 1472 1153 c 0,17,18
 1333 1319 1333 1319 1095 1319 c 0,0,1
946 1028 m 1,19,-1
 906 825 l 1,20,-1
 943 825 l 2,21,22
 1099 825 1099 825 1116 929 c 0,23,24
 1137 1028 1137 1028 981 1028 c 2,25,-1
 946 1028 l 1,19,-1
1045 1167 m 1,26,27
 1394 1167 1394 1167 1344 929 c 0,28,29
 1326 842 1326 842 1263.5 787.5 c 128,-1,30
 1201 733 1201 733 1109 715 c 1,31,32
 1174 668 1174 668 1212 554 c 2,33,-1
 1279 339 l 1,34,-1
 1055 339 l 1,35,-1
 984 543 l 2,36,37
 950 689 950 689 889 689 c 2,38,-1
 878 689 l 1,39,-1
 811 339 l 1,40,-1
 601 339 l 1,41,-1
 760 1167 l 1,42,-1
 1045 1167 l 1,26,27
1123 1476 m 0,43,44
 1276 1476 1276 1476 1393 1418.5 c 128,-1,45
 1510 1361 1510 1361 1604 1255 c 0,46,47
 1778 1042 1778 1042 1717 736 c 0,48,49
 1689 583 1689 583 1607.5 453 c 128,-1,50
 1526 323 1526 323 1401 217 c 0,51,52
 1266 115 1266 115 1128.5 57.5 c 128,-1,53
 991 0 991 0 838 0 c 0,54,55
 689 0 689 0 568.5 57.5 c 128,-1,56
 448 115 448 115 359 217 c 0,57,58
 184 427 184 427 245 736 c 0,59,60
 274 885 274 885 354 1019 c 128,-1,61
 434 1153 434 1153 562 1255 c 0,62,63
 825 1476 825 1476 1123 1476 c 0,43,44
EndSplineSet
EndChar
StartChar: copyright
Encoding: 169 169 139
Width: 2032
VWidth: 3555
Flags: W
HStem: 0 156<642.543 1094.22> 309 189<858.5 1106.77> 974 189<939.964 1227.99> 1319 157<867.1 1313.23>
Fore
1309 903 m 1,0,1
 1205 974 1205 974 1102 974 c 0,2,3
 988 974 988 974 913 909.5 c 128,-1,4
 838 845 838 845 818 736 c 0,5,6
 767 498 767 498 1010 498 c 0,7,8
 1141 498 1141 498 1241 566 c 1,9,-1
 1201 356 l 1,10,11
 1130 335 1130 335 1064 322 c 128,-1,12
 998 309 998 309 936 309 c 0,13,14
 722 309 722 309 620.5 424.5 c 128,-1,15
 519 540 519 540 559 736 c 0,16,17
 597 929 597 929 743 1046 c 128,-1,18
 889 1163 889 1163 1102 1163 c 0,19,20
 1174 1163 1174 1163 1232 1150 c 128,-1,21
 1290 1137 1290 1137 1351 1116 c 1,22,-1
 1309 903 l 1,0,1
1095 1319 m 0,23,24
 861 1319 861 1319 644 1153 c 0,25,26
 543 1062 543 1062 483.5 961.5 c 128,-1,27
 424 861 424 861 398 736 c 0,28,29
 373 615 373 615 396.5 514 c 128,-1,30
 420 413 420 413 484 319 c 0,31,32
 621 156 621 156 868 156 c 0,33,34
 988 156 988 156 1098 195 c 128,-1,35
 1208 234 1208 234 1312 319 c 0,36,37
 1522 505 1522 505 1568 736 c 0,38,39
 1614 977 1614 977 1472 1153 c 0,40,41
 1333 1319 1333 1319 1095 1319 c 0,23,24
1123 1476 m 0,42,43
 1276 1476 1276 1476 1393 1418.5 c 128,-1,44
 1510 1361 1510 1361 1604 1255 c 0,45,46
 1778 1042 1778 1042 1717 736 c 0,47,48
 1689 583 1689 583 1607.5 453 c 128,-1,49
 1526 323 1526 323 1401 217 c 0,50,51
 1266 115 1266 115 1128.5 57.5 c 128,-1,52
 991 0 991 0 838 0 c 0,53,54
 689 0 689 0 568.5 57.5 c 128,-1,55
 448 115 448 115 359 217 c 0,56,57
 184 427 184 427 245 736 c 0,58,59
 274 885 274 885 354 1019 c 128,-1,60
 434 1153 434 1153 562 1255 c 0,61,62
 825 1476 825 1476 1123 1476 c 0,42,43
EndSplineSet
EndChar
StartChar: trademark
Encoding: 8482 8482 140
Width: 2032
VWidth: 3555
Flags: W
HStem: 1340 143<401 543 715 889>
Fore
1326 1255 m 1,0,-1
 1493 1483 l 1,1,-1
 1717 1483 l 1,2,-1
 1604 906 l 1,3,-1
 1432 906 l 1,4,-1
 1517 1340 l 1,5,-1
 1333 1088 l 1,6,-1
 1262 1088 l 1,7,-1
 1174 1340 l 1,8,-1
 1088 906 l 1,9,-1
 913 906 l 1,10,-1
 1028 1483 l 1,11,-1
 1259 1483 l 1,12,-1
 1326 1255 l 1,0,-1
889 1340 m 1,13,-1
 715 1340 l 1,14,-1
 628 906 l 1,15,-1
 458 906 l 1,16,-1
 543 1340 l 1,17,-1
 373 1340 l 1,18,-1
 401 1483 l 1,19,-1
 917 1483 l 1,20,-1
 889 1340 l 1,13,-1
EndSplineSet
EndChar
StartChar: acute
Encoding: 180 180 141
Width: 1015
VWidth: 3555
Flags: W
HStem: 1252 373<621 1059>
VStem: 427 632<1252 1625>
Fore
1059 1625 m 1,0,-1
 621 1252 l 1,1,-1
 427 1252 l 1,2,-1
 779 1625 l 1,3,-1
 1059 1625 l 1,0,-1
EndSplineSet
EndChar
StartChar: dieresis
Encoding: 168 168 142
Width: 1015
VWidth: 3555
Flags: W
HStem: 1326 249<323 509 715 899>
VStem: 274 676<1326 1575>
Fore
559 1575 m 1,0,-1
 509 1326 l 1,1,-1
 274 1326 l 1,2,-1
 323 1575 l 1,3,-1
 559 1575 l 1,0,-1
950 1575 m 1,4,-1
 899 1326 l 1,5,-1
 665 1326 l 1,6,-1
 715 1575 l 1,7,-1
 950 1575 l 1,4,-1
EndSplineSet
EndChar
StartChar: notequal
Encoding: 8800 8800 143
Width: 1701
VWidth: 3555
Flags: W
HStem: -10 21G<254.469 294.265> 292 237<135 326 821 1361> 746 231<224 774 1262 1451>
Fore
1014 977 m 1,0,-1
 1316 1279 l 1,1,-1
 1443 1160 l 1,2,-1
 1262 977 l 1,3,-1
 1496 977 l 1,4,-1
 1451 746 l 1,5,-1
 1042 746 l 1,6,-1
 821 529 l 1,7,-1
 1408 529 l 1,8,-1
 1361 292 l 1,9,-1
 580 292 l 1,10,-1
 274 -10 l 1,11,-1
 149 118 l 1,12,-1
 326 292 l 1,13,-1
 89 292 l 1,14,-1
 135 529 l 1,15,-1
 559 529 l 1,16,-1
 774 746 l 1,17,-1
 177 746 l 1,18,-1
 224 977 l 1,19,-1
 1014 977 l 1,0,-1
EndSplineSet
EndChar
StartChar: AE
Encoding: 198 198 144
Width: 2206
VWidth: 3555
Flags: W
HStem: 0 288<1262 1880> 349 269<569 896> 628 285<1384 1937> 1194 289<1439 2090>
Fore
569 618 m 1,0,-1
 946 618 l 1,1,-1
 1066 1231 l 1,2,-1
 943 1231 l 1,3,-1
 569 618 l 1,0,-1
2147 1483 m 1,4,-1
 2090 1194 l 1,5,-1
 1439 1194 l 1,6,-1
 1384 913 l 1,7,-1
 1991 913 l 1,8,-1
 1937 628 l 1,9,-1
 1330 628 l 1,10,-1
 1262 288 l 1,11,-1
 1934 288 l 1,12,-1
 1880 0 l 1,13,-1
 828 0 l 1,14,-1
 896 349 l 1,15,-1
 404 349 l 1,16,-1
 193 0 l 1,17,-1
 -177 0 l 1,18,-1
 729 1483 l 1,19,-1
 2147 1483 l 1,4,-1
EndSplineSet
EndChar
StartChar: Oslash
Encoding: 216 216 145
Width: 1727
VWidth: 3555
Flags: W
HStem: -28 273<570.717 916.788> 1234 273<742.379 1076.67>
Fore
491 370 m 1,0,1
 569 245 569 245 736 245 c 0,2,3
 906 245 906 245 1029.5 375 c 128,-1,4
 1153 505 1153 505 1198 740 c 0,5,6
 1212 807 1212 807 1213.5 865.5 c 128,-1,7
 1215 924 1215 924 1212 970 c 1,8,-1
 491 370 l 1,0,1
1163 1116 m 1,9,10
 1127 1177 1127 1177 1067 1205.5 c 128,-1,11
 1007 1234 1007 1234 929 1234 c 0,12,13
 746 1234 746 1234 627.5 1104 c 128,-1,14
 509 974 509 974 462 740 c 0,15,16
 448 675 448 675 444.5 618.5 c 128,-1,17
 441 562 441 562 448 519 c 1,18,-1
 1163 1116 l 1,9,10
115 238 m 1,19,20
 7 448 7 448 64 740 c 0,21,22
 135 1102 135 1102 376.5 1304.5 c 128,-1,23
 618 1507 618 1507 981 1507 c 0,24,25
 1279 1507 1279 1507 1448 1354 c 1,26,-1
 1686 1557 l 1,27,-1
 1774 1443 l 1,28,-1
 1536 1241 l 1,29,30
 1597 1149 1597 1149 1607.5 1019 c 128,-1,31
 1618 889 1618 889 1588 740 c 0,32,33
 1517 377 1517 377 1281 174.5 c 128,-1,34
 1045 -28 1045 -28 682 -28 c 0,35,36
 377 -28 377 -28 207 132 c 1,37,-1
 -40 -75 l 1,38,-1
 -125 40 l 1,39,-1
 115 238 l 1,19,20
EndSplineSet
EndChar
StartChar: infinity
Encoding: 8734 8734 146
Width: 1690
VWidth: 3555
Flags: W
HStem: 184 250<278.448 527.286> 184 240<945.742 1204.86> 779 245<1047.4 1289.22> 786 238<366.65 625.916>
Fore
878 559 m 1,0,1
 936 424 936 424 1088 424 c 0,2,3
 1174 424 1174 424 1239.5 475 c 128,-1,4
 1305 526 1305 526 1319 601 c 0,5,6
 1337 679 1337 679 1294.5 729 c 128,-1,7
 1252 779 1252 779 1177 779 c 0,8,9
 1106 779 1106 779 1038 729 c 128,-1,10
 970 679 970 679 878 559 c 1,0,1
693 651 m 1,11,12
 634 786 634 786 488 786 c 0,13,14
 398 786 398 786 331 736 c 128,-1,15
 264 686 264 686 248 608 c 0,16,17
 231 529 231 529 275 481.5 c 128,-1,18
 319 434 319 434 398 434 c 0,19,20
 465 434 465 434 536.5 483.5 c 128,-1,21
 608 533 608 533 693 651 c 1,11,12
760 441 m 1,22,23
 569 184 569 184 387 184 c 0,24,25
 245 184 245 184 170 305.5 c 128,-1,26
 95 427 95 427 128 601 c 0,27,28
 167 793 167 793 277 908.5 c 128,-1,29
 387 1024 387 1024 526 1024 c 0,30,31
 611 1024 611 1024 677 965 c 128,-1,32
 743 906 743 906 814 767 c 1,33,34
 1003 1024 1003 1024 1187 1024 c 0,35,36
 1326 1024 1326 1024 1401 905 c 128,-1,37
 1476 786 1476 786 1439 604 c 0,38,39
 1404 420 1404 420 1294 302 c 128,-1,40
 1184 184 1184 184 1049 184 c 0,41,42
 957 184 957 184 892.5 239.5 c 128,-1,43
 828 295 828 295 760 441 c 1,22,23
EndSplineSet
EndChar
StartChar: plusminus
Encoding: 177 177 147
Width: 1701
VWidth: 3555
Flags: W
HStem: 0 234<78 1309> 689 235<214 686 967 1439>
Fore
967 924 m 1,0,-1
 1486 924 l 1,1,-1
 1439 689 l 1,2,-1
 920 689 l 1,3,-1
 854 339 l 1,4,-1
 618 339 l 1,5,-1
 686 689 l 1,6,-1
 167 689 l 1,7,-1
 214 924 l 1,8,-1
 733 924 l 1,9,-1
 800 1272 l 1,10,-1
 1035 1272 l 1,11,-1
 967 924 l 1,0,-1
1351 234 m 1,12,-1
 1309 0 l 1,13,-1
 35 0 l 1,14,-1
 78 234 l 1,15,-1
 1351 234 l 1,12,-1
EndSplineSet
EndChar
StartChar: lessequal
Encoding: 8804 8804 148
Width: 1701
VWidth: 3555
Flags: W
HStem: 0 234<78 1309>
Fore
1309 0 m 1,0,-1
 35 0 l 1,1,-1
 78 234 l 1,2,-1
 1351 234 l 1,3,-1
 1309 0 l 1,0,-1
562 733 m 1,4,-1
 1408 529 l 1,5,-1
 1361 285 l 1,6,-1
 153 615 l 1,7,-1
 200 854 l 1,8,-1
 1536 1184 l 1,9,-1
 1489 939 l 1,10,-1
 562 733 l 1,4,-1
EndSplineSet
EndChar
StartChar: greaterequal
Encoding: 8805 8805 149
Width: 1701
VWidth: 3555
Flags: W
HStem: 0 234<78 1309>
Fore
1351 234 m 1,0,-1
 1309 0 l 1,1,-1
 35 0 l 1,2,-1
 78 234 l 1,3,-1
 1351 234 l 1,0,-1
264 1184 m 1,4,-1
 1472 854 l 1,5,-1
 1425 615 l 1,6,-1
 89 285 l 1,7,-1
 135 529 l 1,8,-1
 1069 733 l 1,9,-1
 217 939 l 1,10,-1
 264 1184 l 1,4,-1
EndSplineSet
EndChar
StartChar: yen
Encoding: 165 165 150
Width: 1414
VWidth: 3555
Flags: W
HStem: 0 21G<342 722.741> 417 187<7 420 835 1248> 757 189<71 363 1059 1316> 1463 20G<135 541.41 1085.62 1500>
Fore
797 417 m 1,0,-1
 719 0 l 1,1,-1
 342 0 l 1,2,-1
 420 417 l 1,3,-1
 -31 417 l 1,4,-1
 7 604 l 1,5,-1
 458 604 l 1,6,-1
 469 672 l 1,7,-1
 437 757 l 1,8,-1
 35 757 l 1,9,-1
 71 946 l 1,10,-1
 363 946 l 1,11,-1
 135 1483 l 1,12,-1
 533 1483 l 1,13,-1
 726 1024 l 1,14,-1
 1102 1483 l 1,15,-1
 1500 1483 l 1,16,-1
 1059 946 l 1,17,-1
 1351 946 l 1,18,-1
 1316 757 l 1,19,-1
 913 757 l 1,20,-1
 845 672 l 1,21,-1
 835 604 l 1,22,-1
 1286 604 l 1,23,-1
 1248 417 l 1,24,-1
 797 417 l 1,0,-1
EndSplineSet
EndChar
StartChar: mu
Encoding: 181 181 151
Width: 1496
VWidth: 3555
Flags: W
HStem: -427 21G<-89 270.879> -28 262<469.569 720.895> 1093 20G<206.117 566 963.142 1323>
Fore
210 1113 m 1,0,-1
 566 1113 l 1,1,-1
 441 465 l 2,2,3
 398 234 398 234 597 234 c 0,4,5
 800 234 800 234 842 465 c 2,6,-1
 967 1113 l 1,7,-1
 1323 1113 l 1,8,-1
 1180 370 l 2,9,10
 1163 299 1163 299 1177 268.5 c 128,-1,11
 1191 238 1191 238 1231 238 c 0,12,13
 1252 238 1252 238 1265.5 243 c 128,-1,14
 1279 248 1279 248 1302 264 c 1,15,-1
 1252 14 l 1,16,17
 1144 -28 1144 -28 1055 -28 c 0,18,19
 970 -28 970 -28 920.5 9.5 c 128,-1,20
 871 47 871 47 854 132 c 1,21,22
 726 -28 726 -28 554 -28 c 0,23,24
 410 -28 410 -28 363 68 c 1,25,-1
 267 -427 l 1,26,-1
 -89 -427 l 1,27,-1
 210 1113 l 1,0,-1
EndSplineSet
EndChar
StartChar: partialdiff
Encoding: 8706 8706 152
Width: 1104
VWidth: 3555
Flags: W
HStem: -24 78<214 409.688> 764 94<420.132 603.212> 1238 113<643 818.492>
Fore
715 679 m 1,0,1
 804 917 804 917 825 1031 c 0,2,3
 842 1120 842 1120 824.5 1179 c 128,-1,4
 807 1238 807 1238 767 1238 c 0,5,6
 736 1238 736 1238 615 1144 c 0,7,8
 505 1055 505 1055 420 1055 c 0,9,10
 373 1055 373 1055 348 1089 c 128,-1,11
 323 1123 323 1123 335 1174 c 0,12,13
 342 1205 342 1205 371.5 1237 c 128,-1,14
 401 1269 401 1269 448 1294 c 128,-1,15
 495 1319 495 1319 553 1335 c 128,-1,16
 611 1351 611 1351 675 1351 c 0,17,18
 889 1351 889 1351 977.5 1191 c 128,-1,19
 1066 1031 1066 1031 1014 753 c 0,20,21
 943 413 943 413 743 196 c 0,22,23
 540 -24 540 -24 285 -24 c 0,24,25
 106 -24 106 -24 12 91.5 c 128,-1,26
 -82 207 -82 207 -43 387 c 0,27,28
 -24 491 -24 491 23.5 576 c 128,-1,29
 71 661 71 661 137 723.5 c 128,-1,30
 203 786 203 786 286.5 822 c 128,-1,31
 370 858 370 858 458 858 c 0,32,33
 559 858 559 858 619 812.5 c 128,-1,34
 679 767 679 767 715 679 c 1,0,1
615 529 m 0,35,36
 637 641 637 641 612 702.5 c 128,-1,37
 587 764 587 764 516 764 c 0,38,39
 472 764 472 764 424.5 728.5 c 128,-1,40
 377 693 377 693 334.5 629.5 c 128,-1,41
 292 566 292 566 258 478.5 c 128,-1,42
 224 391 224 391 203 285 c 0,43,44
 160 54 160 54 299 54 c 0,45,46
 398 54 398 54 487 185 c 128,-1,47
 576 316 576 316 615 529 c 0,35,36
EndSplineSet
EndChar
StartChar: summation
Encoding: 8721 8721 153
Width: 1459
VWidth: 3555
Flags: W
HStem: -387 259<292 1160> 1198 267<547 1415>
Fore
1469 1465 m 1,0,-1
 1415 1198 l 1,1,-1
 547 1198 l 1,2,-1
 1038 559 l 1,3,-1
 292 -128 l 1,4,-1
 1212 -128 l 1,5,-1
 1160 -387 l 1,6,-1
 -210 -387 l 1,7,-1
 -177 -220 l 1,8,-1
 658 543 l 1,9,-1
 128 1234 l 1,10,-1
 174 1465 l 1,11,-1
 1469 1465 l 1,0,-1
EndSplineSet
EndChar
StartChar: product
Encoding: 8719 8719 154
Width: 1598
VWidth: 3555
Flags: W
HStem: 1177 288<543 1156>
Fore
1557 1465 m 1,0,-1
 1194 -387 l 1,1,-1
 849 -387 l 1,2,-1
 1156 1177 l 1,3,-1
 543 1177 l 1,4,-1
 238 -387 l 1,5,-1
 -102 -387 l 1,6,-1
 260 1465 l 1,7,-1
 1557 1465 l 1,0,-1
EndSplineSet
EndChar
StartChar: pi
Encoding: 960 960 155
Width: 1307
VWidth: 3555
Flags: W
HStem: 0 21G<-3 288.306 516 807.399> 865 220<597 835 1120 1293>
Fore
1293 865 m 1,0,-1
 1120 865 l 1,1,-1
 800 0 l 1,2,-1
 516 0 l 1,3,-1
 835 865 l 1,4,-1
 597 865 l 1,5,-1
 281 0 l 1,6,-1
 -3 0 l 1,7,-1
 309 865 l 1,8,-1
 288 865 l 2,9,10
 177 865 177 865 142 733 c 1,11,-1
 -68 733 l 1,12,13
 -35 828 -35 828 6 895.5 c 128,-1,14
 47 963 47 963 105 1006 c 128,-1,15
 163 1049 163 1049 241 1067 c 128,-1,16
 319 1085 319 1085 427 1085 c 2,17,-1
 1377 1085 l 1,18,-1
 1293 865 l 1,0,-1
EndSplineSet
EndChar
StartChar: integral
Encoding: 8747 8747 156
Width: 1236
VWidth: 3555
Flags: W
HStem: -370 129<-22 182.162> 1422 125<927.044 1131>
Fore
132 -241 m 0,0,1
 231 -241 231 -241 377 417 c 0,2,3
 391 465 391 465 400.5 504 c 128,-1,4
 410 543 410 543 417 569 c 0,5,6
 536 1088 536 1088 690.5 1317.5 c 128,-1,7
 845 1547 845 1547 1078 1547 c 0,8,9
 1184 1547 1184 1547 1238.5 1495 c 128,-1,10
 1293 1443 1293 1443 1276 1354 c 0,11,12
 1262 1293 1262 1293 1214.5 1254 c 128,-1,13
 1167 1215 1167 1215 1102 1215 c 0,14,15
 974 1215 974 1215 998 1361 c 0,16,17
 1007 1401 1007 1401 1001 1411.5 c 128,-1,18
 995 1422 995 1422 977 1422 c 0,19,20
 885 1422 885 1422 729 760 c 0,21,22
 719 708 719 708 708 672 c 0,23,24
 634 349 634 349 590 203 c 0,25,26
 543 61 543 61 484 -43 c 0,27,28
 292 -370 292 -370 31 -370 c 0,29,30
 -75 -370 -75 -370 -126 -318.5 c 128,-1,31
 -177 -267 -177 -267 -160 -177 c 0,32,33
 -149 -118 -149 -118 -101.5 -79 c 128,-1,34
 -54 -40 -54 -40 14 -40 c 0,35,36
 75 -40 75 -40 100 -77.5 c 128,-1,37
 125 -115 125 -115 115 -177 c 1,38,39
 109 -184 109 -184 109 -188.5 c 128,-1,40
 109 -193 109 -193 106 -200 c 0,41,42
 102 -210 102 -210 102 -225.5 c 128,-1,43
 102 -241 102 -241 132 -241 c 0,0,1
EndSplineSet
EndChar
StartChar: ordfeminine
Encoding: 170 170 157
Width: 1147
VWidth: 3555
Flags: W
HStem: 370 199<106 875> 689 165<340.05 593.827> 1078 130<479.831 757> 1344 163<463.533 775.516>
VStem: 68 970<370 1160>
Fore
913 569 m 1,0,-1
 875 370 l 1,1,-1
 68 370 l 1,2,-1
 106 569 l 1,3,-1
 913 569 l 1,0,-1
668 1078 m 1,4,5
 536 1078 536 1078 478 1049.5 c 128,-1,6
 420 1021 420 1021 410 960 c 0,7,8
 387 854 387 854 516 854 c 0,9,10
 597 854 597 854 666.5 908.5 c 128,-1,11
 736 963 736 963 753 1049 c 2,12,-1
 757 1078 l 1,13,-1
 668 1078 l 1,4,5
950 712 m 1,14,-1
 708 712 l 1,15,-1
 733 838 l 1,16,17
 661 760 661 760 586.5 724.5 c 128,-1,18
 512 689 512 689 417 689 c 0,19,20
 267 689 267 689 201 757 c 128,-1,21
 135 825 135 825 160 939 c 0,22,23
 189 1082 189 1082 306.5 1145 c 128,-1,24
 424 1208 424 1208 648 1208 c 2,25,-1
 783 1208 l 1,26,-1
 786 1234 l 2,27,28
 811 1344 811 1344 628 1344 c 0,29,30
 465 1344 465 1344 292 1272 c 1,31,-1
 326 1455 l 1,32,33
 420 1483 420 1483 508.5 1495 c 128,-1,34
 597 1507 597 1507 672 1507 c 0,35,36
 896 1507 896 1507 984.5 1420 c 128,-1,37
 1073 1333 1073 1333 1038 1160 c 2,38,-1
 950 712 l 1,14,-1
EndSplineSet
EndChar
StartChar: ordmasculine
Encoding: 186 186 158
Width: 1147
VWidth: 3555
Flags: W
HStem: 370 199<95 875> 693 172<460.081 686.314> 1340 167<535.264 761.163>
VStem: 57 1009<370 1099>
Fore
686 1507 m 256,0,1
 899 1507 899 1507 1000.5 1398.5 c 128,-1,2
 1102 1290 1102 1290 1066 1099 c 0,3,4
 1028 906 1028 906 885.5 799.5 c 128,-1,5
 743 693 743 693 526 693 c 0,6,7
 312 693 312 693 213.5 799.5 c 128,-1,8
 115 906 115 906 153 1099 c 0,9,10
 189 1290 189 1290 330.5 1398.5 c 128,-1,11
 472 1507 472 1507 686 1507 c 256,0,1
913 569 m 1,12,-1
 875 370 l 1,13,-1
 57 370 l 1,14,-1
 95 569 l 1,15,-1
 913 569 l 1,12,-1
654 1340 m 0,16,17
 576 1340 576 1340 515.5 1277.5 c 128,-1,18
 455 1215 455 1215 434 1099 c 0,19,20
 410 984 410 984 447 924.5 c 128,-1,21
 484 865 484 865 562 865 c 0,22,23
 733 865 733 865 783 1099 c 0,24,25
 825 1340 825 1340 654 1340 c 0,16,17
EndSplineSet
EndChar
StartChar: Omega
Encoding: 937 937 159
Width: 1564
VWidth: 3555
Flags: W
HStem: 0 252<-75 214 1092 1330> 1234 262<641.165 1020.27>
Fore
1377 252 m 1,0,-1
 1330 0 l 1,1,-1
 722 0 l 1,2,-1
 774 288 l 1,3,4
 920 373 920 373 1011 505 c 128,-1,5
 1102 637 1102 637 1134 800 c 0,6,7
 1174 1003 1174 1003 1095.5 1118.5 c 128,-1,8
 1017 1234 1017 1234 842 1234 c 0,9,10
 661 1234 661 1234 539 1118.5 c 128,-1,11
 417 1003 417 1003 377 800 c 0,12,13
 345 637 345 637 384.5 505 c 128,-1,14
 424 373 424 373 533 288 c 1,15,-1
 479 0 l 1,16,-1
 -122 0 l 1,17,-1
 -75 252 l 1,18,-1
 214 252 l 1,19,20
 10 488 10 488 75 814 c 0,21,22
 106 970 106 970 179 1094.5 c 128,-1,23
 252 1219 252 1219 358.5 1310 c 128,-1,24
 465 1401 465 1401 600.5 1448.5 c 128,-1,25
 736 1496 736 1496 892 1496 c 0,26,27
 1205 1496 1205 1496 1354 1311.5 c 128,-1,28
 1503 1127 1503 1127 1443 814 c 0,29,30
 1411 651 1411 651 1322.5 512 c 128,-1,31
 1234 373 1234 373 1092 252 c 1,32,-1
 1377 252 l 1,0,-1
EndSplineSet
EndChar
StartChar: ae
Encoding: 230 230 160
Width: 2128
VWidth: 3555
Flags: W
HStem: -28 235<242.31 563.297 1188.99 1526.57> 458 217<1160 1618> 502 210<403.656 774> 899 238<491.427 781.594 1293.4 1578.53>
Fore
1618 675 m 1,0,1
 1639 779 1639 779 1593 839 c 128,-1,2
 1547 899 1547 899 1451 899 c 0,3,4
 1241 899 1241 899 1160 675 c 1,5,-1
 1618 675 l 1,0,1
587 502 m 1,6,7
 366 502 366 502 339 352 c 0,8,9
 323 285 323 285 358.5 246 c 128,-1,10
 394 207 394 207 476 207 c 0,11,12
 580 207 580 207 663 279.5 c 128,-1,13
 746 352 746 352 767 462 c 2,14,-1
 774 502 l 1,15,-1
 587 502 l 1,6,7
217 1085 m 1,16,17
 342 1109 342 1109 455.5 1123 c 128,-1,18
 569 1137 569 1137 661 1137 c 0,19,20
 811 1137 811 1137 910.5 1099.5 c 128,-1,21
 1010 1062 1010 1062 1066 981 c 1,22,23
 1252 1137 1252 1137 1500 1137 c 0,24,25
 1760 1137 1760 1137 1886 981 c 128,-1,26
 2012 825 2012 825 1962 559 c 2,27,-1
 1944 458 l 1,28,-1
 1113 458 l 1,29,30
 1085 207 1085 207 1368 207 c 0,31,32
 1585 207 1585 207 1866 342 c 1,33,-1
 1812 68 l 1,34,35
 1679 17 1679 17 1547 -5.5 c 128,-1,36
 1415 -28 1415 -28 1290 -28 c 0,37,38
 929 -28 929 -28 818 177 c 1,39,40
 590 -28 590 -28 319 -28 c 0,41,42
 125 -28 125 -28 32 67.5 c 128,-1,43
 -61 163 -61 163 -28 335 c 0,44,45
 10 529 10 529 161 620.5 c 128,-1,46
 312 712 312 712 601 712 c 2,47,-1
 814 712 l 1,48,-1
 821 740 l 2,49,50
 838 825 838 825 778.5 862 c 128,-1,51
 719 899 719 899 576 899 c 0,52,53
 462 899 462 899 361 880 c 128,-1,54
 260 861 260 861 163 811 c 1,55,-1
 217 1085 l 1,16,17
EndSplineSet
EndChar
StartChar: oslash
Encoding: 248 248 161
Width: 1395
VWidth: 3555
Flags: W
HStem: -28 252<432.852 709.315> 882 255<537.995 791.899>
Fore
835 832 m 1,0,1
 807 861 807 861 773.5 871.5 c 128,-1,2
 740 882 740 882 689 882 c 0,3,4
 448 882 448 882 387 554 c 0,5,6
 380 516 380 516 375 483.5 c 128,-1,7
 370 451 370 451 373 424 c 1,8,-1
 835 832 l 1,0,1
417 285 m 1,9,10
 465 224 465 224 562 224 c 0,11,12
 682 224 682 224 758.5 309 c 128,-1,13
 835 394 835 394 868 554 c 0,14,15
 882 641 882 641 878 693 c 1,16,-1
 417 285 l 1,9,10
71 156 m 1,17,18
 -35 312 -35 312 14 554 c 0,19,20
 68 832 68 832 259.5 984.5 c 128,-1,21
 451 1137 451 1137 740 1137 c 0,22,23
 950 1137 950 1137 1082 1049 c 1,24,-1
 1262 1208 l 1,25,-1
 1347 1109 l 1,26,-1
 1180 960 l 1,27,28
 1283 800 1283 800 1238 554 c 0,29,30
 1184 278 1184 278 992 125 c 128,-1,31
 800 -28 800 -28 512 -28 c 0,32,33
 404 -28 404 -28 319 -7 c 128,-1,34
 234 14 234 14 170 64 c 1,35,-1
 -10 -92 l 1,36,-1
 -99 0 l 1,37,-1
 71 156 l 1,17,18
EndSplineSet
EndChar
StartChar: questiondown
Encoding: 191 191 162
Width: 1178
VWidth: 3555
Flags: W
HStem: -28 259<415.698 751.269> 1127 356<597 882>
VStem: 31 922<359 1483>
Fore
854 977 m 1,0,-1
 842 932 l 2,1,2
 835 892 835 892 823 858.5 c 128,-1,3
 811 825 811 825 784 789 c 128,-1,4
 757 753 757 753 716 714 c 128,-1,5
 675 675 675 675 611 621 c 2,6,-1
 536 569 l 2,7,8
 469 519 469 519 436.5 475 c 128,-1,9
 404 431 404 431 394 380 c 0,10,11
 366 231 366 231 543 231 c 0,12,13
 712 231 712 231 939 366 c 1,14,-1
 875 54 l 1,15,16
 634 -28 634 -28 451 -28 c 0,17,18
 -43 -28 -43 -28 31 359 c 0,19,20
 50 455 50 455 101.5 531.5 c 128,-1,21
 153 608 153 608 264 693 c 2,22,-1
 342 753 l 2,23,24
 424 818 424 818 451.5 853.5 c 128,-1,25
 479 889 479 889 491 936 c 2,26,-1
 498 977 l 1,27,-1
 854 977 l 1,0,-1
526 1127 m 1,28,-1
 597 1483 l 1,29,-1
 953 1483 l 1,30,-1
 882 1127 l 1,31,-1
 526 1127 l 1,28,-1
EndSplineSet
EndChar
StartChar: exclamdown
Encoding: 161 161 163
Width: 927
VWidth: 3555
Flags: W
HStem: 0 21G<106 468.902> 1127 356<394 682>
VStem: 106 647<0 1483>
Fore
217 569 m 1,0,-1
 349 981 l 1,1,-1
 601 981 l 1,2,-1
 576 569 l 1,3,-1
 465 0 l 1,4,-1
 106 0 l 1,5,-1
 217 569 l 1,0,-1
394 1483 m 1,6,-1
 753 1483 l 1,7,-1
 682 1127 l 1,8,-1
 323 1127 l 1,9,-1
 394 1483 l 1,6,-1
EndSplineSet
EndChar
StartChar: logicalnot
Encoding: 172 172 164
Width: 1701
VWidth: 3555
Flags: W
HStem: 668 231<210 1201>
Fore
1483 899 m 1,0,-1
 1361 285 l 1,1,-1
 1127 285 l 1,2,-1
 1201 668 l 1,3,-1
 163 668 l 1,4,-1
 210 899 l 1,5,-1
 1483 899 l 1,0,-1
EndSplineSet
EndChar
StartChar: radical
Encoding: 8730 8730 165
Width: 1354
VWidth: 3555
Flags: W
HStem: 1554 146<1384 1479>
Fore
1507 1700 m 1,0,-1
 1479 1554 l 1,1,-1
 1384 1554 l 1,2,-1
 491 -43 l 1,3,-1
 373 -43 l 1,4,-1
 227 800 l 1,5,-1
 78 746 l 1,6,-1
 68 875 l 1,7,-1
 448 998 l 1,8,-1
 547 370 l 1,9,-1
 1299 1700 l 1,10,-1
 1507 1700 l 1,0,-1
EndSplineSet
EndChar
StartChar: florin
Encoding: 402 402 166
Width: 1414
VWidth: 3555
Flags: W
HStem: -424 240<-135.877 92.0815> 651 234<264 458 896 1137> 1309 238<1090.76 1327.21>
Fore
1387 1252 m 1,0,1
 1309 1309 1309 1309 1234 1309 c 0,2,3
 1137 1309 1137 1309 1075.5 1251.5 c 128,-1,4
 1014 1194 1014 1194 963 1055 c 2,5,-1
 896 885 l 1,6,-1
 1184 885 l 1,7,-1
 1137 651 l 1,8,-1
 807 651 l 1,9,-1
 547 -14 l 2,10,11
 384 -424 384 -424 7 -424 c 0,12,13
 -57 -424 -57 -424 -119 -412.5 c 128,-1,14
 -181 -401 -181 -401 -245 -384 c 1,15,-1
 -200 -132 l 1,16,17
 -122 -184 -122 -184 -40 -184 c 0,18,19
 50 -184 50 -184 108.5 -129.5 c 128,-1,20
 167 -75 167 -75 224 68 c 2,21,-1
 458 651 l 1,22,-1
 217 651 l 1,23,-1
 264 885 l 1,24,-1
 547 885 l 1,25,-1
 648 1137 l 2,26,27
 807 1547 807 1547 1180 1547 c 0,28,29
 1248 1547 1248 1547 1310.5 1538 c 128,-1,30
 1373 1529 1373 1529 1436 1503 c 1,31,-1
 1387 1252 l 1,0,1
EndSplineSet
EndChar
StartChar: approxequal
Encoding: 8776 8776 167
Width: 1701
VWidth: 3555
Flags: W
HStem: 241 235<852.239 1177.37> 384 227<332.061 652.277> 661 228<938.591 1262.35> 800 228<402.538 735.615>
Fore
1465 811 m 1,0,1
 1344 729 1344 729 1250 695 c 128,-1,2
 1156 661 1156 661 1059 661 c 0,3,4
 950 661 950 661 825 719 c 0,5,6
 804 726 804 726 800 729 c 1,7,8
 783 736 l 2,9,10
 641 800 641 800 543 800 c 0,11,12
 462 800 462 800 366.5 761 c 128,-1,13
 271 722 271 722 156 641 c 1,14,-1
 207 882 l 1,15,16
 434 1028 434 1028 615 1028 c 0,17,18
 722 1028 722 1028 854 967 c 0,19,20
 871 960 871 960 875 960 c 1,21,22
 878 957 878 957 881.5 957 c 128,-1,23
 885 957 885 957 892 953 c 0,24,25
 1031 889 1031 889 1127 889 c 0,26,27
 1215 889 1215 889 1306 928 c 128,-1,28
 1397 967 1397 967 1510 1049 c 1,29,-1
 1465 811 l 1,0,1
1384 391 m 1,30,31
 1262 312 1262 312 1167.5 276.5 c 128,-1,32
 1073 241 1073 241 977 241 c 0,33,34
 875 241 875 241 743 302 c 0,35,36
 722 309 722 309 722 312 c 1,37,38
 700 319 l 2,39,40
 559 384 559 384 462 384 c 0,41,42
 295 384 295 384 78 224 c 1,43,-1
 125 465 l 1,44,45
 245 540 245 540 343 575.5 c 128,-1,46
 441 611 441 611 533 611 c 0,47,48
 644 611 644 611 771 554 c 2,49,50
 790 550 790 550 793 543 c 1,51,52
 797 540 797 540 800.5 540 c 128,-1,53
 804 540 804 540 811 536 c 0,54,55
 960 476 960 476 1049 476 c 256,56,57
 1137 476 1137 476 1226.5 511.5 c 128,-1,58
 1316 547 1316 547 1429 637 c 1,59,-1
 1384 391 l 1,30,31
EndSplineSet
EndChar
StartChar: Delta
Encoding: 8710 8710 168
Width: 1414
VWidth: 3555
Flags: W
HStem: 0 252<252 899>
Fore
252 252 m 1,0,-1
 899 252 l 1,1,-1
 743 1102 l 1,2,-1
 252 252 l 1,0,-1
967 1465 m 1,3,-1
 1238 0 l 1,4,-1
 -177 0 l 1,5,-1
 665 1465 l 1,6,-1
 967 1465 l 1,3,-1
EndSplineSet
EndChar
StartChar: guillemotleft
Encoding: 171 171 169
Width: 1310
VWidth: 3555
Flags: W
HStem: 139 916<495 672>
Fore
625 818 m 1,0,-1
 292 594 l 1,1,-1
 540 377 l 1,2,-1
 495 139 l 1,3,-1
 75 505 l 1,4,-1
 109 686 l 1,5,-1
 672 1055 l 1,6,-1
 625 818 l 1,0,-1
1102 818 m 1,7,-1
 767 594 l 1,8,-1
 1017 377 l 1,9,-1
 970 139 l 1,10,-1
 550 505 l 1,11,-1
 587 686 l 1,12,-1
 1149 1055 l 1,13,-1
 1102 818 l 1,7,-1
EndSplineSet
EndChar
StartChar: guillemotright
Encoding: 187 187 170
Width: 1310
VWidth: 3555
Flags: W
HStem: 139 916<516 693>
Fore
1113 686 m 1,0,-1
 1078 505 l 1,1,-1
 516 139 l 1,2,-1
 562 377 l 1,3,-1
 892 594 l 1,4,-1
 648 818 l 1,5,-1
 693 1055 l 1,6,-1
 1113 686 l 1,0,-1
634 686 m 1,7,-1
 597 505 l 1,8,-1
 40 139 l 1,9,-1
 85 377 l 1,10,-1
 420 594 l 1,11,-1
 170 818 l 1,12,-1
 217 1055 l 1,13,-1
 634 686 l 1,7,-1
EndSplineSet
EndChar
StartChar: ellipsis
Encoding: 8230 8230 171
Width: 2032
VWidth: 3555
Flags: W
HStem: 0 384<54 342 733 1017 1411 1693>
Fore
1764 384 m 1,0,-1
 1693 0 l 1,1,-1
 1340 0 l 1,2,-1
 1411 384 l 1,3,-1
 1764 384 l 1,0,-1
413 384 m 1,4,-1
 342 0 l 1,5,-1
 -17 0 l 1,6,-1
 54 384 l 1,7,-1
 413 384 l 1,4,-1
1088 384 m 1,8,-1
 1017 0 l 1,9,-1
 661 0 l 1,10,-1
 733 384 l 1,11,-1
 1088 384 l 1,8,-1
EndSplineSet
EndChar
StartChar: Agrave
Encoding: 192 192 173
Width: 1574
VWidth: 3555
Flags: W
HStem: 0 21G<-167 224.996 999.827 1387> 271 269<509 913> 1463 20G<656.739 1126.56>
Fore
363 271 m 1,0,-1
 214 0 l 1,1,-1
 -167 0 l 1,2,-1
 668 1483 l 1,3,-1
 1123 1483 l 1,4,-1
 1387 0 l 1,5,-1
 1003 0 l 1,6,-1
 960 271 l 1,7,-1
 363 271 l 1,0,-1
913 540 m 1,8,-1
 832 1134 l 1,9,-1
 509 540 l 1,10,-1
 913 540 l 1,8,-1
1042 1621 m 1,11,-1
 849 1621 l 1,12,-1
 618 1887 l 1,13,-1
 899 1887 l 1,14,-1
 1042 1621 l 1,11,-1
EndSplineSet
EndChar
StartChar: Atilde
Encoding: 195 195 174
Width: 1574
VWidth: 3555
Flags: W
HStem: 0 21G<-167 224.996 999.827 1387> 271 269<509 913> 1463 20G<656.739 1126.56> 1621 150<1016.29 1125.14> 1738 149<722.165 842.035>
Fore
363 271 m 1,0,-1
 214 0 l 1,1,-1
 -167 0 l 1,2,-1
 668 1483 l 1,3,-1
 1123 1483 l 1,4,-1
 1387 0 l 1,5,-1
 1003 0 l 1,6,-1
 960 271 l 1,7,-1
 363 271 l 1,0,-1
913 540 m 1,8,-1
 832 1134 l 1,9,-1
 509 540 l 1,10,-1
 913 540 l 1,8,-1
861 1703 m 2,11,12
 858 1706 858 1706 856 1706 c 128,-1,13
 854 1706 854 1706 849 1710 c 0,14,15
 804 1738 804 1738 786 1738 c 0,16,17
 753 1738 753 1738 726.5 1708.5 c 128,-1,18
 700 1679 700 1679 689 1625 c 1,19,-1
 689 1621 l 1,20,-1
 550 1621 l 1,21,-1
 559 1649 l 2,22,23
 576 1757 576 1757 644 1822 c 128,-1,24
 712 1887 712 1887 800 1887 c 0,25,26
 861 1887 861 1887 939 1838 c 2,27,-1
 988 1798 l 2,28,29
 1028 1771 1028 1771 1055 1771 c 0,30,31
 1092 1771 1092 1771 1120.5 1801 c 128,-1,32
 1149 1831 1149 1831 1160 1887 c 1,33,-1
 1299 1887 l 1,34,35
 1293 1880 1293 1880 1289.5 1869.5 c 128,-1,36
 1286 1859 1286 1859 1286 1856 c 0,37,38
 1266 1753 1266 1753 1200 1687 c 128,-1,39
 1134 1621 1134 1621 1045 1621 c 0,40,41
 1007 1621 1007 1621 973 1631.5 c 128,-1,42
 939 1642 939 1642 910 1672 c 1,43,-1
 861 1703 l 2,11,12
EndSplineSet
EndChar
StartChar: Otilde
Encoding: 213 213 175
Width: 1727
VWidth: 3555
Flags: W
HStem: -28 273<563.312 916.788> 1234 273<742.379 1091.29> 1621 150<1097.61 1207.95> 1738 149<804.095 923.89>
Fore
929 1234 m 0,0,1
 746 1234 746 1234 627.5 1104 c 128,-1,2
 509 974 509 974 462 740 c 256,3,4
 417 505 417 505 485.5 375 c 128,-1,5
 554 245 554 245 736 245 c 0,6,7
 906 245 906 245 1029.5 375 c 128,-1,8
 1153 505 1153 505 1198 740 c 256,9,10
 1245 974 1245 974 1172 1104 c 128,-1,11
 1099 1234 1099 1234 929 1234 c 0,0,1
981 1507 m 256,12,13
 1344 1507 1344 1507 1502 1304.5 c 128,-1,14
 1660 1102 1660 1102 1588 740 c 256,15,16
 1517 377 1517 377 1281 174.5 c 128,-1,17
 1045 -28 1045 -28 682 -28 c 256,18,19
 319 -28 319 -28 156 174.5 c 128,-1,20
 -7 377 -7 377 64 740 c 256,21,22
 135 1102 135 1102 376.5 1304.5 c 128,-1,23
 618 1507 618 1507 981 1507 c 256,12,13
943 1703 m 2,24,25
 939 1706 939 1706 937.5 1706 c 128,-1,26
 936 1706 936 1706 932 1710 c 0,27,28
 885 1738 885 1738 868 1738 c 0,29,30
 835 1738 835 1738 809 1708.5 c 128,-1,31
 783 1679 783 1679 771 1625 c 1,32,-1
 771 1621 l 1,33,-1
 634 1621 l 1,34,-1
 641 1649 l 2,35,36
 658 1757 658 1757 725.5 1822 c 128,-1,37
 793 1887 793 1887 882 1887 c 0,38,39
 943 1887 943 1887 1021 1838 c 2,40,-1
 1069 1798 l 2,41,42
 1109 1771 1109 1771 1137 1771 c 0,43,44
 1174 1771 1174 1771 1202.5 1801 c 128,-1,45
 1231 1831 1231 1831 1241 1887 c 1,46,-1
 1380 1887 l 1,47,48
 1377 1880 1377 1880 1372.5 1869.5 c 128,-1,49
 1368 1859 1368 1859 1368 1856 c 0,50,51
 1347 1753 1347 1753 1281 1687 c 128,-1,52
 1215 1621 1215 1621 1127 1621 c 0,53,54
 1088 1621 1088 1621 1054.5 1631.5 c 128,-1,55
 1021 1642 1021 1642 991 1672 c 1,56,-1
 943 1703 l 2,24,25
EndSplineSet
EndChar
StartChar: OE
Encoding: 338 338 176
Width: 2371
VWidth: 3555
Flags: W
HStem: 0 288<662.829 1049 1429 2048> 628 285<1550 2104> 1194 289<813.016 1227 1608 2257>
Fore
1120 1194 m 2,0,1
 547 1194 547 1194 462 743 c 0,2,3
 377 288 377 288 943 288 c 2,4,-1
 1049 288 l 1,5,-1
 1227 1194 l 1,6,-1
 1120 1194 l 2,0,1
2314 1483 m 1,7,-1
 2257 1194 l 1,8,-1
 1608 1194 l 1,9,-1
 1550 913 l 1,10,-1
 2158 913 l 1,11,-1
 2104 628 l 1,12,-1
 1496 628 l 1,13,-1
 1429 288 l 1,14,-1
 2101 288 l 1,15,-1
 2048 0 l 1,16,-1
 906 0 l 1,17,-1
 832 0 l 2,18,19
 391 0 391 0 192 190 c 128,-1,20
 -7 380 -7 380 64 743 c 0,21,22
 135 1099 135 1099 407 1291 c 128,-1,23
 679 1483 679 1483 1120 1483 c 2,24,-1
 1194 1483 l 1,25,-1
 2314 1483 l 1,7,-1
EndSplineSet
EndChar
StartChar: oe
Encoding: 339 339 177
Width: 2225
VWidth: 3555
Flags: W
HStem: -28 252<432.344 710.593> -28 235<1283.2 1603.32> 458 217<1252 1713> 882 255<537.995 821.237> 899 238<1380.93 1667.78>
Fore
1713 675 m 1,0,1
 1734 779 1734 779 1684.5 839 c 128,-1,2
 1635 899 1635 899 1543 899 c 0,3,4
 1443 899 1443 899 1366.5 844.5 c 128,-1,5
 1290 790 1290 790 1252 675 c 1,6,-1
 1713 675 l 1,0,1
2038 458 m 1,7,-1
 1208 458 l 1,8,9
 1191 335 1191 335 1258.5 271 c 128,-1,10
 1326 207 1326 207 1465 207 c 0,11,12
 1575 207 1575 207 1696.5 240.5 c 128,-1,13
 1818 274 1818 274 1958 342 c 1,14,-1
 1906 68 l 1,15,16
 1771 17 1771 17 1639 -5.5 c 128,-1,17
 1507 -28 1507 -28 1387 -28 c 0,18,19
 1215 -28 1215 -28 1121.5 13 c 128,-1,20
 1028 54 1028 54 970 139 c 1,21,22
 764 -28 764 -28 512 -28 c 0,23,24
 224 -28 224 -28 92 125 c 128,-1,25
 -40 278 -40 278 14 554 c 256,26,27
 68 832 68 832 259.5 984.5 c 128,-1,28
 451 1137 451 1137 740 1137 c 0,29,30
 1007 1137 1007 1137 1127 970 c 1,31,32
 1227 1055 1227 1055 1333 1096 c 128,-1,33
 1439 1137 1439 1137 1575 1137 c 0,34,35
 1852 1137 1852 1137 1980 982.5 c 128,-1,36
 2108 828 2108 828 2055 559 c 2,37,-1
 2038 458 l 1,7,-1
689 882 m 0,38,39
 448 882 448 882 387 554 c 0,40,41
 356 394 356 394 400 309 c 128,-1,42
 444 224 444 224 562 224 c 0,43,44
 682 224 682 224 758.5 309 c 128,-1,45
 835 394 835 394 868 554 c 0,46,47
 929 882 929 882 689 882 c 0,38,39
EndSplineSet
EndChar
StartChar: endash
Encoding: 8211 8211 178
Width: 1015
VWidth: 3555
Flags: W
HStem: 431 255<-47 920>
Fore
970 686 m 1,0,-1
 920 431 l 1,1,-1
 -95 431 l 1,2,-1
 -47 686 l 1,3,-1
 970 686 l 1,0,-1
EndSplineSet
EndChar
StartChar: emdash
Encoding: 8212 8212 179
Width: 2032
VWidth: 3555
Flags: W
HStem: 431 255<-47 1937>
Fore
1988 686 m 1,0,-1
 1937 431 l 1,1,-1
 -95 431 l 1,2,-1
 -47 686 l 1,3,-1
 1988 686 l 1,0,-1
EndSplineSet
EndChar
StartChar: quotedblleft
Encoding: 8220 8220 180
Width: 1333
VWidth: 3555
Flags: W
HStem: 854 629<696 1045>
Fore
696 854 m 1,0,-1
 750 1130 l 1,1,-1
 1045 1483 l 1,2,-1
 1262 1483 l 1,3,-1
 1088 1130 l 1,4,-1
 1035 854 l 1,5,-1
 696 854 l 1,0,-1
196 854 m 1,6,-1
 252 1134 l 1,7,-1
 547 1483 l 1,8,-1
 757 1483 l 1,9,-1
 587 1134 l 1,10,-1
 529 854 l 1,11,-1
 196 854 l 1,6,-1
EndSplineSet
EndChar
StartChar: quotedblright
Encoding: 8221 8221 181
Width: 1333
VWidth: 3555
Flags: W
HStem: 854 629<384 733>
Fore
733 1483 m 1,0,-1
 675 1198 l 1,1,-1
 384 854 l 1,2,-1
 170 854 l 1,3,-1
 342 1198 l 1,4,-1
 398 1483 l 1,5,-1
 733 1483 l 1,0,-1
1238 1483 m 1,6,-1
 1180 1198 l 1,7,-1
 885 854 l 1,8,-1
 675 854 l 1,9,-1
 842 1198 l 1,10,-1
 899 1483 l 1,11,-1
 1238 1483 l 1,6,-1
EndSplineSet
EndChar
StartChar: quoteleft
Encoding: 8216 8216 182
Width: 770
VWidth: 3555
Flags: W
HStem: 854 629<196 547>
VStem: 196 561<854 1483>
Fore
196 854 m 1,0,-1
 252 1134 l 1,1,-1
 547 1483 l 1,2,-1
 757 1483 l 1,3,-1
 587 1134 l 1,4,-1
 529 854 l 1,5,-1
 196 854 l 1,0,-1
EndSplineSet
EndChar
StartChar: quoteright
Encoding: 8217 8217 183
Width: 770
VWidth: 3555
Flags: W
HStem: 854 629<326 675>
VStem: 118 557<854 1483>
Fore
675 1483 m 1,0,-1
 618 1198 l 1,1,-1
 326 854 l 1,2,-1
 118 854 l 1,3,-1
 281 1198 l 1,4,-1
 339 1483 l 1,5,-1
 675 1483 l 1,0,-1
EndSplineSet
EndChar
StartChar: divide
Encoding: 247 247 184
Width: 1701
VWidth: 3555
Flags: W
HStem: 85 306<594 842> 523 230<181 1408> 882 309<750 998>
Fore
903 391 m 1,0,-1
 842 85 l 1,1,-1
 533 85 l 1,2,-1
 594 391 l 1,3,-1
 903 391 l 1,0,-1
1059 1191 m 1,4,-1
 998 882 l 1,5,-1
 689 882 l 1,6,-1
 750 1191 l 1,7,-1
 1059 1191 l 1,4,-1
1455 753 m 1,8,-1
 1408 523 l 1,9,-1
 135 523 l 1,10,-1
 181 753 l 1,11,-1
 1455 753 l 1,8,-1
EndSplineSet
EndChar
StartChar: lozenge
Encoding: 9674 9674 185
Width: 1005
VWidth: 3555
Flags: W
VStem: -61 997<587 587>
Fore
61 587 m 1,0,-1
 281 -231 l 1,1,-1
 818 587 l 1,2,-1
 597 1397 l 1,3,-1
 61 587 l 1,0,-1
936 587 m 1,4,-1
 234 -472 l 1,5,-1
 -61 587 l 1,6,-1
 644 1639 l 1,7,-1
 936 587 l 1,4,-1
EndSplineSet
EndChar
StartChar: ydieresis
Encoding: 255 255 186
Width: 1321
VWidth: 3555
Flags: W
HStem: -441 234<-17 229.428> 1093 20G<61 421.032 956.443 1323> 1326 249<479 665 871 1055>
Fore
417 1113 m 1,0,-1
 569 359 l 1,1,-1
 967 1113 l 1,2,-1
 1323 1113 l 1,3,-1
 621 -102 l 2,4,5
 512 -292 512 -292 403.5 -366.5 c 128,-1,6
 295 -441 295 -441 146 -441 c 2,7,-1
 -64 -441 l 1,8,-1
 -17 -207 l 1,9,-1
 92 -207 l 2,10,11
 181 -207 181 -207 231 -178 c 128,-1,12
 281 -149 281 -149 316 -75 c 2,13,-1
 335 -47 l 1,14,-1
 61 1113 l 1,15,-1
 417 1113 l 1,0,-1
715 1575 m 1,16,-1
 665 1326 l 1,17,-1
 431 1326 l 1,18,-1
 479 1575 l 1,19,-1
 715 1575 l 1,16,-1
1106 1575 m 1,20,-1
 1055 1326 l 1,21,-1
 821 1326 l 1,22,-1
 871 1575 l 1,23,-1
 1106 1575 l 1,20,-1
EndSplineSet
EndChar
StartChar: Ydieresis
Encoding: 376 376 187
Width: 1470
VWidth: 3555
Flags: W
HStem: 0 21G<363 753.897> 1463 20G<92 517.83 1170.25 1604> 1639 248<587 771 977 1163>
Fore
509 1483 m 1,0,-1
 743 953 l 1,1,-1
 1187 1483 l 1,2,-1
 1604 1483 l 1,3,-1
 871 621 l 1,4,-1
 750 0 l 1,5,-1
 363 0 l 1,6,-1
 484 621 l 1,7,-1
 92 1483 l 1,8,-1
 509 1483 l 1,0,-1
821 1887 m 1,9,-1
 771 1639 l 1,10,-1
 536 1639 l 1,11,-1
 587 1887 l 1,12,-1
 821 1887 l 1,9,-1
1212 1887 m 1,13,-1
 1163 1639 l 1,14,-1
 929 1639 l 1,15,-1
 977 1887 l 1,16,-1
 1212 1887 l 1,13,-1
EndSplineSet
EndChar
StartChar: fraction
Encoding: 8725 8725 188
Width: 326
VWidth: 3555
Flags: W
HStem: -28 21G<-569 -340.084>
Fore
-569 -28 m 1,0,-1
 604 1451 l 1,1,-1
 821 1451 l 1,2,-1
 -356 -28 l 1,3,-1
 -569 -28 l 1,0,-1
EndSplineSet
EndChar
StartChar: currency
Encoding: 164 164 189
Width: 1293
VWidth: 3555
Flags: W
HStem: 210 210<421.526 695.574> 858 201<495.628 758.439>
Fore
57 64 m 1,0,-1
 -64 214 l 1,1,-1
 181 420 l 1,2,3
 160 465 160 465 158 519 c 128,-1,4
 156 573 156 573 167 637 c 0,5,6
 181 696 181 696 204 751.5 c 128,-1,7
 227 807 227 807 271 854 c 1,8,-1
 102 1055 l 1,9,-1
 285 1208 l 1,10,-1
 448 1003 l 1,11,12
 559 1059 559 1059 672 1059 c 0,13,14
 729 1059 729 1059 782 1047 c 128,-1,15
 835 1035 835 1035 885 1007 c 1,16,-1
 1130 1212 l 1,17,-1
 1252 1059 l 1,18,-1
 1003 858 l 1,19,20
 1042 740 1042 740 1021 637 c 0,21,22
 1010 573 1010 573 983.5 521 c 128,-1,23
 957 469 957 469 917 424 c 1,24,-1
 1085 217 l 1,25,-1
 899 68 l 1,26,-1
 736 271 l 1,27,28
 641 210 641 210 509 210 c 0,29,30
 451 210 451 210 403.5 222 c 128,-1,31
 356 234 356 234 306 267 c 1,32,-1
 57 64 l 1,0,-1
547 420 m 256,33,34
 641 420 641 420 717 480 c 128,-1,35
 793 540 793 540 811 637 c 0,36,37
 828 729 828 729 777 793.5 c 128,-1,38
 726 858 726 858 634 858 c 0,39,40
 543 858 543 858 468.5 793.5 c 128,-1,41
 394 729 394 729 377 637 c 0,42,43
 359 540 359 540 407 480 c 128,-1,44
 455 420 455 420 547 420 c 256,33,34
EndSplineSet
EndChar
StartChar: guilsinglleft
Encoding: 8249 8249 190
Width: 838
VWidth: 3555
Flags: W
HStem: 139 916<495 672>
VStem: 75 597<505 1055>
Fore
625 818 m 1,0,-1
 292 594 l 1,1,-1
 540 377 l 1,2,-1
 495 139 l 1,3,-1
 75 505 l 1,4,-1
 109 686 l 1,5,-1
 672 1055 l 1,6,-1
 625 818 l 1,0,-1
EndSplineSet
EndChar
StartChar: guilsinglright
Encoding: 8250 8250 191
Width: 838
VWidth: 3555
Flags: W
HStem: 139 916<40 217>
VStem: 40 594<139 686>
Fore
634 686 m 1,0,-1
 597 505 l 1,1,-1
 40 139 l 1,2,-1
 85 377 l 1,3,-1
 420 594 l 1,4,-1
 170 818 l 1,5,-1
 217 1055 l 1,6,-1
 634 686 l 1,0,-1
EndSplineSet
EndChar
StartChar: fi
Encoding: 64257 64257 192
Width: 1506
VWidth: 3555
Flags: W
HStem: 0 21G<40 401.902 800 1159.81> 861 252<82 207 611 967> 1252 295<1099 1397> 1312 235<675.557 977>
Fore
1455 1547 m 1,0,-1
 1397 1252 l 1,1,-1
 1042 1252 l 1,2,-1
 1099 1547 l 1,3,-1
 1455 1547 l 1,0,-1
977 1312 m 1,4,-1
 783 1312 l 2,5,6
 708 1312 708 1312 674.5 1283.5 c 128,-1,7
 641 1255 641 1255 628 1191 c 2,8,-1
 611 1113 l 1,9,-1
 1368 1113 l 1,10,-1
 1156 0 l 1,11,-1
 800 0 l 1,12,-1
 967 861 l 1,13,-1
 566 861 l 1,14,-1
 398 0 l 1,15,-1
 40 0 l 1,16,-1
 207 861 l 1,17,-1
 35 861 l 1,18,-1
 82 1113 l 1,19,-1
 252 1113 l 1,20,-1
 271 1191 l 2,21,22
 339 1547 339 1547 753 1547 c 2,23,-1
 1024 1547 l 1,24,-1
 977 1312 l 1,4,-1
EndSplineSet
Ligature2: "'liga' Standard Ligatures in Latin lookup 19 subtable" f i
EndChar
StartChar: fl
Encoding: 64258 64258 193
Width: 1506
VWidth: 3555
Flags: W
HStem: 0 21G<35 394.902 800 1159.87> 861 252<75 203 604 842> 1312 235<670.62 1052>
Fore
1455 1547 m 1,0,-1
 1156 0 l 1,1,-1
 800 0 l 1,2,-1
 1052 1312 l 1,3,-1
 783 1312 l 2,4,5
 705 1312 705 1312 669.5 1283.5 c 128,-1,6
 634 1255 634 1255 621 1191 c 2,7,-1
 604 1113 l 1,8,-1
 889 1113 l 1,9,-1
 842 861 l 1,10,-1
 559 861 l 1,11,-1
 391 0 l 1,12,-1
 35 0 l 1,13,-1
 203 861 l 1,14,-1
 28 861 l 1,15,-1
 75 1113 l 1,16,-1
 248 1113 l 1,17,-1
 267 1191 l 2,18,19
 335 1547 335 1547 750 1547 c 2,20,-1
 1455 1547 l 1,0,-1
EndSplineSet
Ligature2: "'liga' Standard Ligatures in Latin lookup 19 subtable" f l
EndChar
StartChar: daggerdbl
Encoding: 8225 8225 194
Width: 1015
VWidth: 3555
Flags: W
HStem: 177 243<-47 196 569 811> 871 235<89 330 705 946> 1463 20G<447.074 779>
Fore
779 1483 m 1,0,-1
 705 1106 l 1,1,-1
 991 1106 l 1,2,-1
 946 871 l 1,3,-1
 658 871 l 1,4,-1
 569 420 l 1,5,-1
 858 420 l 1,6,-1
 811 177 l 1,7,-1
 523 177 l 1,8,-1
 451 -196 l 1,9,-1
 125 -196 l 1,10,-1
 196 177 l 1,11,-1
 -92 177 l 1,12,-1
 -47 420 l 1,13,-1
 241 420 l 1,14,-1
 330 871 l 1,15,-1
 43 871 l 1,16,-1
 89 1106 l 1,17,-1
 377 1106 l 1,18,-1
 451 1483 l 1,19,-1
 779 1483 l 1,0,-1
EndSplineSet
EndChar
StartChar: periodcentered
Encoding: 183 183 195
Width: 770
VWidth: 3555
Flags: W
HStem: 516 380<200 488>
VStem: 128 431<516 896>
Fore
559 896 m 1,0,-1
 488 516 l 1,1,-1
 128 516 l 1,2,-1
 200 896 l 1,3,-1
 559 896 l 1,0,-1
EndSplineSet
EndChar
StartChar: quotesinglbase
Encoding: 8218 8218 196
Width: 770
VWidth: 3555
Flags: W
HStem: -245 629<128 476>
VStem: -78 554<-245 384>
Fore
476 384 m 1,0,-1
 424 99 l 1,1,-1
 128 -245 l 1,2,-1
 -78 -245 l 1,3,-1
 82 99 l 1,4,-1
 135 384 l 1,5,-1
 476 384 l 1,0,-1
EndSplineSet
EndChar
StartChar: quotedblbase
Encoding: 8222 8222 197
Width: 1333
VWidth: 3555
Flags: W
HStem: -245 629<128 476>
Fore
476 384 m 1,0,-1
 424 99 l 1,1,-1
 128 -245 l 1,2,-1
 -78 -245 l 1,3,-1
 82 99 l 1,4,-1
 135 384 l 1,5,-1
 476 384 l 1,0,-1
981 384 m 1,6,-1
 929 99 l 1,7,-1
 634 -245 l 1,8,-1
 420 -245 l 1,9,-1
 590 99 l 1,10,-1
 644 384 l 1,11,-1
 981 384 l 1,6,-1
EndSplineSet
EndChar
StartChar: perthousand
Encoding: 8240 8240 198
Width: 2928
VWidth: 3555
Flags: W
HStem: -28 170<1332.86 1526.21 2241.6 2444.3> 611 168<1403.57 1602.59 2314.52 2516.31> 705 166<357.472 555.444> 1340 167<433.719 631.457>
Fore
2425 611 m 0,0,1
 2272 611 2272 611 2229 377 c 256,2,3
 2187 142 2187 142 2331 142 c 0,4,5
 2486 142 2486 142 2528 377 c 256,6,7
 2571 611 2571 611 2425 611 c 0,0,1
2456 779 m 0,8,9
 2639 779 2639 779 2725.5 670.5 c 128,-1,10
 2812 562 2812 562 2772 377 c 0,11,12
 2734 184 2734 184 2608 78 c 128,-1,13
 2482 -28 2482 -28 2300 -28 c 0,14,15
 2108 -28 2108 -28 2022.5 78 c 128,-1,16
 1937 184 1937 184 1977 377 c 0,17,18
 2015 562 2015 562 2140 670.5 c 128,-1,19
 2265 779 2265 779 2456 779 c 0,8,9
543 1340 m 0,20,21
 394 1340 394 1340 345 1106 c 0,22,23
 299 871 299 871 451 871 c 0,24,25
 519 871 519 871 568.5 929.5 c 128,-1,26
 618 988 618 988 644 1106 c 256,27,28
 668 1224 668 1224 639.5 1282 c 128,-1,29
 611 1340 611 1340 543 1340 c 0,20,21
576 1507 m 256,30,31
 760 1507 760 1507 848 1403 c 128,-1,32
 936 1299 936 1299 896 1106 c 256,33,34
 858 913 858 913 731 809 c 128,-1,35
 604 705 604 705 420 705 c 256,36,37
 234 705 234 705 149 809 c 128,-1,38
 64 913 64 913 102 1106 c 256,39,40
 142 1299 142 1299 266.5 1403 c 128,-1,41
 391 1507 391 1507 576 1507 c 256,30,31
264 -28 m 1,42,-1
 1486 1507 l 1,43,-1
 1706 1507 l 1,44,-1
 479 -28 l 1,45,-1
 264 -28 l 1,42,-1
1547 779 m 256,46,47
 1731 779 1731 779 1818.5 670.5 c 128,-1,48
 1906 562 1906 562 1866 377 c 0,49,50
 1828 184 1828 184 1701.5 78 c 128,-1,51
 1575 -28 1575 -28 1391 -28 c 256,52,53
 1205 -28 1205 -28 1118 78 c 128,-1,54
 1031 184 1031 184 1069 377 c 0,55,56
 1109 562 1109 562 1235 670.5 c 128,-1,57
 1361 779 1361 779 1547 779 c 256,46,47
1514 611 m 0,58,59
 1361 611 1361 611 1319 377 c 256,60,61
 1276 142 1276 142 1422 142 c 0,62,63
 1489 142 1489 142 1541.5 203 c 128,-1,64
 1594 264 1594 264 1614 377 c 0,65,66
 1656 611 1656 611 1514 611 c 0,58,59
EndSplineSet
EndChar
StartChar: Acircumflex
Encoding: 194 194 199
Width: 1574
VWidth: 3555
Flags: W
HStem: 0 21G<-167 224.996 999.827 1387> 271 269<509 913> 1463 20G<656.739 1126.56>
Fore
363 271 m 1,0,-1
 214 0 l 1,1,-1
 -167 0 l 1,2,-1
 668 1483 l 1,3,-1
 1123 1483 l 1,4,-1
 1387 0 l 1,5,-1
 1003 0 l 1,6,-1
 960 271 l 1,7,-1
 363 271 l 1,0,-1
913 540 m 1,8,-1
 832 1134 l 1,9,-1
 509 540 l 1,10,-1
 913 540 l 1,8,-1
1102 1887 m 1,11,-1
 1269 1621 l 1,12,-1
 1095 1621 l 1,13,-1
 932 1781 l 1,14,-1
 696 1621 l 1,15,-1
 523 1621 l 1,16,-1
 797 1887 l 1,17,-1
 1102 1887 l 1,11,-1
EndSplineSet
EndChar
StartChar: Ecircumflex
Encoding: 202 202 200
Width: 1385
VWidth: 3555
Flags: W
HStem: 0 288<444 1059> 628 285<566 1123> 1194 289<621 1276>
Fore
1333 1483 m 1,0,-1
 1276 1194 l 1,1,-1
 621 1194 l 1,2,-1
 566 913 l 1,3,-1
 1177 913 l 1,4,-1
 1123 628 l 1,5,-1
 512 628 l 1,6,-1
 444 288 l 1,7,-1
 1113 288 l 1,8,-1
 1059 0 l 1,9,-1
 7 0 l 1,10,-1
 295 1483 l 1,11,-1
 1333 1483 l 1,0,-1
1028 1887 m 1,12,-1
 1194 1621 l 1,13,-1
 1021 1621 l 1,14,-1
 858 1781 l 1,15,-1
 621 1621 l 1,16,-1
 448 1621 l 1,17,-1
 722 1887 l 1,18,-1
 1028 1887 l 1,12,-1
EndSplineSet
EndChar
StartChar: Aacute
Encoding: 193 193 201
Width: 1574
VWidth: 3555
Flags: W
HStem: 0 21G<-167 224.996 999.827 1387> 271 269<509 913> 1463 20G<656.739 1126.56>
Fore
363 271 m 1,0,-1
 214 0 l 1,1,-1
 -167 0 l 1,2,-1
 668 1483 l 1,3,-1
 1123 1483 l 1,4,-1
 1387 0 l 1,5,-1
 1003 0 l 1,6,-1
 960 271 l 1,7,-1
 363 271 l 1,0,-1
913 540 m 1,8,-1
 832 1134 l 1,9,-1
 509 540 l 1,10,-1
 913 540 l 1,8,-1
1279 1887 m 1,11,-1
 946 1621 l 1,12,-1
 750 1621 l 1,13,-1
 998 1887 l 1,14,-1
 1279 1887 l 1,11,-1
EndSplineSet
EndChar
StartChar: Edieresis
Encoding: 203 203 202
Width: 1385
VWidth: 3555
Flags: W
HStem: 0 288<444 1059> 628 285<566 1123> 1194 289<621 1276> 1639 248<562 746 953 1137>
Fore
1333 1483 m 1,0,-1
 1276 1194 l 1,1,-1
 621 1194 l 1,2,-1
 566 913 l 1,3,-1
 1177 913 l 1,4,-1
 1123 628 l 1,5,-1
 512 628 l 1,6,-1
 444 288 l 1,7,-1
 1113 288 l 1,8,-1
 1059 0 l 1,9,-1
 7 0 l 1,10,-1
 295 1483 l 1,11,-1
 1333 1483 l 1,0,-1
797 1887 m 1,12,-1
 746 1639 l 1,13,-1
 512 1639 l 1,14,-1
 562 1887 l 1,15,-1
 797 1887 l 1,12,-1
1187 1887 m 1,16,-1
 1137 1639 l 1,17,-1
 903 1639 l 1,18,-1
 953 1887 l 1,19,-1
 1187 1887 l 1,16,-1
EndSplineSet
EndChar
StartChar: Egrave
Encoding: 200 200 203
Width: 1385
VWidth: 3555
Flags: W
HStem: 0 288<444 1059> 628 285<566 1123> 1194 289<621 1276>
Fore
1333 1483 m 1,0,-1
 1276 1194 l 1,1,-1
 621 1194 l 1,2,-1
 566 913 l 1,3,-1
 1177 913 l 1,4,-1
 1123 628 l 1,5,-1
 512 628 l 1,6,-1
 444 288 l 1,7,-1
 1113 288 l 1,8,-1
 1059 0 l 1,9,-1
 7 0 l 1,10,-1
 295 1483 l 1,11,-1
 1333 1483 l 1,0,-1
967 1621 m 1,12,-1
 774 1621 l 1,13,-1
 543 1887 l 1,14,-1
 825 1887 l 1,15,-1
 967 1621 l 1,12,-1
EndSplineSet
EndChar
StartChar: Iacute
Encoding: 205 205 204
Width: 756
VWidth: 3555
Flags: W
HStem: 0 21G<7 394.884> 1463 20G<291.116 679>
VStem: 7 878<0 1887>
Fore
679 1483 m 1,0,-1
 391 0 l 1,1,-1
 7 0 l 1,2,-1
 295 1483 l 1,3,-1
 679 1483 l 1,0,-1
885 1887 m 1,4,-1
 550 1621 l 1,5,-1
 356 1621 l 1,6,-1
 604 1887 l 1,7,-1
 885 1887 l 1,4,-1
EndSplineSet
EndChar
StartChar: Icircumflex
Encoding: 206 206 205
Width: 756
VWidth: 3555
Flags: W
HStem: 0 21G<7 394.884> 1463 20G<291.116 679>
VStem: 7 868<0 1621>
Fore
679 1483 m 1,0,-1
 391 0 l 1,1,-1
 7 0 l 1,2,-1
 295 1483 l 1,3,-1
 679 1483 l 1,0,-1
708 1887 m 1,4,-1
 875 1621 l 1,5,-1
 700 1621 l 1,6,-1
 536 1781 l 1,7,-1
 302 1621 l 1,8,-1
 128 1621 l 1,9,-1
 401 1887 l 1,10,-1
 708 1887 l 1,4,-1
EndSplineSet
EndChar
StartChar: Idieresis
Encoding: 207 207 206
Width: 756
VWidth: 3555
Flags: W
HStem: 0 21G<7 394.884> 1463 20G<291.116 679> 1639 248<241 427 634 818>
VStem: 7 861<0 1887>
Fore
679 1483 m 1,0,-1
 391 0 l 1,1,-1
 7 0 l 1,2,-1
 295 1483 l 1,3,-1
 679 1483 l 1,0,-1
476 1887 m 1,4,-1
 427 1639 l 1,5,-1
 193 1639 l 1,6,-1
 241 1887 l 1,7,-1
 476 1887 l 1,4,-1
868 1887 m 1,8,-1
 818 1639 l 1,9,-1
 583 1639 l 1,10,-1
 634 1887 l 1,11,-1
 868 1887 l 1,8,-1
EndSplineSet
EndChar
StartChar: Igrave
Encoding: 204 204 207
Width: 756
VWidth: 3555
Flags: W
HStem: 0 21G<7 394.884> 1463 20G<291.116 679>
VStem: 7 672<0 1483>
Fore
679 1483 m 1,0,-1
 391 0 l 1,1,-1
 7 0 l 1,2,-1
 295 1483 l 1,3,-1
 679 1483 l 1,0,-1
648 1621 m 1,4,-1
 455 1621 l 1,5,-1
 224 1887 l 1,6,-1
 505 1887 l 1,7,-1
 648 1621 l 1,4,-1
EndSplineSet
EndChar
StartChar: Oacute
Encoding: 211 211 208
Width: 1727
VWidth: 3555
Flags: W
HStem: -28 273<563.312 916.788> 1234 273<742.379 1091.29>
Fore
929 1234 m 0,0,1
 746 1234 746 1234 627.5 1104 c 128,-1,2
 509 974 509 974 462 740 c 256,3,4
 417 505 417 505 485.5 375 c 128,-1,5
 554 245 554 245 736 245 c 0,6,7
 906 245 906 245 1029.5 375 c 128,-1,8
 1153 505 1153 505 1198 740 c 256,9,10
 1245 974 1245 974 1172 1104 c 128,-1,11
 1099 1234 1099 1234 929 1234 c 0,0,1
981 1507 m 256,12,13
 1344 1507 1344 1507 1502 1304.5 c 128,-1,14
 1660 1102 1660 1102 1588 740 c 256,15,16
 1517 377 1517 377 1281 174.5 c 128,-1,17
 1045 -28 1045 -28 682 -28 c 256,18,19
 319 -28 319 -28 156 174.5 c 128,-1,20
 -7 377 -7 377 64 740 c 256,21,22
 135 1102 135 1102 376.5 1304.5 c 128,-1,23
 618 1507 618 1507 981 1507 c 256,12,13
1361 1887 m 1,24,-1
 1028 1621 l 1,25,-1
 832 1621 l 1,26,-1
 1082 1887 l 1,27,-1
 1361 1887 l 1,24,-1
EndSplineSet
EndChar
StartChar: Ocircumflex
Encoding: 212 212 209
Width: 1727
VWidth: 3555
Flags: W
HStem: -28 273<563.312 916.788> 1234 273<742.379 1091.29>
Fore
929 1234 m 0,0,1
 746 1234 746 1234 627.5 1104 c 128,-1,2
 509 974 509 974 462 740 c 256,3,4
 417 505 417 505 485.5 375 c 128,-1,5
 554 245 554 245 736 245 c 0,6,7
 906 245 906 245 1029.5 375 c 128,-1,8
 1153 505 1153 505 1198 740 c 256,9,10
 1245 974 1245 974 1172 1104 c 128,-1,11
 1099 1234 1099 1234 929 1234 c 0,0,1
981 1507 m 256,12,13
 1344 1507 1344 1507 1502 1304.5 c 128,-1,14
 1660 1102 1660 1102 1588 740 c 256,15,16
 1517 377 1517 377 1281 174.5 c 128,-1,17
 1045 -28 1045 -28 682 -28 c 256,18,19
 319 -28 319 -28 156 174.5 c 128,-1,20
 -7 377 -7 377 64 740 c 256,21,22
 135 1102 135 1102 376.5 1304.5 c 128,-1,23
 618 1507 618 1507 981 1507 c 256,12,13
1184 1887 m 1,24,-1
 1351 1621 l 1,25,-1
 1177 1621 l 1,26,-1
 1014 1781 l 1,27,-1
 779 1621 l 1,28,-1
 604 1621 l 1,29,-1
 878 1887 l 1,30,-1
 1184 1887 l 1,24,-1
EndSplineSet
EndChar
StartChar: Ograve
Encoding: 210 210 210
Width: 1727
VWidth: 3555
Flags: W
HStem: -28 273<563.312 916.788> 1234 273<742.379 1091.29>
Fore
929 1234 m 0,0,1
 746 1234 746 1234 627.5 1104 c 128,-1,2
 509 974 509 974 462 740 c 256,3,4
 417 505 417 505 485.5 375 c 128,-1,5
 554 245 554 245 736 245 c 0,6,7
 906 245 906 245 1029.5 375 c 128,-1,8
 1153 505 1153 505 1198 740 c 256,9,10
 1245 974 1245 974 1172 1104 c 128,-1,11
 1099 1234 1099 1234 929 1234 c 0,0,1
981 1507 m 256,12,13
 1344 1507 1344 1507 1502 1304.5 c 128,-1,14
 1660 1102 1660 1102 1588 740 c 256,15,16
 1517 377 1517 377 1281 174.5 c 128,-1,17
 1045 -28 1045 -28 682 -28 c 256,18,19
 319 -28 319 -28 156 174.5 c 128,-1,20
 -7 377 -7 377 64 740 c 256,21,22
 135 1102 135 1102 376.5 1304.5 c 128,-1,23
 618 1507 618 1507 981 1507 c 256,12,13
1123 1621 m 1,24,-1
 932 1621 l 1,25,-1
 700 1887 l 1,26,-1
 981 1887 l 1,27,-1
 1123 1621 l 1,24,-1
EndSplineSet
EndChar
StartChar: Uacute
Encoding: 218 218 211
Width: 1649
VWidth: 3555
Flags: W
HStem: -28 276<544.843 859.706> 1463 20G<291.108 679 1190.11 1575>
Fore
679 1483 m 1,0,-1
 505 594 l 2,1,2
 469 413 469 413 514 330.5 c 128,-1,3
 559 248 559 248 693 248 c 256,4,5
 828 248 828 248 906 330.5 c 128,-1,6
 984 413 984 413 1021 594 c 2,7,-1
 1194 1483 l 1,8,-1
 1575 1483 l 1,9,-1
 1401 594 l 2,10,11
 1340 281 1340 281 1155 126.5 c 128,-1,12
 970 -28 970 -28 641 -28 c 0,13,14
 0 -28 0 -28 122 594 c 2,15,-1
 295 1483 l 1,16,-1
 679 1483 l 1,0,-1
1319 1887 m 1,17,-1
 984 1621 l 1,18,-1
 790 1621 l 1,19,-1
 1038 1887 l 1,20,-1
 1319 1887 l 1,17,-1
EndSplineSet
EndChar
StartChar: Ucircumflex
Encoding: 219 219 212
Width: 1649
VWidth: 3555
Flags: W
HStem: -28 276<544.843 859.706> 1463 20G<291.108 679 1190.11 1575>
Fore
679 1483 m 1,0,-1
 505 594 l 2,1,2
 469 413 469 413 514 330.5 c 128,-1,3
 559 248 559 248 693 248 c 256,4,5
 828 248 828 248 906 330.5 c 128,-1,6
 984 413 984 413 1021 594 c 2,7,-1
 1194 1483 l 1,8,-1
 1575 1483 l 1,9,-1
 1401 594 l 2,10,11
 1340 281 1340 281 1155 126.5 c 128,-1,12
 970 -28 970 -28 641 -28 c 0,13,14
 0 -28 0 -28 122 594 c 2,15,-1
 295 1483 l 1,16,-1
 679 1483 l 1,0,-1
1141 1887 m 1,17,-1
 1309 1621 l 1,18,-1
 1134 1621 l 1,19,-1
 970 1781 l 1,20,-1
 736 1621 l 1,21,-1
 562 1621 l 1,22,-1
 835 1887 l 1,23,-1
 1141 1887 l 1,17,-1
EndSplineSet
EndChar
StartChar: Ugrave
Encoding: 217 217 213
Width: 1649
VWidth: 3555
Flags: W
HStem: -28 276<544.843 859.706> 1463 20G<291.108 679 1190.11 1575>
Fore
679 1483 m 1,0,-1
 505 594 l 2,1,2
 469 413 469 413 514 330.5 c 128,-1,3
 559 248 559 248 693 248 c 256,4,5
 828 248 828 248 906 330.5 c 128,-1,6
 984 413 984 413 1021 594 c 2,7,-1
 1194 1483 l 1,8,-1
 1575 1483 l 1,9,-1
 1401 594 l 2,10,11
 1340 281 1340 281 1155 126.5 c 128,-1,12
 970 -28 970 -28 641 -28 c 0,13,14
 0 -28 0 -28 122 594 c 2,15,-1
 295 1483 l 1,16,-1
 679 1483 l 1,0,-1
1082 1621 m 1,17,-1
 889 1621 l 1,18,-1
 658 1887 l 1,19,-1
 939 1887 l 1,20,-1
 1082 1621 l 1,17,-1
EndSplineSet
EndChar
StartChar: dotlessi
Encoding: 305 305 214
Width: 692
VWidth: 3555
Flags: W
HStem: 0 21G<-7 355.845> 1093 20G<203.155 566>
VStem: -7 573<0 1113>
Fore
566 1113 m 1,0,-1
 352 0 l 1,1,-1
 -7 0 l 1,2,-1
 207 1113 l 1,3,-1
 566 1113 l 1,0,-1
EndSplineSet
EndChar
StartChar: circumflex
Encoding: 710 710 215
Width: 1015
VWidth: 3555
Flags: W
HStem: 1252 373<764 946>
VStem: 200 746<1252 1252>
Fore
764 1625 m 1,0,-1
 946 1252 l 1,1,-1
 771 1252 l 1,2,-1
 618 1476 l 1,3,-1
 373 1252 l 1,4,-1
 200 1252 l 1,5,-1
 523 1625 l 1,6,-1
 764 1625 l 1,0,-1
EndSplineSet
EndChar
StartChar: tilde
Encoding: 732 732 216
Width: 1015
VWidth: 3555
Flags: W
HStem: 1299 156<669.305 811.809> 1425 156<403.103 527.441>
VStem: 238 746<1571 1578 1302 1578>
Fore
547 1391 m 1,0,-1
 540 1397 l 1,1,2
 495 1425 495 1425 469 1425 c 0,3,4
 401 1425 401 1425 377 1309 c 1,5,-1
 377 1302 l 1,6,-1
 238 1302 l 1,7,8
 264 1432 264 1432 329 1506.5 c 128,-1,9
 394 1581 394 1581 488 1581 c 0,10,11
 543 1581 543 1581 625 1529 c 1,12,-1
 675 1483 l 2,13,14
 715 1455 715 1455 743 1455 c 0,15,16
 779 1455 779 1455 807 1486 c 128,-1,17
 835 1517 835 1517 842 1571 c 1,18,-1
 845 1578 l 1,19,-1
 984 1578 l 1,20,21
 957 1448 957 1448 889 1373.5 c 128,-1,22
 821 1299 821 1299 729 1299 c 0,23,24
 689 1299 689 1299 661.5 1309 c 128,-1,25
 634 1319 634 1319 594 1351 c 2,26,-1
 547 1391 l 1,0,-1
EndSplineSet
EndChar
StartChar: macron
Encoding: 175 175 217
Width: 1015
VWidth: 3555
Flags: W
HStem: 1354 193<316 906>
VStem: 281 662<1354 1547>
Fore
943 1547 m 1,0,-1
 906 1354 l 1,1,-1
 281 1354 l 1,2,-1
 316 1547 l 1,3,-1
 943 1547 l 1,0,-1
EndSplineSet
EndChar
StartChar: breve
Encoding: 728 728 218
Width: 1015
VWidth: 3555
Flags: W
HStem: 1302 153<483.431 754.837>
VStem: 306 668<1455 1492 1594 1594>
Fore
444 1594 m 1,0,1
 444 1529 444 1529 486.5 1492 c 128,-1,2
 529 1455 529 1455 615 1455 c 0,3,4
 693 1455 693 1455 750 1492 c 128,-1,5
 807 1529 807 1529 828 1594 c 1,6,-1
 974 1594 l 1,7,8
 936 1455 936 1455 836 1378.5 c 128,-1,9
 736 1302 736 1302 587 1302 c 0,10,11
 427 1302 427 1302 352.5 1378.5 c 128,-1,12
 278 1455 278 1455 306 1594 c 1,13,-1
 444 1594 l 1,0,1
EndSplineSet
EndChar
StartChar: dotaccent
Encoding: 729 729 219
Width: 1015
VWidth: 3555
Flags: W
HStem: 1326 249<502 722>
VStem: 451 320<1326 1575>
Fore
771 1575 m 1,0,-1
 722 1326 l 1,1,-1
 451 1326 l 1,2,-1
 502 1575 l 1,3,-1
 771 1575 l 1,0,-1
EndSplineSet
EndChar
StartChar: ring
Encoding: 730 730 220
Width: 1015
VWidth: 3555
Flags: W
HStem: 1238 156<516.917 663.059> 1649 153<586.488 738.395>
VStem: 342 568<1465 1526 1526 1581 1526 1526>
Fore
498 1526 m 0,0,1
 488 1469 488 1469 517.5 1431.5 c 128,-1,2
 547 1394 547 1394 604 1394 c 0,3,4
 654 1394 654 1394 700 1431.5 c 128,-1,5
 746 1469 746 1469 757 1526 c 0,6,7
 767 1575 767 1575 736 1612 c 128,-1,8
 705 1649 705 1649 654 1649 c 0,9,10
 597 1649 597 1649 553 1612 c 128,-1,11
 509 1575 509 1575 498 1526 c 0,0,1
342 1526 m 0,12,13
 352 1581 352 1581 384.5 1633.5 c 128,-1,14
 417 1686 417 1686 463 1723 c 128,-1,15
 509 1760 509 1760 565 1781 c 128,-1,16
 621 1802 621 1802 682 1802 c 0,17,18
 736 1802 736 1802 782 1781 c 128,-1,19
 828 1760 828 1760 860 1723 c 128,-1,20
 892 1686 892 1686 906 1633.5 c 128,-1,21
 920 1581 920 1581 910 1526 c 0,22,23
 899 1465 899 1465 865.5 1413 c 128,-1,24
 832 1361 832 1361 784 1322 c 128,-1,25
 736 1283 736 1283 680.5 1260.5 c 128,-1,26
 625 1238 625 1238 573 1238 c 0,27,28
 451 1238 451 1238 383.5 1321 c 128,-1,29
 316 1404 316 1404 342 1526 c 0,12,13
EndSplineSet
EndChar
StartChar: cedilla
Encoding: 184 184 221
Width: 1015
VWidth: 3555
Flags: W
HStem: -398 150<125.567 312.705> -20 20G<285 462.5>
VStem: 10 481<-220 -214 -373 -214>
Fore
420 0 m 1,0,1
 505 -128 505 -128 491 -214 c 0,2,3
 455 -398 455 -398 207 -398 c 0,4,5
 160 -398 160 -398 107 -391 c 128,-1,6
 54 -384 54 -384 10 -373 c 1,7,-1
 35 -220 l 1,8,9
 139 -248 139 -248 200 -248 c 0,10,11
 312 -248 312 -248 330 -167 c 0,12,13
 342 -118 342 -118 285 0 c 1,14,-1
 420 0 l 1,0,1
EndSplineSet
EndChar
StartChar: hungarumlaut
Encoding: 733 733 222
Width: 1015
VWidth: 3555
Flags: W
HStem: 1252 373<420 733>
VStem: 255 854<1252 1625>
Fore
733 1625 m 1,0,-1
 420 1252 l 1,1,-1
 255 1252 l 1,2,-1
 519 1625 l 1,3,-1
 733 1625 l 1,0,-1
1109 1625 m 1,4,-1
 767 1252 l 1,5,-1
 594 1252 l 1,6,-1
 882 1625 l 1,7,-1
 1109 1625 l 1,4,-1
EndSplineSet
EndChar
StartChar: ogonek
Encoding: 731 731 223
Width: 1015
VWidth: 3555
Flags: W
HStem: -398 150<304.944 433.605> -20 20G<237 413>
VStem: 118 422<-254.45 -248 -220 -220>
Fore
413 0 m 1,0,1
 345 -68 345 -68 322 -105 c 128,-1,2
 299 -142 299 -142 295 -163 c 0,3,4
 288 -203 288 -203 311.5 -225.5 c 128,-1,5
 335 -248 335 -248 380 -248 c 0,6,7
 420 -248 420 -248 459 -241 c 128,-1,8
 498 -234 498 -234 540 -220 c 1,9,-1
 512 -377 l 1,10,11
 401 -398 401 -398 319 -398 c 0,12,13
 85 -398 85 -398 118 -220 c 0,14,15
 128 -170 128 -170 164 -117 c 128,-1,16
 200 -64 200 -64 274 0 c 1,17,-1
 413 0 l 1,0,1
EndSplineSet
EndChar
StartChar: caron
Encoding: 711 711 224
Width: 1015
VWidth: 3555
Flags: W
HStem: 1252 373<271 693>
VStem: 271 746<1625 1625>
Fore
271 1625 m 1,0,-1
 444 1625 l 1,1,-1
 604 1401 l 1,2,-1
 842 1625 l 1,3,-1
 1017 1625 l 1,4,-1
 693 1252 l 1,5,-1
 451 1252 l 1,6,-1
 271 1625 l 1,0,-1
EndSplineSet
EndChar
StartChar: Lslash
Encoding: 321 321 225
Width: 1303
VWidth: 3555
Flags: W
HStem: 0 288<455 1069> 1463 20G<302.018 689>
Fore
689 1483 m 1,0,-1
 608 1066 l 1,1,-1
 896 1252 l 1,2,-1
 998 1059 l 1,3,-1
 554 793 l 1,4,-1
 455 288 l 1,5,-1
 1123 288 l 1,6,-1
 1069 0 l 1,7,-1
 17 0 l 1,8,-1
 118 523 l 1,9,-1
 -47 417 l 1,10,-1
 -156 601 l 1,11,-1
 170 800 l 1,12,-1
 306 1483 l 1,13,-1
 689 1483 l 1,0,-1
EndSplineSet
EndChar
StartChar: lslash
Encoding: 322 322 226
Width: 753
VWidth: 3555
Flags: W
HStem: 0 21G<17 380.8> 1114 20G<693.191 736.196>
VStem: -82 886<705 981>
Fore
675 1547 m 1,0,-1
 580 1045 l 1,1,-1
 726 1134 l 1,2,-1
 804 981 l 1,3,-1
 533 821 l 1,4,-1
 377 0 l 1,5,-1
 17 0 l 1,6,-1
 139 637 l 1,7,-1
 0 547 l 1,8,-1
 -82 705 l 1,9,-1
 184 868 l 1,10,-1
 316 1547 l 1,11,-1
 675 1547 l 1,0,-1
EndSplineSet
EndChar
StartChar: Scaron
Encoding: 352 352 227
Width: 1463
VWidth: 3555
Flags: W
HStem: -28 273<305.58 750.041> 1123 21G<1203 1265.95> 1234 273<604.144 994.419>
Fore
1262 1123 m 1,0,1
 1144 1177 1144 1177 1036.5 1205.5 c 128,-1,2
 929 1234 929 1234 821 1234 c 0,3,4
 679 1234 679 1234 609.5 1197 c 128,-1,5
 540 1160 540 1160 526 1082 c 0,6,7
 512 1017 512 1017 547.5 983.5 c 128,-1,8
 583 950 583 950 693 929 c 2,9,-1
 854 892 l 2,10,11
 1092 845 1092 845 1177 746.5 c 128,-1,12
 1262 648 1262 648 1224 455 c 0,13,14
 1174 210 1174 210 1008 91 c 128,-1,15
 842 -28 842 -28 540 -28 c 0,16,17
 260 -28 260 -28 -3 78 c 1,18,-1
 57 398 l 1,19,20
 184 323 184 323 309 284 c 128,-1,21
 434 245 434 245 559 245 c 256,22,23
 682 245 682 245 755 290 c 128,-1,24
 828 335 828 335 845 413 c 0,25,26
 861 476 861 476 825.5 515 c 128,-1,27
 790 554 790 554 654 583 c 2,28,-1
 512 615 l 2,29,30
 299 665 299 665 219 770 c 128,-1,31
 139 875 139 875 174 1049 c 0,32,33
 217 1272 217 1272 380 1389.5 c 128,-1,34
 543 1507 543 1507 811 1507 c 0,35,36
 936 1507 936 1507 1061.5 1489.5 c 128,-1,37
 1187 1472 1187 1472 1323 1432 c 1,38,-1
 1262 1123 l 1,0,1
523 1887 m 1,39,-1
 696 1887 l 1,40,-1
 868 1720 l 1,41,-1
 1095 1887 l 1,42,-1
 1269 1887 l 1,43,-1
 995 1621 l 1,44,-1
 689 1621 l 1,45,-1
 523 1887 l 1,39,-1
EndSplineSet
EndChar
StartChar: scaron
Encoding: 353 353 228
Width: 1208
VWidth: 3555
Flags: W
HStem: -28 235<204.925 615.734> 899 238<429.247 809.295>
Fore
1017 807 m 1,0,1
 910 858 910 858 811 878.5 c 128,-1,2
 712 899 712 899 611 899 c 0,3,4
 417 899 417 899 394 800 c 0,5,6
 387 757 387 757 421 734.5 c 128,-1,7
 455 712 455 712 547 696 c 2,8,-1
 604 689 l 2,9,10
 878 658 878 658 950 580 c 0,11,12
 1031 498 1031 498 995 326 c 0,13,14
 932 -28 932 -28 404 -28 c 0,15,16
 299 -28 299 -28 181.5 -12.5 c 128,-1,17
 64 3 64 3 -47 43 c 1,18,-1
 3 309 l 1,19,20
 200 207 200 207 427 207 c 0,21,22
 641 207 641 207 661 319 c 0,23,24
 672 370 672 370 638 393.5 c 128,-1,25
 604 417 604 417 498 431 c 2,26,-1
 434 437 l 2,27,28
 207 465 207 465 127 546.5 c 128,-1,29
 47 628 47 628 78 793 c 0,30,31
 142 1137 142 1137 641 1137 c 0,32,33
 832 1137 832 1137 1069 1082 c 1,34,-1
 1017 807 l 1,0,1
366 1625 m 1,35,-1
 540 1625 l 1,36,-1
 700 1401 l 1,37,-1
 939 1625 l 1,38,-1
 1113 1625 l 1,39,-1
 790 1252 l 1,40,-1
 547 1252 l 1,41,-1
 366 1625 l 1,35,-1
EndSplineSet
EndChar
StartChar: Zcaron
Encoding: 381 381 229
Width: 1473
VWidth: 3555
Flags: W
HStem: 0 288<441 1205> 1194 289<227 939>
Fore
1469 1483 m 1,0,-1
 1422 1248 l 1,1,-1
 441 288 l 1,2,-1
 1259 288 l 1,3,-1
 1205 0 l 1,4,-1
 -85 0 l 1,5,-1
 -43 231 l 1,6,-1
 939 1194 l 1,7,-1
 170 1194 l 1,8,-1
 227 1483 l 1,9,-1
 1469 1483 l 1,0,-1
529 1887 m 1,10,-1
 705 1887 l 1,11,-1
 875 1720 l 1,12,-1
 1102 1887 l 1,13,-1
 1276 1887 l 1,14,-1
 1003 1621 l 1,15,-1
 696 1621 l 1,16,-1
 529 1887 l 1,10,-1
EndSplineSet
EndChar
StartChar: zcaron
Encoding: 382 382 230
Width: 1182
VWidth: 3555
Flags: W
HStem: 0 252<370 910> 861 252<153 665>
Fore
1123 1113 m 1,0,-1
 1078 868 l 1,1,-1
 370 252 l 1,2,-1
 957 252 l 1,3,-1
 910 0 l 1,4,-1
 -85 0 l 1,5,-1
 -40 245 l 1,6,-1
 665 861 l 1,7,-1
 106 861 l 1,8,-1
 153 1113 l 1,9,-1
 1123 1113 l 1,0,-1
352 1625 m 1,10,-1
 526 1625 l 1,11,-1
 686 1401 l 1,12,-1
 924 1625 l 1,13,-1
 1099 1625 l 1,14,-1
 774 1252 l 1,15,-1
 533 1252 l 1,16,-1
 352 1625 l 1,10,-1
EndSplineSet
EndChar
StartChar: brokenbar
Encoding: 166 166 231
Width: 743
VWidth: 3555
Flags: W
VStem: 10 573<-349 1422>
Fore
437 668 m 1,0,-1
 210 668 l 1,1,-1
 356 1422 l 1,2,-1
 583 1422 l 1,3,-1
 437 668 l 1,0,-1
238 -349 m 1,4,-1
 10 -349 l 1,5,-1
 156 401 l 1,6,-1
 384 401 l 1,7,-1
 238 -349 l 1,4,-1
EndSplineSet
EndChar
StartChar: Eth
Encoding: 208 208 232
Width: 1701
VWidth: 3555
Flags: W
HStem: 0 288<462 853.046> 615 263<24 146 580 760> 1194 289<641 1013.85>
Fore
580 878 m 1,0,-1
 814 878 l 1,1,-1
 760 615 l 1,2,-1
 526 615 l 1,3,-1
 462 288 l 1,4,-1
 601 288 l 2,5,6
 835 288 835 288 981 403.5 c 128,-1,7
 1127 519 1127 519 1170 743 c 256,8,9
 1212 967 1212 967 1113 1080.5 c 128,-1,10
 1014 1194 1014 1194 779 1194 c 2,11,-1
 641 1194 l 1,12,-1
 580 878 l 1,0,-1
719 1483 m 2,13,14
 1049 1483 1049 1483 1208 1432 c 0,15,16
 1361 1387 1361 1387 1462 1269 c 0,17,18
 1628 1073 1628 1073 1564 743 c 0,19,20
 1500 410 1500 410 1255 210 c 0,21,22
 1106 92 1106 92 936 47 c 256,23,24
 764 0 764 0 431 0 c 2,25,-1
 28 0 l 1,26,-1
 146 615 l 1,27,-1
 -28 615 l 1,28,-1
 24 878 l 1,29,-1
 200 878 l 1,30,-1
 316 1483 l 1,31,-1
 719 1483 l 2,13,14
EndSplineSet
EndChar
StartChar: eth
Encoding: 240 240 233
Width: 1395
VWidth: 3555
Flags: W
HStem: -28 252<433.65 709.315> 793 252<513.857 781.352> 1120 21G<283.24 351.102>
Fore
875 740 m 1,0,1
 828 764 828 764 777 778.5 c 128,-1,2
 726 793 726 793 672 793 c 0,3,4
 559 793 559 793 484.5 725.5 c 128,-1,5
 410 658 410 658 384 536 c 0,6,7
 356 387 356 387 403.5 305.5 c 128,-1,8
 451 224 451 224 562 224 c 0,9,10
 682 224 682 224 758.5 309 c 128,-1,11
 835 394 835 394 868 554 c 0,12,13
 875 597 875 597 876.5 643 c 128,-1,14
 878 689 878 689 875 740 c 1,0,1
1120 1092 m 1,15,16
 1212 957 1212 957 1239 831 c 128,-1,17
 1266 705 1266 705 1238 554 c 0,18,19
 1184 278 1184 278 992 125 c 128,-1,20
 800 -28 800 -28 512 -28 c 256,21,22
 224 -28 224 -28 92 125 c 128,-1,23
 -40 278 -40 278 14 554 c 0,24,25
 61 790 61 790 232.5 917.5 c 128,-1,26
 404 1045 404 1045 672 1045 c 0,27,28
 753 1045 753 1045 825 1021 c 1,29,-1
 675 1238 l 1,30,-1
 285 1120 l 1,31,-1
 274 1245 l 1,32,-1
 601 1344 l 1,33,-1
 448 1547 l 1,34,-1
 800 1547 l 1,35,-1
 889 1429 l 1,36,-1
 1283 1543 l 1,37,-1
 1293 1415 l 1,38,-1
 960 1319 l 1,39,-1
 1120 1092 l 1,15,16
EndSplineSet
EndChar
StartChar: Yacute
Encoding: 221 221 234
Width: 1470
VWidth: 3555
Flags: W
HStem: 0 21G<363 753.897> 1463 20G<92 517.83 1170.25 1604>
Fore
509 1483 m 1,0,-1
 743 953 l 1,1,-1
 1187 1483 l 1,2,-1
 1604 1483 l 1,3,-1
 871 621 l 1,4,-1
 750 0 l 1,5,-1
 363 0 l 1,6,-1
 484 621 l 1,7,-1
 92 1483 l 1,8,-1
 509 1483 l 1,0,-1
1231 1887 m 1,9,-1
 896 1621 l 1,10,-1
 700 1621 l 1,11,-1
 950 1887 l 1,12,-1
 1231 1887 l 1,9,-1
EndSplineSet
EndChar
StartChar: yacute
Encoding: 253 253 235
Width: 1321
VWidth: 3555
Flags: W
HStem: -441 234<-17 229.428> 1093 20G<61 421.032 956.443 1323>
Fore
417 1113 m 1,0,-1
 569 359 l 1,1,-1
 967 1113 l 1,2,-1
 1323 1113 l 1,3,-1
 621 -102 l 2,4,5
 512 -292 512 -292 403.5 -366.5 c 128,-1,6
 295 -441 295 -441 146 -441 c 2,7,-1
 -64 -441 l 1,8,-1
 -17 -207 l 1,9,-1
 92 -207 l 2,10,11
 181 -207 181 -207 231 -178 c 128,-1,12
 281 -149 281 -149 316 -75 c 2,13,-1
 335 -47 l 1,14,-1
 61 1113 l 1,15,-1
 417 1113 l 1,0,-1
1215 1625 m 1,16,-1
 779 1252 l 1,17,-1
 583 1252 l 1,18,-1
 936 1625 l 1,19,-1
 1215 1625 l 1,16,-1
EndSplineSet
EndChar
StartChar: Thorn
Encoding: 222 222 236
Width: 1499
VWidth: 3555
Flags: W
HStem: 0 21G<7 394.651> 252 277<491 865.618> 950 277<628 925.99> 1463 20G<291.116 679>
Fore
391 0 m 1,0,-1
 7 0 l 1,1,-1
 295 1483 l 1,2,-1
 679 1483 l 1,3,-1
 628 1227 l 1,4,-1
 882 1227 l 2,5,6
 1170 1227 1170 1227 1292.5 1100.5 c 128,-1,7
 1415 974 1415 974 1368 740 c 256,8,9
 1323 505 1323 505 1150 378.5 c 128,-1,10
 977 252 977 252 689 252 c 2,11,-1
 437 252 l 1,12,-1
 391 0 l 1,0,-1
491 529 m 1,13,-1
 705 529 l 2,14,15
 811 529 811 529 885.5 585 c 128,-1,16
 960 641 960 641 977 740 c 256,17,18
 995 838 995 838 943.5 894 c 128,-1,19
 892 950 892 950 786 950 c 2,20,-1
 573 950 l 1,21,-1
 491 529 l 1,13,-1
EndSplineSet
EndChar
StartChar: thorn
Encoding: 254 254 237
Width: 1456
VWidth: 3555
Flags: W
HStem: -424 21G<-92 270.87> -28 255<514.501 776.23> 882 255<723.995 1038.5>
Fore
267 -424 m 1,0,-1
 -92 -424 l 1,1,-1
 292 1547 l 1,2,-1
 651 1547 l 1,3,-1
 533 950 l 1,4,5
 700 1137 700 1137 936 1137 c 0,6,7
 1141 1137 1141 1137 1240.5 975.5 c 128,-1,8
 1340 814 1340 814 1290 554 c 0,9,10
 1266 427 1266 427 1211 320.5 c 128,-1,11
 1156 214 1156 214 1077 135.5 c 128,-1,12
 998 57 998 57 904.5 14.5 c 128,-1,13
 811 -28 811 -28 708 -28 c 0,14,15
 476 -28 476 -28 380 160 c 1,16,-1
 267 -424 l 1,0,-1
753 882 m 256,17,18
 519 882 519 882 458 554 c 0,19,20
 394 227 394 227 625 227 c 0,21,22
 865 227 865 227 929 554 c 0,23,24
 988 882 988 882 753 882 c 256,17,18
EndSplineSet
EndChar
StartChar: minus
Encoding: 8722 8722 238
Width: 1701
VWidth: 3555
Flags: W
HStem: 523 230<181 1408>
Fore
1455 753 m 1,0,-1
 1408 523 l 1,1,-1
 135 523 l 1,2,-1
 181 753 l 1,3,-1
 1455 753 l 1,0,-1
EndSplineSet
EndChar
StartChar: multiply
Encoding: 215 215 239
Width: 1701
VWidth: 3555
Flags: W
Fore
960 637 m 1,0,-1
 1312 207 l 1,1,-1
 1109 43 l 1,2,-1
 764 469 l 1,3,-1
 252 43 l 1,4,-1
 115 207 l 1,5,-1
 628 637 l 1,6,-1
 281 1066 l 1,7,-1
 484 1234 l 1,8,-1
 828 804 l 1,9,-1
 1340 1234 l 1,10,-1
 1479 1066 l 1,11,-1
 960 637 l 1,0,-1
EndSplineSet
EndChar
StartChar: onesuperior
Encoding: 185 185 240
Width: 888
VWidth: 3555
Flags: W
HStem: 661 160<122 323 550 729> 1473 20G<357.556 682>
VStem: 92 665<661 821>
Fore
323 821 m 1,0,-1
 424 1333 l 1,1,-1
 196 1283 l 1,2,-1
 227 1448 l 1,3,-1
 462 1493 l 1,4,-1
 682 1493 l 1,5,-1
 550 821 l 1,6,-1
 757 821 l 1,7,-1
 729 661 l 1,8,-1
 92 661 l 1,9,-1
 122 821 l 1,10,-1
 323 821 l 1,0,-1
EndSplineSet
EndChar
StartChar: twosuperior
Encoding: 178 178 241
Width: 888
VWidth: 3555
Flags: W
HStem: 661 171<394 729> 1361 146<353.193 586.383>
VStem: 57 781<661 1269>
Fore
760 832 m 1,0,-1
 729 661 l 1,1,-1
 57 661 l 1,2,-1
 85 818 l 1,3,-1
 451 1082 l 2,4,5
 523 1130 523 1130 555 1171 c 128,-1,6
 587 1212 587 1212 594 1248 c 0,7,8
 615 1361 615 1361 484 1361 c 0,9,10
 427 1361 427 1361 349 1338.5 c 128,-1,11
 271 1316 271 1316 184 1269 c 1,12,-1
 220 1458 l 1,13,14
 401 1507 401 1507 550 1507 c 0,15,16
 712 1507 712 1507 786.5 1445.5 c 128,-1,17
 861 1384 861 1384 838 1269 c 0,18,19
 825 1198 825 1198 780.5 1140 c 128,-1,20
 736 1082 736 1082 615 991 c 2,21,-1
 394 832 l 1,22,-1
 760 832 l 1,0,-1
EndSplineSet
EndChar
StartChar: threesuperior
Encoding: 179 179 242
Width: 888
VWidth: 3555
Flags: W
HStem: 648 145<235.152 472.709> 1038 139<292 499.545> 1361 146<381.824 578.737>
VStem: 43 785<693 1293>
Fore
621 1113 m 1,0,1
 811 1073 811 1073 779 903 c 0,2,3
 729 648 729 648 330 648 c 0,4,5
 248 648 248 648 177 660 c 128,-1,6
 106 672 106 672 43 693 c 1,7,-1
 78 868 l 1,8,9
 139 832 139 832 197 812.5 c 128,-1,10
 255 793 255 793 316 793 c 0,11,12
 413 793 413 793 469.5 827 c 128,-1,13
 526 861 526 861 533 913 c 0,14,15
 547 977 547 977 501 1007.5 c 128,-1,16
 455 1038 455 1038 339 1038 c 2,17,-1
 264 1038 l 1,18,-1
 292 1177 l 1,19,-1
 377 1177 l 2,20,21
 479 1177 479 1177 529.5 1202 c 128,-1,22
 580 1227 580 1227 587 1269 c 0,23,24
 604 1361 604 1361 444 1361 c 0,25,26
 391 1361 391 1361 327.5 1347 c 128,-1,27
 264 1333 264 1333 193 1309 c 1,28,-1
 224 1476 l 1,29,30
 288 1489 288 1489 364.5 1498 c 128,-1,31
 441 1507 441 1507 533 1507 c 0,32,33
 696 1507 696 1507 772.5 1452 c 128,-1,34
 849 1397 849 1397 828 1293 c 0,35,36
 818 1231 818 1231 765 1180.5 c 128,-1,37
 712 1130 712 1130 621 1113 c 1,0,1
EndSplineSet
EndChar
StartChar: onequarter
Encoding: 188 188 243
Width: 2100
VWidth: 3555
Flags: W
HStem: 0 21<323 558.948 1404 1638.5> 160 152<1227 1432 1696 1792> 661 160<99 299 523 705> 1487 20<333 654 1531.05 1767>
Fore
1227 312 m 1,0,-1
 1465 312 l 1,1,-1
 1526 637 l 1,2,-1
 1227 312 l 1,0,-1
1795 832 m 1,3,-1
 1696 312 l 1,4,-1
 1825 312 l 1,5,-1
 1792 160 l 1,6,-1
 1663 160 l 1,7,-1
 1635 0 l 1,8,-1
 1404 0 l 1,9,-1
 1432 160 l 1,10,-1
 1045 160 l 1,11,-1
 1078 326 l 1,12,-1
 1547 832 l 1,13,-1
 1795 832 l 1,3,-1
323 -28 m 1,14,-1
 1547 1507 l 1,15,-1
 1767 1507 l 1,16,-1
 543 -28 l 1,17,-1
 323 -28 l 1,14,-1
299 821 m 1,18,-1
 398 1333 l 1,19,-1
 170 1283 l 1,20,-1
 203 1448 l 1,21,-1
 437 1493 l 1,22,-1
 654 1493 l 1,23,-1
 523 821 l 1,24,-1
 733 821 l 1,25,-1
 705 661 l 1,26,-1
 71 661 l 1,27,-1
 99 821 l 1,28,-1
 299 821 l 1,18,-1
EndSplineSet
Ligature2: "'frac' Diagonal Fractions in Latin lookup 0 subtable" one fraction four
Ligature2: "'frac' Diagonal Fractions in Latin lookup 0 subtable" one slash four
EndChar
StartChar: onehalf
Encoding: 189 189 244
Width: 2100
VWidth: 3555
Flags: W
HStem: -28 21G<323 558.948> 0 167<1489 1828> 661 160<99 299 523 705> 696 149<1463.48 1692.38> 1487 20<333 654 1531.05 1767>
Fore
1859 167 m 1,0,-1
 1828 0 l 1,1,-1
 1156 0 l 1,2,-1
 1184 156 l 1,3,-1
 1547 420 l 2,4,5
 1621 469 1621 469 1655 506 c 128,-1,6
 1689 543 1689 543 1700 587 c 0,7,8
 1717 696 1717 696 1581 696 c 0,9,10
 1462 696 1462 696 1283 608 c 1,11,-1
 1319 793 l 1,12,13
 1411 821 1411 821 1494.5 833 c 128,-1,14
 1578 845 1578 845 1649 845 c 0,15,16
 1809 845 1809 845 1883.5 783.5 c 128,-1,17
 1958 722 1958 722 1937 608 c 0,18,19
 1920 536 1920 536 1875.5 476.5 c 128,-1,20
 1831 417 1831 417 1717 335 c 2,21,-1
 1489 167 l 1,22,-1
 1859 167 l 1,0,-1
323 -28 m 1,23,-1
 1547 1507 l 1,24,-1
 1767 1507 l 1,25,-1
 543 -28 l 1,26,-1
 323 -28 l 1,23,-1
299 821 m 1,27,-1
 398 1333 l 1,28,-1
 170 1283 l 1,29,-1
 203 1448 l 1,30,-1
 437 1493 l 1,31,-1
 654 1493 l 1,32,-1
 523 821 l 1,33,-1
 733 821 l 1,34,-1
 705 661 l 1,35,-1
 71 661 l 1,36,-1
 99 821 l 1,37,-1
 299 821 l 1,27,-1
EndSplineSet
Ligature2: "'frac' Diagonal Fractions in Latin lookup 0 subtable" one fraction two
Ligature2: "'frac' Diagonal Fractions in Latin lookup 0 subtable" one slash two
EndChar
StartChar: threequarters
Encoding: 190 190 245
Width: 2100
VWidth: 3555
Flags: W
HStem: 0 21<323 558.948 1404 1638.5> 160 152<1227 1432 1696 1792> 648 145<250.753 486.058> 1038 139<309 512.577> 1361 146<397.103 591.408>
Fore
1795 832 m 1,0,-1
 1696 312 l 1,1,-1
 1825 312 l 1,2,-1
 1792 160 l 1,3,-1
 1663 160 l 1,4,-1
 1635 0 l 1,5,-1
 1404 0 l 1,6,-1
 1432 160 l 1,7,-1
 1045 160 l 1,8,-1
 1078 326 l 1,9,-1
 1547 832 l 1,10,-1
 1795 832 l 1,0,-1
1227 312 m 1,11,-1
 1465 312 l 1,12,-1
 1526 637 l 1,13,-1
 1227 312 l 1,11,-1
637 1113 m 1,14,15
 825 1073 825 1073 793 903 c 0,16,17
 743 648 743 648 345 648 c 0,18,19
 264 648 264 648 193 660 c 128,-1,20
 122 672 122 672 57 693 c 1,21,-1
 92 868 l 1,22,23
 153 832 153 832 212 812.5 c 128,-1,24
 271 793 271 793 330 793 c 0,25,26
 427 793 427 793 481.5 827 c 128,-1,27
 536 861 536 861 543 913 c 0,28,29
 559 977 559 977 514 1007.5 c 128,-1,30
 469 1038 469 1038 356 1038 c 2,31,-1
 281 1038 l 1,32,-1
 309 1177 l 1,33,-1
 394 1177 l 2,34,35
 580 1177 580 1177 597 1269 c 256,36,37
 615 1361 615 1361 458 1361 c 0,38,39
 404 1361 404 1361 341 1347 c 128,-1,40
 278 1333 278 1333 207 1309 c 1,41,-1
 238 1476 l 1,42,43
 306 1489 306 1489 382 1498 c 128,-1,44
 458 1507 458 1507 547 1507 c 0,45,46
 712 1507 712 1507 788.5 1452 c 128,-1,47
 865 1397 865 1397 842 1293 c 0,48,49
 832 1231 832 1231 779 1180.5 c 128,-1,50
 726 1130 726 1130 637 1113 c 1,14,15
323 -28 m 1,51,-1
 1547 1507 l 1,52,-1
 1767 1507 l 1,53,-1
 543 -28 l 1,54,-1
 323 -28 l 1,51,-1
EndSplineSet
Ligature2: "'frac' Diagonal Fractions in Latin lookup 0 subtable" three fraction four
Ligature2: "'frac' Diagonal Fractions in Latin lookup 0 subtable" three slash four
EndChar
StartChar: Gbreve
Encoding: 286 286 246
Width: 1670
VWidth: 3555
Flags: W
HStem: -28 273<612.038 1032.64> 566 259<906 1088> 1234 273<796.511 1296.47> 1621 143<845.324 1121.77>
Fore
1364 115 m 1,0,1
 1045 -28 1045 -28 719 -28 c 0,2,3
 533 -28 533 -28 394 25 c 128,-1,4
 255 78 255 78 170 178 c 128,-1,5
 85 278 85 278 56.5 420 c 128,-1,6
 28 562 28 562 64 740 c 0,7,8
 135 1099 135 1099 393 1303 c 128,-1,9
 651 1507 651 1507 1038 1507 c 0,10,11
 1340 1507 1340 1507 1557 1397 c 1,12,-1
 1496 1092 l 1,13,14
 1276 1234 1276 1234 1031 1234 c 0,15,16
 804 1234 804 1234 656.5 1104 c 128,-1,17
 509 974 509 974 462 740 c 256,18,19
 417 505 417 505 510.5 375 c 128,-1,20
 604 245 604 245 821 245 c 0,21,22
 943 245 943 245 1035 281 c 1,23,-1
 1088 566 l 1,24,-1
 854 566 l 1,25,-1
 906 825 l 1,26,-1
 1503 825 l 1,27,-1
 1364 115 l 1,0,1
804 1887 m 1,28,29
 825 1764 825 1764 977 1764 c 0,30,31
 1123 1764 1123 1764 1187 1887 c 1,32,-1
 1333 1887 l 1,33,34
 1293 1757 1293 1757 1192.5 1689 c 128,-1,35
 1092 1621 1092 1621 950 1621 c 0,36,37
 648 1621 648 1621 665 1887 c 1,38,-1
 804 1887 l 1,28,29
EndSplineSet
EndChar
StartChar: gbreve
Encoding: 287 287 247
Width: 1456
VWidth: 3555
Flags: W
HStem: -441 238<169.716 591.369> 0 260<280.5 590.245> 882 255<542.108 792.553> 1302 153<704.201 975.412>
Fore
786 189 m 1,0,1
 608 0 608 0 384 0 c 0,2,3
 177 0 177 0 75 160 c 256,4,5
 -28 319 -28 319 24 569 c 0,6,7
 75 821 75 821 234 977 c 0,8,9
 401 1137 401 1137 604 1137 c 0,10,11
 828 1137 828 1137 932 946 c 1,12,-1
 963 1113 l 1,13,-1
 1319 1113 l 1,14,-1
 1127 115 l 2,15,16
 1073 -156 1073 -156 876 -298.5 c 128,-1,17
 679 -441 679 -441 356 -441 c 0,18,19
 153 -441 153 -441 -24 -373 c 1,20,-1
 28 -95 l 1,21,22
 109 -153 109 -153 195 -178 c 128,-1,23
 281 -203 281 -203 370 -203 c 0,24,25
 543 -203 543 -203 639.5 -130 c 128,-1,26
 736 -57 736 -57 771 115 c 2,27,-1
 786 189 l 1,0,1
686 882 m 0,28,29
 576 882 576 882 500 800.5 c 128,-1,30
 424 719 424 719 394 569 c 0,31,32
 335 260 335 260 566 260 c 0,33,34
 679 260 679 260 755.5 340 c 128,-1,35
 832 420 832 420 861 569 c 256,36,37
 889 719 889 719 844.5 800.5 c 128,-1,38
 800 882 800 882 686 882 c 0,28,29
665 1594 m 1,39,40
 665 1529 665 1529 707.5 1492 c 128,-1,41
 750 1455 750 1455 835 1455 c 0,42,43
 913 1455 913 1455 970.5 1492 c 128,-1,44
 1028 1529 1028 1529 1049 1594 c 1,45,-1
 1194 1594 l 1,46,47
 1156 1455 1156 1455 1056.5 1378.5 c 128,-1,48
 957 1302 957 1302 807 1302 c 0,49,50
 648 1302 648 1302 573 1378.5 c 128,-1,51
 498 1455 498 1455 526 1594 c 1,52,-1
 665 1594 l 1,39,40
EndSplineSet
EndChar
StartChar: Idotaccent
Encoding: 304 304 248
Width: 756
VWidth: 3555
Flags: W
HStem: 0 21G<7 394.884> 1463 20G<291.116 679> 1639 248<420 641>
VStem: 7 682<0 1887>
Fore
679 1483 m 1,0,-1
 391 0 l 1,1,-1
 7 0 l 1,2,-1
 295 1483 l 1,3,-1
 679 1483 l 1,0,-1
689 1887 m 1,4,-1
 641 1639 l 1,5,-1
 370 1639 l 1,6,-1
 420 1887 l 1,7,-1
 689 1887 l 1,4,-1
EndSplineSet
EndChar
StartChar: Scedilla
Encoding: 350 350 249
Width: 1463
VWidth: 3555
Flags: W
HStem: -398 150<345.567 532.927> -28 28<505.066 641> 1123 21G<1203 1265.95> 1234 273<604.144 994.419>
Fore
1262 1123 m 1,0,1
 1144 1177 1144 1177 1036.5 1205.5 c 128,-1,2
 929 1234 929 1234 821 1234 c 0,3,4
 679 1234 679 1234 609.5 1197 c 128,-1,5
 540 1160 540 1160 526 1082 c 0,6,7
 512 1017 512 1017 547.5 983.5 c 128,-1,8
 583 950 583 950 693 929 c 2,9,-1
 854 892 l 2,10,11
 1092 845 1092 845 1177 746.5 c 128,-1,12
 1262 648 1262 648 1224 455 c 0,13,14
 1174 210 1174 210 1008 91 c 128,-1,15
 842 -28 842 -28 540 -28 c 0,16,17
 260 -28 260 -28 -3 78 c 1,18,-1
 57 398 l 1,19,20
 184 323 184 323 309 284 c 128,-1,21
 434 245 434 245 559 245 c 256,22,23
 682 245 682 245 755 290 c 128,-1,24
 828 335 828 335 845 413 c 0,25,26
 861 476 861 476 825.5 515 c 128,-1,27
 790 554 790 554 654 583 c 2,28,-1
 512 615 l 2,29,30
 299 665 299 665 219 770 c 128,-1,31
 139 875 139 875 174 1049 c 0,32,33
 217 1272 217 1272 380 1389.5 c 128,-1,34
 543 1507 543 1507 811 1507 c 0,35,36
 936 1507 936 1507 1061.5 1489.5 c 128,-1,37
 1187 1472 1187 1472 1323 1432 c 1,38,-1
 1262 1123 l 1,0,1
641 0 m 1,39,40
 726 -128 726 -128 712 -214 c 0,41,42
 675 -398 675 -398 427 -398 c 0,43,44
 380 -398 380 -398 327 -391 c 128,-1,45
 274 -384 274 -384 231 -373 c 1,46,-1
 255 -220 l 1,47,48
 359 -248 359 -248 420 -248 c 0,49,50
 533 -248 533 -248 550 -167 c 0,51,52
 562 -118 562 -118 505 0 c 1,53,-1
 641 0 l 1,39,40
EndSplineSet
EndChar
StartChar: scedilla
Encoding: 351 351 250
Width: 1208
VWidth: 3555
Flags: W
HStem: -398 150<220.773 408.857> -28 28<380.882 516> 899 238<429.247 809.295>
Fore
1017 807 m 1,0,1
 910 858 910 858 811 878.5 c 128,-1,2
 712 899 712 899 611 899 c 0,3,4
 417 899 417 899 394 800 c 0,5,6
 387 757 387 757 421 734.5 c 128,-1,7
 455 712 455 712 547 696 c 2,8,-1
 604 689 l 2,9,10
 878 658 878 658 950 580 c 0,11,12
 1031 498 1031 498 995 326 c 0,13,14
 932 -28 932 -28 404 -28 c 0,15,16
 299 -28 299 -28 181.5 -12.5 c 128,-1,17
 64 3 64 3 -47 43 c 1,18,-1
 3 309 l 1,19,20
 200 207 200 207 427 207 c 0,21,22
 641 207 641 207 661 319 c 0,23,24
 672 370 672 370 638 393.5 c 128,-1,25
 604 417 604 417 498 431 c 2,26,-1
 434 437 l 2,27,28
 207 465 207 465 127 546.5 c 128,-1,29
 47 628 47 628 78 793 c 0,30,31
 142 1137 142 1137 641 1137 c 0,32,33
 832 1137 832 1137 1069 1082 c 1,34,-1
 1017 807 l 1,0,1
516 0 m 1,35,36
 601 -128 601 -128 587 -214 c 0,37,38
 550 -398 550 -398 302 -398 c 0,39,40
 255 -398 255 -398 202 -391 c 128,-1,41
 149 -384 149 -384 106 -373 c 1,42,-1
 132 -220 l 1,43,44
 234 -248 234 -248 295 -248 c 0,45,46
 410 -248 410 -248 427 -167 c 0,47,48
 437 -118 437 -118 380 0 c 1,49,-1
 516 0 l 1,35,36
EndSplineSet
EndChar
StartChar: Cacute
Encoding: 262 262 251
Width: 1492
VWidth: 3555
Flags: W
HStem: -28 273<606.86 1022.23> 1234 273<782.9 1216.41>
Fore
1198 82 m 1,0,1
 967 -28 967 -28 719 -28 c 0,2,3
 533 -28 533 -28 394 25 c 128,-1,4
 255 78 255 78 170 178 c 128,-1,5
 85 278 85 278 56.5 420 c 128,-1,6
 28 562 28 562 64 740 c 0,7,8
 135 1095 135 1095 389.5 1301 c 128,-1,9
 644 1507 644 1507 1017 1507 c 0,10,11
 1266 1507 1266 1507 1455 1397 c 1,12,-1
 1394 1092 l 1,13,14
 1302 1167 1302 1167 1205.5 1200.5 c 128,-1,15
 1109 1234 1109 1234 995 1234 c 0,16,17
 793 1234 793 1234 649 1100.5 c 128,-1,18
 505 967 505 967 462 740 c 0,19,20
 417 512 417 512 509 378.5 c 128,-1,21
 601 245 601 245 804 245 c 0,22,23
 917 245 917 245 1025.5 278.5 c 128,-1,24
 1134 312 1134 312 1259 387 c 1,25,-1
 1198 82 l 1,0,1
1384 1887 m 1,26,-1
 1049 1621 l 1,27,-1
 854 1621 l 1,28,-1
 1102 1887 l 1,29,-1
 1384 1887 l 1,26,-1
EndSplineSet
EndChar
StartChar: cacute
Encoding: 263 263 252
Width: 1204
VWidth: 3555
Flags: W
HStem: -28 252<466.532 751.499> 882 255<572.426 939.407>
Fore
1042 790 m 1,0,1
 981 838 981 838 913 860 c 128,-1,2
 845 882 845 882 764 882 c 0,3,4
 611 882 611 882 514 798.5 c 128,-1,5
 417 715 417 715 387 554 c 0,6,7
 356 394 356 394 420 309 c 128,-1,8
 484 224 484 224 637 224 c 0,9,10
 804 224 804 224 950 319 c 1,11,-1
 892 31 l 1,12,13
 804 0 804 0 716 -14 c 128,-1,14
 628 -28 628 -28 543 -28 c 0,15,16
 241 -28 241 -28 100.5 125 c 128,-1,17
 -40 278 -40 278 14 554 c 256,18,19
 68 832 68 832 268.5 984.5 c 128,-1,20
 469 1137 469 1137 771 1137 c 0,21,22
 950 1137 950 1137 1099 1082 c 1,23,-1
 1042 790 l 1,0,1
1269 1625 m 1,24,-1
 832 1252 l 1,25,-1
 637 1252 l 1,26,-1
 988 1625 l 1,27,-1
 1269 1625 l 1,24,-1
EndSplineSet
EndChar
StartChar: Ccaron
Encoding: 268 268 253
Width: 1492
VWidth: 3555
Flags: W
HStem: -28 273<606.86 1022.23> 1234 273<782.9 1216.41>
Fore
1198 82 m 1,0,1
 967 -28 967 -28 719 -28 c 0,2,3
 533 -28 533 -28 394 25 c 128,-1,4
 255 78 255 78 170 178 c 128,-1,5
 85 278 85 278 56.5 420 c 128,-1,6
 28 562 28 562 64 740 c 0,7,8
 135 1095 135 1095 389.5 1301 c 128,-1,9
 644 1507 644 1507 1017 1507 c 0,10,11
 1266 1507 1266 1507 1455 1397 c 1,12,-1
 1394 1092 l 1,13,14
 1302 1167 1302 1167 1205.5 1200.5 c 128,-1,15
 1109 1234 1109 1234 995 1234 c 0,16,17
 793 1234 793 1234 649 1100.5 c 128,-1,18
 505 967 505 967 462 740 c 0,19,20
 417 512 417 512 509 378.5 c 128,-1,21
 601 245 601 245 804 245 c 0,22,23
 917 245 917 245 1025.5 278.5 c 128,-1,24
 1134 312 1134 312 1259 387 c 1,25,-1
 1198 82 l 1,0,1
679 1887 m 1,26,-1
 854 1887 l 1,27,-1
 1024 1720 l 1,28,-1
 1252 1887 l 1,29,-1
 1425 1887 l 1,30,-1
 1153 1621 l 1,31,-1
 845 1621 l 1,32,-1
 679 1887 l 1,26,-1
EndSplineSet
EndChar
StartChar: ccaron
Encoding: 269 269 254
Width: 1204
VWidth: 3555
Flags: W
HStem: -28 252<466.532 751.499> 882 255<572.426 939.407>
Fore
1042 790 m 1,0,1
 981 838 981 838 913 860 c 128,-1,2
 845 882 845 882 764 882 c 0,3,4
 611 882 611 882 514 798.5 c 128,-1,5
 417 715 417 715 387 554 c 0,6,7
 356 394 356 394 420 309 c 128,-1,8
 484 224 484 224 637 224 c 0,9,10
 804 224 804 224 950 319 c 1,11,-1
 892 31 l 1,12,13
 804 0 804 0 716 -14 c 128,-1,14
 628 -28 628 -28 543 -28 c 0,15,16
 241 -28 241 -28 100.5 125 c 128,-1,17
 -40 278 -40 278 14 554 c 256,18,19
 68 832 68 832 268.5 984.5 c 128,-1,20
 469 1137 469 1137 771 1137 c 0,21,22
 950 1137 950 1137 1099 1082 c 1,23,-1
 1042 790 l 1,0,1
479 1625 m 1,24,-1
 654 1625 l 1,25,-1
 814 1401 l 1,26,-1
 1052 1625 l 1,27,-1
 1227 1625 l 1,28,-1
 903 1252 l 1,29,-1
 661 1252 l 1,30,-1
 479 1625 l 1,24,-1
EndSplineSet
EndChar
StartChar: dcroat
Encoding: 273 273 255
Width: 1456
VWidth: 3555
Flags: W
HStem: -28 255<325.5 581.887> 882 255<538.756 792.922> 1231 198<700 988 1384 1496>
Fore
988 1231 m 1,0,-1
 661 1231 l 1,1,-1
 700 1429 l 1,2,-1
 1028 1429 l 1,3,-1
 1049 1547 l 1,4,-1
 1404 1547 l 1,5,-1
 1384 1429 l 1,6,-1
 1536 1429 l 1,7,-1
 1496 1231 l 1,8,-1
 1344 1231 l 1,9,-1
 1106 0 l 1,10,-1
 750 0 l 1,11,-1
 779 160 l 1,12,13
 601 -28 601 -28 377 -28 c 0,14,15
 274 -28 274 -28 196 14.5 c 128,-1,16
 118 57 118 57 71 135.5 c 128,-1,17
 24 214 24 214 10.5 320.5 c 128,-1,18
 -3 427 -3 427 21 554 c 256,19,20
 47 682 47 682 103.5 790.5 c 128,-1,21
 160 899 160 899 236 975.5 c 128,-1,22
 312 1052 312 1052 407 1094.5 c 128,-1,23
 502 1137 502 1137 604 1137 c 0,24,25
 828 1137 828 1137 932 950 c 1,26,-1
 988 1231 l 1,0,-1
559 227 m 0,27,28
 793 227 793 227 858 554 c 0,29,30
 917 882 917 882 686 882 c 0,31,32
 451 882 451 882 391 554 c 0,33,34
 326 227 326 227 559 227 c 0,27,28
EndSplineSet
EndChar
StartChar: sfthyphen
Encoding: 173 173 256
Width: 845
VWidth: 3555
Flags: W
HStem: 441 288<75 641>
VStem: 21 672<441 729>
Fore
693 729 m 1,0,-1
 641 441 l 1,1,-1
 21 441 l 1,2,-1
 75 729 l 1,3,-1
 693 729 l 1,0,-1
EndSplineSet
EndChar
StartChar: periodcentered
Encoding: 8729 8729 257
Width: 743
VWidth: 3555
Flags: W
HStem: 495 370<189 462>
VStem: 118 415<495 865>
Fore
533 865 m 1,0,-1
 462 495 l 1,1,-1
 118 495 l 1,2,-1
 189 865 l 1,3,-1
 533 865 l 1,0,-1
EndSplineSet
EndChar
StartChar: Euro
Encoding: 8364 8364 258
Width: 1414
VWidth: 3555
Flags: W
HStem: -28 259<604.67 957.725> 472 196<0 89 479 779> 818 192<68 128 587 995> 1245 262<785.134 1176.87>
Fore
1113 82 m 1,0,1
 906 -28 906 -28 686 -28 c 0,2,3
 420 -28 420 -28 269 99.5 c 128,-1,4
 118 227 118 227 89 472 c 1,5,-1
 -128 472 l 1,6,-1
 0 668 l 1,7,-1
 99 668 l 1,8,9
 99 682 99 682 109 740 c 0,10,11
 118 767 118 767 120 783.5 c 128,-1,12
 122 800 122 800 128 818 c 1,13,-1
 -61 818 l 1,14,-1
 68 1010 l 1,15,-1
 196 1010 l 1,16,17
 312 1255 312 1255 515.5 1381 c 128,-1,18
 719 1507 719 1507 984 1507 c 0,19,20
 1205 1507 1205 1507 1368 1397 c 1,21,-1
 1309 1092 l 1,22,23
 1187 1245 1187 1245 977 1245 c 0,24,25
 858 1245 858 1245 754.5 1186 c 128,-1,26
 651 1127 651 1127 587 1010 c 1,27,-1
 1123 1010 l 1,28,-1
 995 818 l 1,29,-1
 509 818 l 1,30,-1
 491 729 l 1,31,-1
 479 668 l 1,32,-1
 903 668 l 1,33,-1
 779 472 l 1,34,-1
 479 472 l 1,35,36
 529 231 529 231 779 231 c 0,37,38
 882 231 882 231 977.5 270 c 128,-1,39
 1073 309 1073 309 1174 387 c 1,40,-1
 1113 82 l 1,0,1
EndSplineSet
EndChar
StartChar: c6459
Encoding: 65539 -1 259
Width: 1015
VWidth: 3555
Flags: W
HStem: 1269 248<312 498 705 889>
VStem: 264 675<1269 1517>
Fore
547 1517 m 1,0,-1
 498 1269 l 1,1,-1
 264 1269 l 1,2,-1
 312 1517 l 1,3,-1
 547 1517 l 1,0,-1
939 1517 m 1,4,-1
 889 1269 l 1,5,-1
 654 1269 l 1,6,-1
 705 1517 l 1,7,-1
 939 1517 l 1,4,-1
EndSplineSet
EndChar
StartChar: c6460
Encoding: 65540 -1 260
Width: 1015
VWidth: 3555
Flags: W
HStem: 1252 265<621 957>
VStem: 427 530<1252 1517>
Fore
957 1517 m 1,0,-1
 621 1252 l 1,1,-1
 427 1252 l 1,2,-1
 675 1517 l 1,3,-1
 957 1517 l 1,0,-1
EndSplineSet
EndChar
StartChar: c6461
Encoding: 65541 -1 261
Width: 1015
VWidth: 3555
Flags: W
HStem: 1252 149<657.898 805.678> 1368 149<389.358 515.941>
Fore
533 1333 m 1,0,1
 526 1340 l 1,2,3
 479 1368 479 1368 458 1368 c 0,4,5
 387 1368 387 1368 366 1255 c 1,6,-1
 366 1252 l 1,7,-1
 227 1252 l 1,8,-1
 231 1279 l 2,9,10
 252 1387 252 1387 319.5 1452 c 128,-1,11
 387 1517 387 1517 476 1517 c 0,12,13
 536 1517 536 1517 615 1469 c 2,14,-1
 665 1429 l 2,15,16
 705 1401 705 1401 733 1401 c 0,17,18
 807 1401 807 1401 835 1517 c 1,19,-1
 974 1517 l 1,20,21
 970 1510 970 1510 966.5 1499.5 c 128,-1,22
 963 1489 963 1489 963 1486 c 0,23,24
 943 1384 943 1384 877 1318 c 128,-1,25
 811 1252 811 1252 722 1252 c 0,26,27
 682 1252 682 1252 648.5 1262 c 128,-1,28
 615 1272 615 1272 587 1302 c 1,29,-1
 533 1333 l 1,0,1
EndSplineSet
EndChar
StartChar: c6462
Encoding: 65542 -1 262
Width: 1015
VWidth: 3555
Flags: W
VStem: 295 424<1252 1517>
Fore
719 1252 m 1,0,-1
 526 1252 l 1,1,-1
 295 1517 l 1,2,-1
 576 1517 l 1,3,-1
 719 1252 l 1,0,-1
EndSplineSet
EndChar
StartChar: c6463
Encoding: 65543 -1 263
Width: 1015
VWidth: 3555
Flags: W
VStem: 200 746<1252 1252>
Fore
779 1517 m 1,0,-1
 946 1252 l 1,1,-1
 771 1252 l 1,2,-1
 608 1411 l 1,3,-1
 373 1252 l 1,4,-1
 200 1252 l 1,5,-1
 472 1517 l 1,6,-1
 779 1517 l 1,0,-1
EndSplineSet
EndChar
StartChar: c6466
Encoding: 65544 -1 264
Width: 1015
VWidth: 3555
Flags: W
VStem: 252 746<1517 1517>
Fore
252 1517 m 1,0,-1
 427 1517 l 1,1,-1
 594 1351 l 1,2,-1
 825 1517 l 1,3,-1
 998 1517 l 1,4,-1
 726 1252 l 1,5,-1
 420 1252 l 1,6,-1
 252 1517 l 1,0,-1
EndSplineSet
EndChar
StartChar: c6467
Encoding: 65545 -1 265
Width: 1015
VWidth: 3555
Flags: W
HStem: 1252 142<471.6 748.719>
VStem: 292 668<1387 1394 1517 1517>
Fore
431 1517 m 1,0,1
 451 1394 451 1394 604 1394 c 0,2,3
 750 1394 750 1394 814 1517 c 1,4,-1
 960 1517 l 1,5,6
 920 1387 920 1387 819.5 1319.5 c 128,-1,7
 719 1252 719 1252 576 1252 c 0,8,9
 274 1252 274 1252 292 1517 c 1,10,-1
 431 1517 l 1,0,1
EndSplineSet
EndChar
StartChar: c6468
Encoding: 65546 -1 266
Width: 1015
VWidth: 3555
Flags: W
HStem: 1269 248<491 712>
VStem: 441 319<1269 1517>
Fore
760 1517 m 1,0,-1
 712 1269 l 1,1,-1
 441 1269 l 1,2,-1
 491 1517 l 1,3,-1
 760 1517 l 1,0,-1
EndSplineSet
EndChar
StartChar: uni0E99
Encoding: 3737 3737 267
Width: 743
VWidth: 3555
Flags: W
HStem: 495 370<189 462>
VStem: 118 415<495 865>
Fore
533 865 m 1,0,-1
 462 495 l 1,1,-1
 118 495 l 1,2,-1
 189 865 l 1,3,-1
 533 865 l 1,0,-1
EndSplineSet
EndChar
StartChar: uni0E01
Encoding: 3585 3585 268
Width: 1524
VWidth: 3555
Flags: W
HStem: 0 21G<-54 237.886 849 1133.84> 1187 193<564.105 863.78>
Fore
849 0 m 1,0,-1
 1021 892 l 2,1,2
 1035 967 1035 967 1016.5 1022.5 c 128,-1,3
 998 1078 998 1078 957.5 1115.5 c 128,-1,4
 917 1153 917 1153 857 1170 c 128,-1,5
 797 1187 797 1187 729 1187 c 0,6,7
 597 1187 597 1187 490.5 1155 c 128,-1,8
 384 1123 384 1123 274 1021 c 1,9,-1
 566 1021 l 1,10,-1
 533 858 l 1,11,12
 472 838 472 838 428 802.5 c 128,-1,13
 384 767 384 767 370 700 c 2,14,-1
 234 0 l 1,15,-1
 -54 0 l 1,16,-1
 64 611 l 2,17,18
 78 686 78 686 115.5 739.5 c 128,-1,19
 153 793 153 793 214 845 c 1,20,-1
 -14 845 l 1,21,-1
 28 1073 l 1,22,23
 75 1088 75 1088 109 1120 c 0,24,25
 210 1194 210 1194 283 1243.5 c 128,-1,26
 356 1293 356 1293 427 1323.5 c 128,-1,27
 498 1354 498 1354 578 1367 c 128,-1,28
 658 1380 658 1380 774 1380 c 0,29,30
 889 1380 889 1380 994 1344.5 c 128,-1,31
 1099 1309 1099 1309 1173.5 1241.5 c 128,-1,32
 1248 1174 1248 1174 1283.5 1074 c 128,-1,33
 1319 974 1319 974 1293 849 c 2,34,-1
 1130 0 l 1,35,-1
 849 0 l 1,0,-1
EndSplineSet
EndChar
StartChar: uni0E02
Encoding: 3586 3586 269
Width: 1388
VWidth: 3555
Flags: W
HStem: 0 231<444 760> 722 156<173.972 297.476> 1191 189<402.323 569.308>
Fore
115 0 m 1,0,-1
 196 434 l 2,1,2
 214 526 214 526 276.5 604 c 128,-1,3
 339 682 339 682 407.5 753.5 c 128,-1,4
 476 825 476 825 536.5 889 c 128,-1,5
 597 953 597 953 608 1014 c 0,6,7
 621 1085 621 1085 577 1138 c 128,-1,8
 533 1191 533 1191 465 1191 c 0,9,10
 427 1191 427 1191 384 1174 c 1,11,12
 448 1149 448 1149 468 1079.5 c 128,-1,13
 488 1010 488 1010 472 943 c 0,14,15
 451 838 451 838 373 780 c 128,-1,16
 295 722 295 722 196 722 c 0,17,18
 71 722 71 722 14 791.5 c 128,-1,19
 -43 861 -43 861 -17 984 c 0,20,21
 0 1073 0 1073 47.5 1146 c 128,-1,22
 95 1219 95 1219 161 1271 c 128,-1,23
 227 1323 227 1323 309 1351.5 c 128,-1,24
 391 1380 391 1380 476 1380 c 256,25,26
 562 1380 562 1380 635 1356.5 c 128,-1,27
 708 1333 708 1333 757.5 1285.5 c 128,-1,28
 807 1238 807 1238 830.5 1168.5 c 128,-1,29
 854 1099 854 1099 835 1007 c 0,30,31
 821 932 821 932 770 861 c 128,-1,32
 719 790 719 790 661.5 727.5 c 128,-1,33
 604 665 604 665 556.5 613.5 c 128,-1,34
 509 562 509 562 502 519 c 2,35,-1
 444 231 l 1,36,-1
 760 231 l 1,37,-1
 981 1364 l 1,38,-1
 1262 1364 l 1,39,-1
 998 0 l 1,40,-1
 115 0 l 1,0,-1
319 957 m 0,41,42
 339 1035 339 1035 260 1035 c 0,43,44
 189 1035 189 1035 170 960 c 0,45,46
 163 924 163 924 178 901 c 128,-1,47
 193 878 193 878 231 878 c 0,48,49
 267 878 267 878 289.5 901 c 128,-1,50
 312 924 312 924 319 957 c 0,41,42
EndSplineSet
EndChar
StartChar: uni0E03
Encoding: 3587 3587 270
Width: 1418
VWidth: 3555
Flags: W
HStem: 0 248<488 793> 672 128<209.376 332.045> 957 128<283.643 355.148> 1184 200<639.264 795.5>
Fore
153 0 m 1,0,-1
 231 410 l 2,1,2
 248 495 248 495 319.5 580 c 128,-1,3
 391 665 391 665 475 748.5 c 128,-1,4
 559 832 559 832 632 915 c 128,-1,5
 705 998 705 998 719 1085 c 0,6,7
 726 1113 726 1113 724 1148.5 c 128,-1,8
 722 1184 722 1184 682 1184 c 0,9,10
 661 1184 661 1184 644.5 1172 c 128,-1,11
 628 1160 628 1160 611 1143.5 c 128,-1,12
 594 1127 594 1127 572 1114.5 c 128,-1,13
 550 1102 550 1102 523 1102 c 0,14,15
 484 1102 484 1102 448 1130 c 0,16,17
 398 1180 398 1180 330 1219 c 1,18,-1
 295 1144 l 1,19,-1
 271 1078 l 1,20,21
 288 1082 288 1082 298.5 1083.5 c 128,-1,22
 309 1085 309 1085 323 1085 c 0,23,24
 410 1085 410 1085 461 1027.5 c 128,-1,25
 512 970 512 970 495 882 c 0,26,27
 472 779 472 779 394 725.5 c 128,-1,28
 316 672 316 672 220 672 c 0,29,30
 146 672 146 672 100 706 c 128,-1,31
 54 740 54 740 30.5 792.5 c 128,-1,32
 7 845 7 845 5 909.5 c 128,-1,33
 3 974 3 974 14 1038 c 0,34,35
 24 1092 24 1092 53 1152 c 128,-1,36
 82 1212 82 1212 122.5 1262 c 128,-1,37
 163 1312 163 1312 217 1344.5 c 128,-1,38
 271 1377 271 1377 335 1377 c 0,39,40
 370 1377 370 1377 393.5 1367.5 c 128,-1,41
 417 1358 417 1358 436 1345.5 c 128,-1,42
 455 1333 455 1333 475 1317.5 c 128,-1,43
 495 1302 495 1302 519 1286 c 1,44,45
 580 1309 580 1309 622.5 1346.5 c 128,-1,46
 665 1384 665 1384 733 1384 c 0,47,48
 858 1384 858 1384 907.5 1309 c 128,-1,49
 957 1234 957 1234 936 1116 c 0,50,51
 920 1052 920 1052 882 970 c 0,52,53
 858 924 858 924 802 857 c 128,-1,54
 746 790 746 790 690 722 c 128,-1,55
 634 654 634 654 587 591.5 c 128,-1,56
 540 529 540 529 533 491 c 2,57,-1
 488 248 l 1,58,-1
 793 248 l 1,59,-1
 1010 1364 l 1,60,-1
 1293 1364 l 1,61,-1
 1031 0 l 1,62,-1
 153 0 l 1,0,-1
356 878 m 0,63,64
 366 957 366 957 295 957 c 0,65,66
 217 957 217 957 207 882 c 0,67,68
 200 845 200 845 212 822.5 c 128,-1,69
 224 800 224 800 264 800 c 0,70,71
 299 800 299 800 324 822.5 c 128,-1,72
 349 845 349 845 356 878 c 0,63,64
EndSplineSet
EndChar
StartChar: uni0E04
Encoding: 3588 3588 271
Width: 1541
VWidth: 3555
Flags: W
HStem: 0 21G<21 326.607 871 1159.81> 509 170<600.39 723.856> 871 167<623.771 781.865> 1187 190<599.031 889.303>
Fore
871 0 m 1,0,-1
 1045 910 l 2,1,2
 1059 984 1059 984 1040 1038 c 128,-1,3
 1021 1092 1021 1092 978.5 1124 c 128,-1,4
 936 1156 936 1156 875 1171.5 c 128,-1,5
 814 1187 814 1187 750 1187 c 0,6,7
 569 1187 569 1187 439 1100.5 c 128,-1,8
 309 1014 309 1014 271 818 c 0,9,10
 252 726 252 726 258 636.5 c 128,-1,11
 264 547 264 547 278 458 c 1,12,13
 306 526 306 526 324 602.5 c 128,-1,14
 342 679 342 679 368 752 c 128,-1,15
 394 825 394 825 436.5 889 c 128,-1,16
 479 953 479 953 554 991 c 0,17,18
 641 1038 641 1038 729 1038 c 0,19,20
 854 1038 854 1038 922.5 968.5 c 128,-1,21
 991 899 991 899 967 771 c 0,22,23
 957 719 957 719 923 672 c 128,-1,24
 889 625 889 625 844.5 587.5 c 128,-1,25
 800 550 800 550 746.5 529.5 c 128,-1,26
 693 509 693 509 641 509 c 0,27,28
 569 509 569 509 523 543 c 1,29,-1
 410 267 l 2,30,31
 394 231 394 231 373 193.5 c 128,-1,32
 352 156 352 156 345 122 c 2,33,-1
 323 0 l 1,34,-1
 21 0 l 1,35,36
 24 95 24 95 27.5 193.5 c 128,-1,37
 31 292 31 292 21 384 c 0,38,39
 14 488 14 488 -1.5 590.5 c 128,-1,40
 -17 693 -17 693 3 804 c 0,41,42
 17 865 17 865 35.5 924.5 c 128,-1,43
 54 984 54 984 89 1042 c 0,44,45
 146 1134 146 1134 227.5 1196.5 c 128,-1,46
 309 1259 309 1259 403.5 1299.5 c 128,-1,47
 498 1340 498 1340 597 1358.5 c 128,-1,48
 696 1377 696 1377 786 1377 c 0,49,50
 892 1377 892 1377 1000.5 1355 c 128,-1,51
 1109 1333 1109 1333 1190.5 1280 c 128,-1,52
 1272 1227 1272 1227 1315 1141 c 128,-1,53
 1358 1055 1358 1055 1333 929 c 2,54,-1
 1156 0 l 1,55,-1
 871 0 l 1,0,-1
793 774 m 0,56,57
 800 818 800 818 776.5 844.5 c 128,-1,58
 753 871 753 871 712 871 c 256,59,60
 668 871 668 871 632.5 846 c 128,-1,61
 597 821 597 821 590 774 c 0,62,63
 583 733 583 733 605.5 706 c 128,-1,64
 628 679 628 679 672 679 c 256,65,66
 715 679 715 679 750.5 704 c 128,-1,67
 786 729 786 729 793 774 c 0,56,57
EndSplineSet
EndChar
StartChar: uni0E05
Encoding: 3589 3589 272
Width: 1616
VWidth: 3555
Flags: W
HStem: 0 21G<82 350 939 1234.83> 441 167<618.989 727.038> 786 157<626.811 775.114> 1069 214<771.598 888.154> 1160 224<434.273 626.707>
Fore
939 0 m 1,0,-1
 1127 981 l 2,1,2
 1134 1028 1134 1028 1130.5 1061.5 c 128,-1,3
 1127 1095 1127 1095 1088 1130 c 0,4,5
 1073 1144 1073 1144 1049 1144 c 0,6,7
 1038 1144 1038 1144 1011 1132 c 128,-1,8
 984 1120 984 1120 948.5 1107.5 c 128,-1,9
 913 1095 913 1095 875.5 1082 c 128,-1,10
 838 1069 838 1069 807 1069 c 0,11,12
 764 1069 764 1069 728.5 1084 c 128,-1,13
 693 1099 693 1099 660.5 1114.5 c 128,-1,14
 628 1130 628 1130 598.5 1145 c 128,-1,15
 569 1160 569 1160 536 1160 c 0,16,17
 488 1160 488 1160 446 1133 c 128,-1,18
 404 1106 404 1106 373 1065 c 128,-1,19
 342 1024 342 1024 320.5 978 c 128,-1,20
 299 932 299 932 292 889 c 0,21,22
 288 858 288 858 290 807.5 c 128,-1,23
 292 757 292 757 297 700.5 c 128,-1,24
 302 644 302 644 309 590 c 128,-1,25
 316 536 316 536 319 505 c 1,26,27
 352 573 352 573 384.5 649.5 c 128,-1,28
 417 726 417 726 461 792 c 128,-1,29
 505 858 505 858 569.5 900.5 c 128,-1,30
 634 943 634 943 722 943 c 0,31,32
 858 943 858 943 916 887.5 c 128,-1,33
 974 832 974 832 946 693 c 0,34,35
 939 648 939 648 910.5 601 c 128,-1,36
 882 554 882 554 841 519 c 128,-1,37
 800 484 800 484 752.5 462.5 c 128,-1,38
 705 441 705 441 658 441 c 0,39,40
 628 441 628 441 585.5 449.5 c 128,-1,41
 543 458 543 458 526 484 c 1,42,43
 472 363 472 363 421 244 c 128,-1,44
 370 125 370 125 330 0 c 1,45,-1
 82 0 l 1,46,47
 82 78 82 78 92 154.5 c 128,-1,48
 102 231 102 231 89 306 c 0,49,50
 78 377 78 377 62.5 446.5 c 128,-1,51
 47 516 47 516 34 587 c 128,-1,52
 21 658 21 658 19 731 c 128,-1,53
 17 804 17 804 31 882 c 0,54,55
 50 977 50 977 103 1066.5 c 128,-1,56
 156 1156 156 1156 232.5 1227.5 c 128,-1,57
 309 1299 309 1299 403.5 1341.5 c 128,-1,58
 498 1384 498 1384 594 1384 c 0,59,60
 637 1384 637 1384 668.5 1367.5 c 128,-1,61
 700 1351 700 1351 728.5 1333.5 c 128,-1,62
 757 1316 757 1316 784 1299.5 c 128,-1,63
 811 1283 811 1283 842 1283 c 0,64,65
 885 1283 885 1283 926 1299.5 c 128,-1,66
 967 1316 967 1316 1004.5 1335 c 128,-1,67
 1042 1354 1042 1354 1075.5 1370.5 c 128,-1,68
 1109 1387 1109 1387 1134 1387 c 0,69,70
 1184 1387 1184 1387 1233.5 1358.5 c 128,-1,71
 1283 1330 1283 1330 1322 1287.5 c 128,-1,72
 1361 1245 1361 1245 1388 1194.5 c 128,-1,73
 1415 1144 1415 1144 1418 1099 c 0,74,75
 1425 1014 1425 1014 1408 924 c 2,76,-1
 1231 0 l 1,77,-1
 939 0 l 1,0,-1
786 696 m 256,78,79
 793 736 793 736 769.5 761 c 128,-1,80
 746 786 746 786 708 786 c 256,81,82
 668 786 668 786 636 761 c 128,-1,83
 604 736 604 736 597 696 c 256,84,85
 590 658 590 658 613.5 633 c 128,-1,86
 637 608 637 608 675 608 c 256,87,88
 715 608 715 608 747 633 c 128,-1,89
 779 658 779 658 786 696 c 256,78,79
EndSplineSet
EndChar
StartChar: uni0E06
Encoding: 3590 3590 273
Width: 1619
VWidth: 3555
Flags: W
HStem: 0 21<140.5 245.5 924 1234.84> 722 136<137 318.619> 1110 20G<332.5 396.5> 1156 153<484.367 563.506> 1201 193<669.225 836.5>
Fore
970 0 m 1,0,1
 878 99 878 99 775 188.5 c 128,-1,2
 672 278 672 278 562 359 c 1,3,-1
 519 135 l 2,4,5
 516 122 516 122 510.5 112 c 128,-1,6
 505 102 505 102 498 95 c 2,7,-1
 495 92 l 2,8,9
 437 24 437 24 359 5 c 128,-1,10
 281 -14 281 -14 210 -14 c 0,11,12
 71 -14 71 -14 3.5 81.5 c 128,-1,13
 -64 177 -64 177 -35 312 c 0,14,15
 -24 377 -24 377 15 430.5 c 128,-1,16
 54 484 54 484 107 521.5 c 128,-1,17
 160 559 160 559 222.5 581.5 c 128,-1,18
 285 604 285 604 345 611 c 1,19,-1
 349 641 l 2,20,21
 356 668 356 668 366 682 c 0,22,23
 384 712 384 712 409 732.5 c 128,-1,24
 434 753 434 753 462 771 c 0,25,26
 550 838 550 838 638 927.5 c 128,-1,27
 726 1017 726 1017 746 1123 c 0,28,29
 753 1153 753 1153 744.5 1177 c 128,-1,30
 736 1201 736 1201 700 1201 c 0,31,32
 651 1201 651 1201 605 1178.5 c 128,-1,33
 559 1156 559 1156 509 1156 c 0,34,35
 476 1156 476 1156 455 1166.5 c 128,-1,36
 434 1177 434 1177 417.5 1187.5 c 128,-1,37
 401 1198 401 1198 382 1208.5 c 128,-1,38
 363 1219 363 1219 330 1219 c 0,39,40
 312 1219 312 1219 305.5 1198 c 128,-1,41
 299 1177 299 1177 292 1163 c 1,42,-1
 281 1116 l 1,43,44
 309 1130 309 1130 356 1130 c 0,45,46
 437 1130 437 1130 481.5 1075.5 c 128,-1,47
 526 1021 526 1021 509 939 c 0,48,49
 488 825 488 825 395 773.5 c 128,-1,50
 302 722 302 722 203 722 c 0,51,52
 71 722 71 722 32 809 c 128,-1,53
 -7 896 -7 896 17 1014 c 0,54,55
 28 1062 28 1062 53 1128 c 128,-1,56
 78 1194 78 1194 117 1253 c 128,-1,57
 156 1312 156 1312 210 1351.5 c 128,-1,58
 264 1391 264 1391 326 1391 c 0,59,60
 359 1391 359 1391 386 1377.5 c 128,-1,61
 413 1364 413 1364 435.5 1348.5 c 128,-1,62
 458 1333 458 1333 481.5 1321 c 128,-1,63
 505 1309 505 1309 529 1309 c 0,64,65
 559 1309 559 1309 587 1323 c 128,-1,66
 615 1337 615 1337 645 1352.5 c 128,-1,67
 675 1368 675 1368 707.5 1381 c 128,-1,68
 740 1394 740 1394 774 1394 c 0,69,70
 899 1394 899 1394 948.5 1316 c 128,-1,71
 998 1238 998 1238 977 1120 c 0,72,73
 967 1073 967 1073 938.5 1020 c 128,-1,74
 910 967 910 967 872.5 916 c 128,-1,75
 835 865 835 865 792.5 818 c 128,-1,76
 750 771 750 771 712 736 c 0,77,78
 693 722 693 722 677 707.5 c 128,-1,79
 661 693 661 693 644 675 c 256,80,81
 625 658 625 658 620 639.5 c 128,-1,82
 615 621 615 621 608 597 c 1,83,84
 648 569 648 569 683.5 547.5 c 128,-1,85
 719 526 719 526 753 502 c 2,86,-1
 1010 316 l 1,87,-1
 1212 1364 l 1,88,-1
 1493 1364 l 1,89,-1
 1231 0 l 1,90,-1
 970 0 l 1,0,1
352 929 m 256,91,92
 359 960 359 960 341 981.5 c 128,-1,93
 323 1003 323 1003 292 1003 c 0,94,95
 264 1003 264 1003 237 983 c 128,-1,96
 210 963 210 963 203 932 c 256,97,98
 196 899 196 899 213.5 878.5 c 128,-1,99
 231 858 231 858 264 858 c 0,100,101
 292 858 292 858 318.5 877 c 128,-1,102
 345 896 345 896 352 929 c 256,91,92
306 434 m 1,103,104
 252 427 252 427 214.5 391.5 c 128,-1,105
 177 356 177 356 167 302 c 0,106,107
 160 264 160 264 180 226.5 c 128,-1,108
 200 189 200 189 245 189 c 0,109,110
 252 189 252 189 258 203 c 128,-1,111
 264 217 264 217 267 224 c 1,112,-1
 306 434 l 1,103,104
EndSplineSet
EndChar
StartChar: uni0E07
Encoding: 3591 3591 274
Width: 1130
VWidth: 3555
Flags: W
HStem: 0 21G<373.5 698.5> 1212 165<607.318 752.806>
VStem: 24 939<700 1109>
Fore
760 64 m 1,0,1
 753 40 753 40 730.5 20 c 128,-1,2
 708 0 708 0 689 0 c 2,3,-1
 391 0 l 1,4,5
 356 54 356 54 324 107 c 128,-1,6
 292 160 292 160 264 217 c 0,7,8
 203 339 203 339 144 459.5 c 128,-1,9
 85 580 85 580 24 700 c 1,10,-1
 274 700 l 1,11,-1
 529 241 l 1,12,-1
 648 845 l 1,13,-1
 608 842 l 2,14,15
 495 842 495 842 430.5 915 c 128,-1,16
 366 988 366 988 391 1106 c 0,17,18
 417 1231 417 1231 516 1304 c 128,-1,19
 615 1377 615 1377 733 1377 c 256,20,21
 849 1377 849 1377 918.5 1305.5 c 128,-1,22
 988 1234 988 1234 963 1109 c 2,23,-1
 760 64 l 1,0,1
764 1116 m 256,24,25
 771 1156 771 1156 748.5 1184 c 128,-1,26
 726 1212 726 1212 686 1212 c 256,27,28
 648 1212 648 1212 614 1184 c 128,-1,29
 580 1156 580 1156 573 1116 c 256,30,31
 566 1078 566 1078 587 1049.5 c 128,-1,32
 608 1021 608 1021 648 1021 c 256,33,34
 686 1021 686 1021 721.5 1049.5 c 128,-1,35
 757 1078 757 1078 764 1116 c 256,24,25
EndSplineSet
EndChar
